*
*
G04 PADS 9.5 Build Number: 522968 generated Gerber (RS-274-X) file*
G04 PC Version=2.1*
*
%IN "ohm1.pcb"*%
*
%MOIN*%
*
%FSLAX35Y35*%
*
*
*
*
G04 PC Standard Apertures*
*
*
G04 Thermal Relief Aperture macro.*
%AMTER*
1,1,$1,0,0*
1,0,$1-$2,0,0*
21,0,$3,$4,0,0,45*
21,0,$3,$4,0,0,135*
%
*
*
G04 Annular Aperture macro.*
%AMANN*
1,1,$1,0,0*
1,0,$2,0,0*
%
*
*
G04 Odd Aperture macro.*
%AMODD*
1,1,$1,0,0*
1,0,$1-0.005,0,0*
%
*
*
G04 PC Custom Aperture Macros*
*
*
*
*
*
*
G04 PC Aperture Table*
*
%ADD010C,0.001*%
%ADD011C,0.00787*%
%ADD013C,0.01*%
*
*
*
*
G04 PC Circuitry*
G04 Layer Name ohm1.pcb - circuitry*
%LPD*%
*
*
G04 PC Custom Flashes*
G04 Layer Name ohm1.pcb - flashes*
%LPD*%
*
*
G04 PC Circuitry*
G04 Layer Name ohm1.pcb - circuitry*
%LPD*%
*
G54D10*
G54D11*
G01X1919249Y1622277D02*
X1925622D01*
Y1624196*
X1927443*
Y1622277*
X1933816*
Y1652985*
X1919249*
Y1622277*
G54D13*
X1853928Y1676357D02*
Y1682157D01*
X1860928*
Y1676357*
X1853928Y1673957D02*
Y1668157D01*
X1860928*
Y1673957*
X1814921Y1702767D02*
Y1710767D01*
X1823921*
Y1702767*
X1814921Y1699767D02*
Y1691767D01*
X1823921*
Y1699767*
X1845581Y1676390D02*
Y1682190D01*
X1852581*
Y1676390*
X1845581Y1673990D02*
Y1668190D01*
X1852581*
Y1673990*
X1852730Y1665209D02*
X1859293D01*
X1852730D02*
Y1663163D01*
X1853043Y1662481*
X1853355Y1662254*
X1853980Y1662027*
X1854605*
X1855230Y1662254*
X1855543Y1662481*
X1855855Y1663163*
Y1665209*
Y1663618D02*
X1859293Y1662027D01*
X1854293Y1659754D02*
X1853980D01*
X1853355Y1659527*
X1853043Y1659300*
X1852730Y1658845*
Y1657936*
X1853043Y1657481*
X1853355Y1657254*
X1853980Y1657027*
X1854605*
X1855230Y1657254*
X1856168Y1657709*
X1859293Y1659981*
Y1656800*
X1934440Y1620073D02*
X1936259Y1613510D01*
X1934440Y1620073D02*
X1932622Y1613510D01*
X1935577Y1615698D02*
X1933304D01*
X1930577Y1620073D02*
Y1613510D01*
Y1620073D02*
X1927622D01*
X1930577Y1616948D02*
X1928759D01*
X1925577Y1620073D02*
Y1613510D01*
Y1620073D02*
X1922622D01*
X1925577Y1616948D02*
X1923759D01*
X1925577Y1613510D02*
X1922622D01*
X1920577Y1618823D02*
X1920122Y1619135D01*
X1920122D02*
X1919440Y1620073D01*
Y1613510*
X1846567Y1661975D02*
X1845942Y1662203D01*
X1845317Y1662657*
X1845004Y1663112*
Y1664021*
X1845317Y1664475*
X1845942Y1664930*
X1846567Y1665157*
X1847504Y1665385*
X1849067*
X1850004Y1665157*
X1850629Y1664930*
X1851254Y1664475*
X1851567Y1664021*
Y1663112*
X1851254Y1662657*
X1850629Y1662203*
X1850004Y1661975*
X1845004Y1658794D02*
X1845317Y1659475D01*
X1845942Y1659703*
X1846567*
X1847192Y1659475*
X1847504Y1659021*
X1847817Y1658112*
X1848129Y1657430*
X1848754Y1656975*
X1849379Y1656748*
X1850317*
X1850942Y1656975*
X1851254Y1657203*
X1851567Y1657885*
Y1658794*
X1851254Y1659475*
X1850942Y1659703*
X1850317Y1659930*
X1849379*
X1848754Y1659703*
X1848129Y1659248*
X1847817Y1658566*
X1847504Y1657657*
X1847192Y1657203*
X1846567Y1656975*
X1845942*
X1845317Y1657203*
X1845004Y1657885*
Y1658794*
X1606299Y1481890D02*
Y1718110D01*
X2248031*
Y1647244*
X2393701*
Y1576378*
X2342520*
Y1481890*
X1606299*
X0Y0D02*
M02*
