*
*
G04 PADS 9.5 Build Number: 522968 generated Gerber (RS-274-X) file*
G04 PC Version=2.1*
*
%IN "ohm1.pcb"*%
*
%MOIN*%
*
%FSLAX35Y35*%
*
*
*
*
G04 PC Standard Apertures*
*
*
G04 Thermal Relief Aperture macro.*
%AMTER*
1,1,$1,0,0*
1,0,$1-$2,0,0*
21,0,$3,$4,0,0,45*
21,0,$3,$4,0,0,135*
%
*
*
G04 Annular Aperture macro.*
%AMANN*
1,1,$1,0,0*
1,0,$2,0,0*
%
*
*
G04 Odd Aperture macro.*
%AMODD*
1,1,$1,0,0*
1,0,$1-0.005,0,0*
%
*
*
G04 PC Custom Aperture Macros*
*
*
*
*
*
*
G04 PC Aperture Table*
*
%ADD010C,0.001*%
%ADD013C,0.01*%
*
*
*
*
G04 PC Circuitry*
G04 Layer Name ohm1.pcb - circuitry*
%LPD*%
*
*
G04 PC Custom Flashes*
G04 Layer Name ohm1.pcb - flashes*
%LPD*%
*
*
G04 PC Circuitry*
G04 Layer Name ohm1.pcb - circuitry*
%LPD*%
*
G54D10*
G54D13*
G01X1928589Y1672066D02*
Y1664066D01*
X1919589*
Y1672066*
X1928589Y1675066D02*
Y1683066D01*
X1919589*
Y1675066*
X1921891Y1610371D02*
X1916091D01*
Y1617371*
X1921891*
X1924291Y1610371D02*
X1930091D01*
Y1617371*
X1924291*
X1921891Y1630255D02*
X1916091D01*
Y1637255*
X1921891*
X1924291Y1630255D02*
X1930091D01*
Y1637255*
X1924291*
X1924091Y1619652D02*
X1916091D01*
Y1628652*
X1924091*
X1927091Y1619652D02*
X1935091D01*
Y1628652*
X1927091*
X1937062Y1670984D02*
Y1665184D01*
X1930062*
Y1670984*
X1937062Y1673384D02*
Y1679184D01*
X1930062*
Y1673384*
X1978115Y1648585D02*
X1983915D01*
Y1641585*
X1978115*
X1975715Y1648585D02*
X1969915D01*
Y1641585*
X1975715*
X1978557Y1667831D02*
X1984357D01*
Y1660831*
X1978557*
X1976157Y1667831D02*
X1970357D01*
Y1660831*
X1976157*
X2092962Y1705054D02*
X2098762D01*
Y1698054*
X2092962*
X2090562Y1705054D02*
X2084762D01*
Y1698054*
X2090562*
X1923797Y1690980D02*
X1924024Y1691605D01*
X1924479Y1692230*
X1924933Y1692543*
X1925842*
X1926297Y1692230*
X1926751Y1691605*
X1926979Y1690980*
X1927206Y1690043*
Y1688480*
X1926979Y1687543*
X1926751Y1686918*
X1926297Y1686293*
X1925842Y1685980*
X1924933*
X1924479Y1686293*
X1924024Y1686918*
X1923797Y1687543*
X1919024Y1691605D02*
X1919251Y1692230D01*
X1919933Y1692543*
X1920388*
X1921070Y1692230*
X1921524Y1691293*
X1921751Y1689730*
Y1688168*
X1921524Y1686918*
X1921070Y1686293*
X1920388Y1685980*
X1920161*
X1919479Y1686293*
X1919024Y1686918*
X1918797Y1687855*
Y1688168*
X1919024Y1689105*
X1919479Y1689730*
X1920161Y1690043*
X1920388*
X1921070Y1689730*
X1921524Y1689105*
X1921751Y1688168*
X1954635Y1607971D02*
Y1601408D01*
Y1607971D02*
X1951681D01*
X1954635Y1604846D02*
X1952817D01*
X1949635Y1607971D02*
Y1601408D01*
Y1607971D02*
X1946681D01*
X1949635Y1604846D02*
X1947817D01*
X1949635Y1601408D02*
X1946681D01*
X1944635Y1607971D02*
Y1601408D01*
Y1607971D02*
X1942590D01*
X1941908Y1607658*
X1941681Y1607346*
X1941453Y1606721*
Y1606096*
X1941681Y1605471*
X1941908Y1605158*
X1942590Y1604846*
X1944635*
X1943044D02*
X1941453Y1601408D01*
X1939408Y1607971D02*
Y1601408D01*
Y1607971D02*
X1937362D01*
X1936681Y1607658*
X1936453Y1607346*
X1936226Y1606721*
Y1606096*
X1936453Y1605471*
X1936681Y1605158*
X1937362Y1604846*
X1939408*
X1937817D02*
X1936226Y1601408D01*
X1934181Y1607971D02*
Y1601408D01*
X1930544Y1607971D02*
Y1601408D01*
X1932135Y1607971D02*
X1928953D01*
X1926908D02*
Y1601408D01*
Y1607971D02*
X1923953D01*
X1926908Y1604846D02*
X1925090D01*
X1926908Y1601408D02*
X1923953D01*
X1943138Y1635596D02*
X1943365Y1636221D01*
X1943820Y1636846*
X1944275Y1637158*
X1945184*
X1945638Y1636846*
X1946093Y1636221*
X1946320Y1635596*
X1946547Y1634658*
Y1633096*
X1946320Y1632158*
X1946093Y1631533*
X1945638Y1630908*
X1945184Y1630596*
X1944275*
X1943820Y1630908*
X1943365Y1631533*
X1943138Y1632158*
X1941093Y1635908D02*
X1940638Y1636221D01*
X1939956Y1637158*
Y1630596*
X1936547Y1637158D02*
X1937229Y1636846D01*
X1937684Y1635908*
X1937911Y1634346*
Y1633408*
X1937684Y1631846*
X1937229Y1630908*
X1936547Y1630596*
X1936093*
X1935411Y1630908*
X1934956Y1631846*
X1934729Y1633408*
Y1634346*
X1934956Y1635908*
X1935411Y1636846*
X1936093Y1637158*
X1936547*
X1943314Y1622782D02*
X1943541Y1622157D01*
X1943996Y1621532*
X1944450Y1621220*
X1945359*
X1945814Y1621532*
X1946269Y1622157*
X1946496Y1622782*
X1946723Y1623720*
Y1625282*
X1946496Y1626220*
X1946269Y1626845*
X1945814Y1627470*
X1945359Y1627782*
X1944450*
X1943996Y1627470*
X1943541Y1626845*
X1943314Y1626220*
X1938314Y1623407D02*
X1938541Y1624345D01*
X1938996Y1624970*
X1939678Y1625282*
X1939905*
X1940587Y1624970*
X1941041Y1624345*
X1941269Y1623407*
Y1623095*
X1941041Y1622157*
X1940587Y1621532*
X1939905Y1621220*
X1939678*
X1938996Y1621532*
X1938541Y1622157*
X1938314Y1623407*
Y1624970*
X1938541Y1626532*
X1938996Y1627470*
X1939678Y1627782*
X1940132*
X1940814Y1627470*
X1941041Y1626845*
X1935401Y1687112D02*
X1935628Y1687737D01*
X1936082Y1688362*
X1936537Y1688674*
X1937446*
X1937901Y1688362*
X1938355Y1687737*
X1938582Y1687112*
X1938810Y1686174*
Y1684612*
X1938582Y1683674*
X1938355Y1683049*
X1937901Y1682424*
X1937446Y1682112*
X1936537*
X1936082Y1682424*
X1935628Y1683049*
X1935401Y1683674*
X1930173Y1688674D02*
X1932446Y1682112D01*
X1933355Y1688674D02*
X1930173D01*
X1979533Y1637353D02*
X1979760Y1637978D01*
X1980215Y1638603*
X1980670Y1638916*
X1981579*
X1982033Y1638603*
X1982488Y1637978*
X1982715Y1637353*
X1982942Y1636416*
Y1634853*
X1982715Y1633916*
X1982488Y1633291*
X1982033Y1632666*
X1981579Y1632353*
X1980670*
X1980215Y1632666*
X1979760Y1633291*
X1979533Y1633916*
X1977488Y1637666D02*
X1977033Y1637978D01*
X1976351Y1638916*
Y1632353*
X1971351Y1638916D02*
X1973624D01*
X1973851Y1636103*
X1973624Y1636416*
X1972942Y1636728*
X1972260*
X1971579Y1636416*
X1971124Y1635791*
X1970897Y1634853*
X1971124Y1634228*
X1971351Y1633291*
X1971806Y1632666*
X1972488Y1632353*
X1973170*
X1973851Y1632666*
X1974079Y1632978*
X1974306Y1633603*
X1979357Y1676035D02*
X1979585Y1676660D01*
X1980039Y1677285*
X1980494Y1677598*
X1981403*
X1981857Y1677285*
X1982312Y1676660*
X1982539Y1676035*
X1982766Y1675098*
Y1673535*
X1982539Y1672598*
X1982312Y1671973*
X1981857Y1671348*
X1981403Y1671035*
X1980494*
X1980039Y1671348*
X1979585Y1671973*
X1979357Y1672598*
X1977312Y1676348D02*
X1976857Y1676660D01*
X1976175Y1677598*
Y1671035*
X1971403Y1676660D02*
X1971630Y1677285D01*
X1972312Y1677598*
X1972766*
X1973448Y1677285*
X1973903Y1676348*
X1974130Y1674785*
Y1673223*
X1973903Y1671973*
X1973448Y1671348*
X1972766Y1671035*
X1972539*
X1971857Y1671348*
X1971403Y1671973*
X1971175Y1672910*
Y1673223*
X1971403Y1674160*
X1971857Y1674785*
X1972539Y1675098*
X1972766*
X1973448Y1674785*
X1973903Y1674160*
X1974130Y1673223*
X2095302Y1695194D02*
Y1688631D01*
Y1695194D02*
X2092347D01*
X2095302Y1692069D02*
X2093484D01*
X2090302Y1693944D02*
X2089847Y1694256D01*
X2089165Y1695194*
Y1688631*
X1606299Y1481890D02*
Y1718110D01*
X2248031*
Y1647244*
X2393701*
Y1576378*
X2342520*
Y1481890*
X1606299*
X0Y0D02*
M02*
