*
*
G04 PADS 9.5 Build Number: 522968 generated Gerber (RS-274-X) file*
G04 PC Version=2.1*
*
%IN "ohm1.pcb"*%
*
%MOIN*%
*
%FSLAX35Y35*%
*
*
*
*
G04 PC Standard Apertures*
*
*
G04 Thermal Relief Aperture macro.*
%AMTER*
1,1,$1,0,0*
1,0,$1-$2,0,0*
21,0,$3,$4,0,0,45*
21,0,$3,$4,0,0,135*
%
*
*
G04 Annular Aperture macro.*
%AMANN*
1,1,$1,0,0*
1,0,$2,0,0*
%
*
*
G04 Odd Aperture macro.*
%AMODD*
1,1,$1,0,0*
1,0,$1-0.005,0,0*
%
*
*
G04 PC Custom Aperture Macros*
*
*
*
*
*
*
G04 PC Aperture Table*
*
%ADD010C,0.001*%
%ADD013C,0.01*%
%ADD017C,0.055*%
%ADD019C,0.09*%
%ADD028C,0.06*%
%ADD033C,0.03937*%
%ADD047C,0.012*%
%ADD083R,0.06X0.06*%
%ADD103C,0.015*%
%ADD135R,0.03X0.038*%
%ADD136C,0.05512*%
%ADD137R,0.05X0.06*%
%ADD138C,0.05906*%
%ADD141C,0.15748*%
%ADD157R,0.05709X0.01575*%
*
*
*
*
G04 PC Circuitry*
G04 Layer Name ohm1.pcb - circuitry*
%LPD*%
*
*
G04 PC Custom Flashes*
G04 Layer Name ohm1.pcb - flashes*
%LPD*%
*
*
G04 PC Circuitry*
G04 Layer Name ohm1.pcb - circuitry*
%LPD*%
*
G54D10*
G54D13*
G01X2243938Y1605802D02*
G75*
G03X2243938I-9374J0D01*
G01X2142462Y1543758D02*
G03X2142462I-4256J0D01*
G01X2132462D02*
G03X2132462I-4256J0D01*
G01X2122462D02*
G03X2122462I-4256J0D01*
G01X2112462D02*
G03X2112462I-4256J0D01*
G01X2094265Y1605802D02*
G03X2094265I-9374J0D01*
G01X2100943Y1644199D02*
G03X2100943I-4256J0D01*
G01X2041399Y1577359D02*
G03X2041399I-4250J0D01*
G01X2040741Y1640130D02*
G03X2040741I-4250J0D01*
G01X2028557Y1589386D02*
G03X2028557I-4250J0D01*
G01X2015682Y1589307D02*
G03X2015682I-4250J0D01*
G01X2003294Y1600515D02*
G03X2003294I-4250J0D01*
G01X2002007Y1616205D02*
G03X2002007I-4250J0D01*
G01X1988727Y1525156D02*
G03X1988727I-4500J0D01*
G01Y1556652D02*
G03X1988727I-4500J0D01*
G01X1988858Y1594883D02*
G03X1988858I-4500J0D01*
G01X1980011Y1649103D02*
G03X1980011I-4250J0D01*
G01X1945691Y1695636D02*
G03X1945691I-4256J0D01*
G01X1915691D02*
G03X1915691I-4256J0D01*
G01X1757406Y1694488D02*
G03X1757406I-9375J0D01*
G01Y1505512D02*
G03X1757406I-9375J0D01*
G01X1846630Y1505281D02*
G03X1846630I-4256J0D01*
G01X1847967Y1537828D02*
G03X1847967I-4500J0D01*
G01X1850238Y1599453D02*
G03X1850238I-4256J0D01*
G01X1850278Y1652344D02*
G03X1850278I-4256J0D01*
G01X1886388Y1504833D02*
G03X1886388I-4256J0D01*
G01X1883150Y1563366D02*
G03X1883150I-4250J0D01*
G01X1883393Y1573957D02*
G03X1883393I-4250J0D01*
G01X1867094Y1590134D02*
G03X1867094I-4250J0D01*
G01X1869218Y1628108D02*
G03X1869218I-4250J0D01*
G01X1909227Y1539642D02*
G03X1909227I-4250J0D01*
G01X1922464D02*
G03X1922464I-4250J0D01*
G01X1952335Y1575156D02*
G03X1952335I-4500J0D01*
G01X1948201Y1599654D02*
G03X1948201I-4256J0D01*
G01X1937706Y1564386D02*
G03X1937706I-4250J0D01*
G01X1937632Y1573957D02*
G03X1937632I-4250J0D01*
G01X2392201Y1578378D02*
Y1645244D01*
G03X2391701Y1645744I-500J0*
G01X2248031*
X2246531Y1647244D02*
G03X2248031Y1645744I1500J0D01*
G01X2246531Y1647244D02*
Y1716110D01*
G03X2246031Y1716610I-500J0*
G01X1679776*
G03X1679276Y1716110I-0J-500*
G01Y1680378*
G03X1679776Y1679878I500J-0*
G01X1823273*
Y1531009*
X1679424*
G03X1678924Y1530509I-0J-500*
G01Y1483890*
G03X1679424Y1483390I500J-0*
G01X2340520*
G03X2341020Y1483890I-0J500*
G01Y1576378*
X2342520Y1577878D02*
G03X2341020Y1576378I-0J-1500D01*
G01X2342520Y1577878D02*
X2391701D01*
G03X2392201Y1578378I-0J500*
G01X2149492Y1686745D02*
G03X2149360Y1687547I-353J354D01*
G01X2146857Y1691567D02*
G03X2149360Y1687547I4500J13D01*
G01X2146857Y1691567D02*
G03Y1691580I-500J-1D01*
Y1691593I-500J15*
G01X2147409Y1693740D02*
G03X2146857Y1691593I3948J-2160D01*
G01X2147409Y1693740D02*
G03X2146971Y1694480I-438J240D01*
G01X2145743*
G03X2145305Y1693740I0J-500*
G01X2145857Y1691593D02*
G03X2145305Y1693740I-4500J-13D01*
G01X2145857Y1691593D02*
G03Y1691580I500J2D01*
Y1691567I500J-14*
G01X2136857D02*
G03X2145857I4500J13D01*
G01X2136857D02*
G03Y1691580I-500J-1D01*
Y1691593I-500J15*
G01X2137409Y1693740D02*
G03X2136857Y1691593I3948J-2160D01*
G01X2137409Y1693740D02*
G03X2136971Y1694480I-438J240D01*
G01X2135743*
G03X2135305Y1693740I0J-500*
G01X2135857Y1691593D02*
G03X2135305Y1693740I-4500J-13D01*
G01X2135857Y1691593D02*
G03Y1691580I500J2D01*
Y1691567I500J-14*
G01X2126857D02*
G03X2135857I4500J13D01*
G01X2126857D02*
G03Y1691580I-500J-1D01*
Y1691593I-500J15*
G01X2127409Y1693740D02*
G03X2126857Y1691593I3948J-2160D01*
G01X2127409Y1693740D02*
G03X2126971Y1694480I-438J240D01*
G01X2125743*
G03X2125305Y1693740I0J-500*
G01X2125857Y1691593D02*
G03X2125305Y1693740I-4500J-13D01*
G01X2125857Y1691593D02*
G03Y1691580I500J2D01*
Y1691567I500J-14*
G01X2116857D02*
G03X2125857I4500J13D01*
G01X2116857D02*
G03Y1691580I-500J-1D01*
Y1691593I-500J15*
G01X2117409Y1693740D02*
G03X2116857Y1691593I3948J-2160D01*
G01X2117409Y1693740D02*
G03X2116971Y1694480I-438J240D01*
G01X2115743*
G03X2115305Y1693740I0J-500*
G01X2115857Y1691593D02*
G03X2115305Y1693740I-4500J-13D01*
G01X2115857Y1691593D02*
G03Y1691580I500J2D01*
Y1691567I500J-14*
G01X2107409Y1693740D02*
G03X2115857Y1691567I3948J-2160D01*
G01X2107409Y1693740D02*
G03X2106971Y1694480I-438J240D01*
G01X2070698*
G03X2070344Y1694334I-0J-500*
G01X2061689Y1685678*
G03X2062042Y1684824I353J-354*
G01X2147364*
G03X2147718Y1684971I0J500*
G01X2149492Y1686745*
X2243938Y1605802D02*
G03X2243938I-9374J0D01*
G01X2197159Y1506340D02*
G03Y1506366I4500J13D01*
G01Y1506340D02*
G03Y1506353I-500J-1D01*
Y1506366I-500J15*
G01X2196159Y1506353D02*
G03Y1506340I500J-14D01*
G01Y1506366D02*
G03Y1506340I-4500J-13D01*
G01Y1506366D02*
G03Y1506353I500J2D01*
G01X2158193Y1506340D02*
G03Y1506366I4500J13D01*
G01Y1506340D02*
G03Y1506353I-500J-1D01*
Y1506366I-500J15*
G01X2157193Y1506353D02*
G03Y1506340I500J-14D01*
G01Y1506366D02*
G03Y1506340I-4500J-13D01*
G01Y1506366D02*
G03Y1506353I500J2D01*
G01X2142462Y1543758D02*
G03X2142462I-4256J0D01*
G01X2132462D02*
G03X2132462I-4256J0D01*
G01X2122462D02*
G03X2122462I-4256J0D01*
G01X2112462D02*
G03X2112462I-4256J0D01*
G01X2094265Y1605802D02*
G03X2094265I-9374J0D01*
G01X2100943Y1644199D02*
G03X2100943I-4256J0D01*
G01X2041399Y1577359D02*
G03X2041399I-4250J0D01*
G01X2040741Y1640130D02*
G03X2040741I-4250J0D01*
G01X2028557Y1589386D02*
G03X2028557I-4250J0D01*
G01X2015682Y1589307D02*
G03X2015682I-4250J0D01*
G01X2003294Y1600515D02*
G03X2003294I-4250J0D01*
G01X2002007Y1616205D02*
G03X2002007I-4250J0D01*
G01X1988727Y1525156D02*
G03X1988727I-4500J0D01*
G01Y1556652D02*
G03X1988727I-4500J0D01*
G01X1988858Y1578198D02*
Y1572198D01*
X1987358Y1570698D02*
G03X1988858Y1572198I0J1500D01*
G01X1987358Y1570698D02*
X1981358D01*
X1979858Y1572198D02*
G03X1981358Y1570698I1500J0D01*
G01X1979858Y1572198D02*
Y1578198D01*
X1981358Y1579698D02*
G03X1979858Y1578198I0J-1500D01*
G01X1981358Y1579698D02*
X1987358D01*
X1988858Y1578198D02*
G03X1987358Y1579698I-1500J0D01*
G01X1988858Y1594883D02*
G03X1988858I-4500J0D01*
G01X2231370Y1697080D02*
G03X2226857Y1701593I-13J4500D01*
G01X2231370Y1697080D02*
G03X2231357I1J-500D01*
X2231344I-15J-500*
G01X2228452Y1698144D02*
G03X2231344Y1697080I2905J3436D01*
G01X2228452Y1698144D02*
G03X2227634Y1697688I-323J-382D01*
G01X2227657Y1697380D02*
G03X2227634Y1697688I-2100J0D01*
G01X2227657Y1697380D02*
Y1695422D01*
G03X2228477Y1695038I500J-0*
G01X2231344Y1696080D02*
G03X2228477Y1695038I13J-4500D01*
G01X2231344Y1696080D02*
G03X2231357I-2J500D01*
X2231370I14J500*
G01X2227994Y1688590D02*
G03X2231370Y1696080I3363J2990D01*
G01X2227994Y1688590D02*
G03X2227223Y1688562I-374J-332D01*
G01X2227042Y1688355D02*
G03X2227223Y1688562I-1485J1485D01*
G01X2227042Y1688355D02*
X2206884Y1668197D01*
X2205399Y1667582D02*
G03X2206884Y1668197I0J2100D01*
G01X2205399Y1667582D02*
X2055580D01*
G03X2055226Y1667436I-0J-500*
G01X2009861Y1622071*
X2008376Y1621456D02*
G03X2009861Y1622071I0J2100D01*
G01X2008376Y1621456D02*
X1979134D01*
G03X1978824Y1620564I-0J-500*
G01X1973548D02*
G03X1978824I2638J-3340D01*
G01X1973548D02*
G03X1973239Y1621456I-309J392D01*
G01X1941748*
G03X1941537Y1621409I-0J-500*
G01X1940903Y1621269D02*
G03X1941537Y1621409I-0J1500D01*
G01X1940903Y1621269D02*
X1935194D01*
X1933694Y1622769D02*
G03X1935194Y1621269I1500J-0D01*
G01X1933694Y1622769D02*
Y1624344D01*
X1933740Y1624713D02*
G03X1933694Y1624344I1454J-369D01*
G01X1933740Y1624713D02*
G03Y1624959I-485J123D01*
G01X1933694Y1625328D02*
G03X1933740Y1624959I1500J-0D01*
G01X1933694Y1625328D02*
Y1626903D01*
X1933740Y1627272D02*
G03X1933694Y1626903I1454J-369D01*
G01X1933740Y1627272D02*
G03Y1627518I-485J123D01*
G01X1933694Y1627887D02*
G03X1933740Y1627518I1500J-0D01*
G01X1933694Y1627887D02*
Y1629462D01*
X1933740Y1629831D02*
G03X1933694Y1629462I1454J-369D01*
G01X1933740Y1629831D02*
G03Y1630077I-485J123D01*
G01X1933694Y1630446D02*
G03X1933740Y1630077I1500J-0D01*
G01X1933694Y1630446D02*
Y1631204D01*
G03X1933242Y1631702I-500J0*
G01X1931957Y1632307D02*
G03X1933242Y1631702I1485J1485D01*
G01X1931957Y1632307D02*
X1930846Y1633418D01*
G03X1930028Y1633250I-353J-353*
G01X1924505Y1638773D02*
G03X1930028Y1633250I1576J-3947D01*
G01X1924505Y1638773D02*
G03X1924674Y1639591I-185J464D01*
G01X1922661Y1641604*
X1922046Y1643089D02*
G03X1922661Y1641604I2100J-0D01*
G01X1922046Y1643089D02*
Y1645020D01*
G03X1921147Y1645322I-500J0*
G01X1919794Y1644513D02*
G03X1921147Y1645322I-323J2075D01*
G01X1919794Y1644513D02*
G03X1919371Y1644019I77J-494D01*
G01Y1643241*
X1919325Y1642872D02*
G03X1919371Y1643241I-1454J369D01*
G01X1919325Y1642872D02*
G03Y1642626I485J-123D01*
G01X1919371Y1642257D02*
G03X1919325Y1642626I-1500J-0D01*
G01X1919371Y1642257D02*
Y1640682D01*
X1919325Y1640313D02*
G03X1919371Y1640682I-1454J369D01*
G01X1919325Y1640313D02*
G03Y1640067I485J-123D01*
G01X1919371Y1639698D02*
G03X1919325Y1640067I-1500J-0D01*
G01X1919371Y1639698D02*
Y1638123D01*
X1919325Y1637754D02*
G03X1919371Y1638123I-1454J369D01*
G01X1919325Y1637754D02*
G03Y1637508I485J-123D01*
G01X1919371Y1637139D02*
G03X1919325Y1637508I-1500J-0D01*
G01X1919371Y1637139D02*
Y1635564D01*
X1919325Y1635195D02*
G03X1919371Y1635564I-1454J369D01*
G01X1919325Y1635195D02*
G03Y1634949I485J-123D01*
G01X1919371Y1634580D02*
G03X1919325Y1634949I-1500J-0D01*
G01X1919371Y1634580D02*
Y1633005D01*
X1919325Y1632636D02*
G03X1919371Y1633005I-1454J369D01*
G01X1919325Y1632636D02*
G03Y1632390I485J-123D01*
G01X1919371Y1632021D02*
G03X1919325Y1632390I-1500J-0D01*
G01X1919371Y1632021D02*
Y1630446D01*
X1919325Y1630077D02*
G03X1919371Y1630446I-1454J369D01*
G01X1919325Y1630077D02*
G03Y1629831I485J-123D01*
G01X1919371Y1629462D02*
G03X1919325Y1629831I-1500J-0D01*
G01X1919371Y1629462D02*
Y1627887D01*
X1919325Y1627518D02*
G03X1919371Y1627887I-1454J369D01*
G01X1919325Y1627518D02*
G03Y1627272I485J-123D01*
G01X1919371Y1626903D02*
G03X1919325Y1627272I-1500J-0D01*
G01X1919371Y1626903D02*
Y1625328D01*
X1919325Y1624959D02*
G03X1919371Y1625328I-1454J369D01*
G01X1919325Y1624959D02*
G03Y1624713I485J-123D01*
G01X1919371Y1624344D02*
G03X1919325Y1624713I-1500J-0D01*
G01X1919371Y1624344D02*
Y1622769D01*
X1918747Y1621551D02*
G03X1919371Y1622769I-876J1218D01*
G01X1918747Y1621551D02*
G03X1918663Y1620816I293J-406D01*
G01X1912048Y1620540D02*
G03X1918663Y1620816I3419J-2525D01*
G01X1912048Y1620540D02*
G03X1911775Y1621320I-402J297D01*
G01X1911529Y1621409D02*
G03X1911775Y1621320I634J1360D01*
G01X1911529Y1621409D02*
G03X1911317Y1621456I-212J-453D01*
G01X1903519*
X1902034Y1622071D02*
G03X1903519Y1621456I1485J1485D01*
G01X1902034Y1622071D02*
X1897276Y1626829D01*
G03X1896820Y1626965I-353J-354*
G01X1899451Y1633535D02*
G03X1896820Y1626965I-3501J-2410D01*
G01X1899451Y1633535D02*
G03X1900216Y1633464I412J283D01*
G01X1901545Y1634364D02*
G03X1900216Y1633464I1675J-3906D01*
G01X1901545Y1634364D02*
G03X1901724Y1635153I-197J459D01*
G01X1902767Y1641615D02*
G03X1901724Y1635153I2155J-3663D01*
G01X1902767Y1641615D02*
G03X1902909Y1642352I-254J431D01*
G01X1902261Y1646379D02*
G03X1902909Y1642352I4005J-1421D01*
G01X1902261Y1646379D02*
G03X1901790Y1647047I-471J168D01*
G01X1886139*
X1884654Y1647662D02*
G03X1886139Y1647047I1485J1485D01*
G01X1884654Y1647662D02*
X1861281Y1671034D01*
G03X1860428Y1670680I-353J-354*
G01Y1670157*
X1859553Y1668794D02*
G03X1860428Y1670157I-625J1363D01*
G01X1859553Y1668794D02*
G03X1859261Y1668339I208J-455D01*
G01Y1666776*
G03X1859488Y1666358I500J0*
G01X1854835D02*
G03X1859488I2326J-3557D01*
G01X1854835D02*
G03X1855061Y1666776I-274J418D01*
G01Y1668697*
G03X1854903Y1669062I-500J0*
G01X1854428Y1670157D02*
G03X1854903Y1669062I1500J0D01*
G01X1854428Y1670157D02*
Y1673957D01*
X1854728Y1674857D02*
G03X1854428Y1673957I1200J-900D01*
G01X1854728Y1674857D02*
G03Y1675457I-400J300D01*
G01X1854523Y1675832D02*
G03X1854728Y1675457I1405J525D01*
G01X1854523Y1675832D02*
G03X1854054Y1676157I-469J-175D01*
G01X1853271*
X1852938Y1676184D02*
G03X1853271Y1676157I333J2073D01*
G01X1852938Y1676184D02*
G03X1852859Y1676190I-79J-494D01*
G01X1852455*
G03X1851987Y1675865I-0J-500*
G01X1851781Y1675490D02*
G03X1851987Y1675865I-1200J900D01*
G01X1851781Y1675490D02*
G03Y1674890I400J-300D01*
G01X1852081Y1673990D02*
G03X1851781Y1674890I-1500J0D01*
G01X1852081Y1673990D02*
Y1670190D01*
X1850581Y1668690D02*
G03X1852081Y1670190I0J1500D01*
G01X1850581Y1668690D02*
X1847581D01*
X1846081Y1670190D02*
G03X1847581Y1668690I1500J0D01*
G01X1846081Y1670190D02*
Y1673990D01*
X1846381Y1674890D02*
G03X1846081Y1673990I1200J-900D01*
G01X1846381Y1674890D02*
G03Y1675490I-400J300D01*
G01X1846081Y1676390D02*
G03X1846381Y1675490I1500J0D01*
G01X1846081Y1676390D02*
Y1678513D01*
G03X1845935Y1678867I-500J0*
G01X1831712Y1693090*
X1831702Y1693100D02*
G03X1831712Y1693090I1495J1475D01*
G01X1831702Y1693100D02*
G03X1831531Y1693213I-356J-351D01*
G01X1831067Y1701358D02*
G03X1831531Y1693213I2130J-3964D01*
G01X1831067Y1701358D02*
G03X1830830Y1702298I-237J440D01*
G01X1823671*
G03X1823233Y1702040I-0J-500*
G01X1822913Y1701642D02*
G03X1823233Y1702040I-992J1125D01*
G01X1822913Y1701642D02*
G03Y1700892I331J-375D01*
G01X1823421Y1699767D02*
G03X1822913Y1700892I-1500J-0D01*
G01X1823421Y1699767D02*
Y1693767D01*
X1821921Y1692267D02*
G03X1823421Y1693767I-0J1500D01*
G01X1821921Y1692267D02*
X1816921D01*
X1815421Y1693767D02*
G03X1816921Y1692267I1500J-0D01*
G01X1815421Y1693767D02*
Y1699767D01*
X1815929Y1700892D02*
G03X1815421Y1699767I992J-1125D01*
G01X1815929Y1700892D02*
G03Y1701642I-331J375D01*
G01X1815421Y1702767D02*
G03X1815929Y1701642I1500J-0D01*
G01X1815421Y1702767D02*
Y1708767D01*
X1816921Y1710267D02*
G03X1815421Y1708767I-0J-1500D01*
G01X1816921Y1710267D02*
X1821921D01*
X1823233Y1709493D02*
G03X1821921Y1710267I-1312J-726D01*
G01X1823233Y1709493D02*
G03X1823671Y1709235I438J242D01*
G01X1828779*
G03X1829221Y1709501I-0J500*
G01X1835934Y1710965D02*
G03X1829221Y1709501I-2737J-3571D01*
G01X1835934Y1710965D02*
G03X1836238Y1710862I304J397D01*
G01X1840155*
G03X1840459Y1710965I0J500*
G01X1847697Y1707407D02*
G03X1840459Y1710965I-4500J-13D01*
G01X1847697Y1707407D02*
G03Y1707394I500J1D01*
Y1707381I500J-15*
G01X1843210Y1702894D02*
G03X1847697Y1707381I-13J4500D01*
G01X1843210Y1702894D02*
G03X1843197Y1702893I1J-500D01*
X1843184Y1702894I-15J-499*
G01X1840459Y1703822D02*
G03X1843184Y1702894I2738J3572D01*
G01X1840459Y1703822D02*
G03X1840155Y1703925I-304J-397D01*
G01X1836238*
G03X1835934Y1703822I0J-500*
G01X1833651Y1702917D02*
G03X1835934Y1703822I-454J4477D01*
G01X1833651Y1702917D02*
G03X1833433Y1702841I50J-498D01*
G01X1833371Y1702802D02*
G03X1833433Y1702841I-1801J2965D01*
G01X1833371Y1702802D02*
G03X1833587Y1701877I259J-427D01*
G01X1837697Y1697407D02*
G03X1833587Y1701877I-4500J-13D01*
G01X1837697Y1697407D02*
G03Y1697394I500J1D01*
Y1697381I500J-15*
G01X1836741Y1694621D02*
G03X1837697Y1697381I-3544J2773D01*
G01X1836741Y1694621D02*
G03X1836782Y1693960I394J-308D01*
G01X1848905Y1681837*
G03X1849258Y1681690I353J353*
G01X1850581*
X1851987Y1680715D02*
G03X1850581Y1681690I-1406J-525D01*
G01X1851987Y1680715D02*
G03X1852455Y1680390I468J175D01*
G01X1853238*
X1853571Y1680364D02*
G03X1853238Y1680390I-333J-2074D01*
G01X1853571Y1680364D02*
G03X1853650Y1680358I79J494D01*
G01X1853650D02*
X1854054D01*
X1854054D02*
G03X1854523Y1680682I0J500D01*
G01X1855928Y1681658D02*
G03X1854523Y1680682I-0J-1501D01*
G01X1855928Y1681658D02*
X1858928D01*
X1860428Y1680157D02*
G03X1858928Y1681658I-1500J0D01*
G01X1860428Y1680157D02*
Y1678034D01*
G03X1860574Y1677681I500J0*
G01X1886862Y1651393*
G03X1887216Y1651247I354J354*
G01X1910162*
G03X1910662Y1651747I0J500*
G01Y1652493*
X1912163Y1653993D02*
G03X1910662Y1652493I-0J-1500D01*
G01X1912163Y1653993D02*
X1914457D01*
G03X1914810Y1654847I-0J500*
G01X1898460Y1671197*
G03X1898107Y1671344I-353J-353*
G01X1887147*
X1885662Y1671959D02*
G03X1887147Y1671344I1485J1485D01*
G01X1885662Y1671959D02*
X1864732Y1692889D01*
G03X1864260Y1693021I-354J-354*
G01X1858697Y1697381D02*
G03X1864260Y1693021I4500J13D01*
G01X1858697Y1697381D02*
G03Y1697394I-500J-2D01*
Y1697407I-500J14*
G01X1863184Y1701894D02*
G03X1858697Y1697407I13J-4500D01*
G01X1863184Y1701894D02*
G03X1863197I-2J500D01*
X1863210I14J500*
G01X1867697Y1697407D02*
G03X1863210Y1701894I-4500J-13D01*
G01X1867697Y1697407D02*
G03Y1697394I500J1D01*
Y1697381I500J-15*
G01X1867569Y1696330D02*
G03X1867697Y1697381I-4372J1064D01*
G01X1867569Y1696330D02*
G03X1867702Y1695859I486J-118D01*
G01X1868099Y1695461*
G03X1868927Y1695973I354J354*
G01X1868697Y1697381D02*
G03X1868927Y1695973I4500J13D01*
G01X1868697Y1697381D02*
G03Y1697394I-500J-2D01*
Y1697407I-500J14*
G01X1873184Y1701894D02*
G03X1868697Y1697407I13J-4500D01*
G01X1873184Y1701894D02*
G03X1873197I-2J500D01*
X1873210I14J500*
G01X1877697Y1697407D02*
G03X1873210Y1701894I-4500J-13D01*
G01X1877697Y1697407D02*
G03Y1697394I500J1D01*
Y1697381I500J-15*
G01X1871776Y1693124D02*
G03X1877697Y1697381I1421J4270D01*
G01X1871776Y1693124D02*
G03X1871265Y1692296I-158J-475D01*
G01X1887870Y1675690*
G03X1888224Y1675544I354J354*
G01X1899184*
X1900668Y1674929D02*
G03X1899184Y1675544I-1484J-1485D01*
G01X1900668Y1674929D02*
X1904401Y1671196D01*
G03X1905218Y1671362I354J353*
G01X1910751Y1665830D02*
G03X1905218Y1671362I-1592J3941D01*
G01X1910751Y1665830D02*
G03X1910584Y1665013I187J-464D01*
G01X1920956Y1654641*
X1921147Y1654422D02*
G03X1920956Y1654641I-1676J-1266D01*
G01X1921147Y1654422D02*
G03X1922046Y1654723I399J301D01*
G01Y1661583*
G03X1921219Y1661962I-500J0*
G01Y1668404D02*
G03Y1661962I-2782J-3221D01*
G01Y1668404D02*
G03X1922046Y1668782I327J378D01*
G01Y1676025*
G03X1921899Y1676379I-500J0*
G01X1919950Y1678328*
X1919335Y1679813D02*
G03X1919950Y1678328I2100J-0D01*
G01X1919335Y1679813D02*
Y1691654D01*
G03X1919108Y1692073I-500J-0*
G01X1923762D02*
G03X1919108I-2327J3563D01*
G01X1923762D02*
G03X1923535Y1691654I273J-419D01*
G01Y1680890*
G03X1923682Y1680536I500J-0*
G01X1924745Y1679473*
G03X1925598Y1679827I353J354*
G01Y1681463*
X1926213Y1682948D02*
G03X1925598Y1681463I1485J-1485D01*
G01X1926213Y1682948D02*
X1929189Y1685924D01*
G03X1929335Y1686277I-354J353*
G01Y1691654*
G03X1929108Y1692073I-500J-0*
G01X1933762D02*
G03X1929108I-2327J3563D01*
G01X1933762D02*
G03X1933535Y1691654I273J-419D01*
G01Y1685200*
X1932920Y1683715D02*
G03X1933535Y1685200I-1485J1485D01*
G01X1932920Y1683715D02*
X1929945Y1680740D01*
G03X1929798Y1680387I353J-353*
G01Y1652506*
G03X1930440Y1652027I500J-0*
G01X1933031Y1651970D02*
G03X1930440Y1652027I-1383J-4018D01*
G01X1933031Y1651970D02*
G03X1933694Y1652443I163J473D01*
G01Y1652493*
X1935194Y1653993D02*
G03X1933694Y1652493I0J-1500D01*
G01X1935194Y1653993D02*
X1940903D01*
X1942403Y1652493D02*
G03X1940903Y1653993I-1500J0D01*
G01X1942403Y1652493D02*
Y1651747D01*
G03X1942903Y1651247I500J-0*
G01X1948101*
G03X1948454Y1651393I-0J500*
G01X1953825Y1656764*
G03X1953958Y1657233I-354J353*
G01X1957264Y1653927D02*
G03X1953958Y1657233I1027J4333D01*
G01X1957264Y1653927D02*
G03X1956795Y1653794I-116J-487D01*
G01X1951994Y1648993*
G03X1952040Y1648245I353J-354*
G01X1952235Y1648073D02*
G03X1952040Y1648245I-1485J-1485D01*
G01X1952235Y1648073D02*
X1956795Y1643513D01*
G03X1957264Y1643380I353J353*
G01X1961587Y1636053D02*
G03X1957264Y1643380I-3296J2994D01*
G01X1961587Y1636053D02*
G03X1961957Y1635217I370J-336D01*
G01X2005081*
G03X2005434Y1635363I-0J500*
G01X2068136Y1698065*
X2069621Y1698680D02*
G03X2068136Y1698065I-0J-2100D01*
G01X2069621Y1698680D02*
X2106357D01*
G03X2106857Y1699180I-0J500*
G01Y1704580*
X2108357Y1706080D02*
G03X2106857Y1704580I-0J-1500D01*
G01X2108357Y1706080D02*
X2114357D01*
X2115669Y1705306D02*
G03X2114357Y1706080I-1312J-726D01*
G01X2115669Y1705306D02*
G03X2116107Y1705049I438J243D01*
G01X2118315*
G03X2118620Y1705152I0J500*
G01X2125857Y1701593D02*
G03X2118620Y1705152I-4500J-13D01*
G01X2125857Y1701593D02*
G03Y1701580I500J2D01*
Y1701567I500J-14*
G01X2125305Y1699420D02*
G03X2125857Y1701567I-3948J2160D01*
G01X2125305Y1699420D02*
G03X2125743Y1698680I438J-240D01*
G01X2126971*
G03X2127409Y1699420I-0J500*
G01X2126857Y1701567D02*
G03X2127409Y1699420I4500J13D01*
G01X2126857Y1701567D02*
G03Y1701580I-500J-1D01*
Y1701593I-500J15*
G01X2135857D02*
G03X2126857I-4500J-13D01*
G01X2135857D02*
G03Y1701580I500J2D01*
Y1701567I500J-14*
G01X2135305Y1699420D02*
G03X2135857Y1701567I-3948J2160D01*
G01X2135305Y1699420D02*
G03X2135743Y1698680I438J-240D01*
G01X2136971*
G03X2137409Y1699420I-0J500*
G01X2136857Y1701567D02*
G03X2137409Y1699420I4500J13D01*
G01X2136857Y1701567D02*
G03Y1701580I-500J-1D01*
Y1701593I-500J15*
G01X2145857D02*
G03X2136857I-4500J-13D01*
G01X2145857D02*
G03Y1701580I500J2D01*
Y1701567I500J-14*
G01X2145305Y1699420D02*
G03X2145857Y1701567I-3948J2160D01*
G01X2145305Y1699420D02*
G03X2145743Y1698680I438J-240D01*
G01X2146971*
G03X2147409Y1699420I-0J500*
G01X2146857Y1701567D02*
G03X2147409Y1699420I4500J13D01*
G01X2146857Y1701567D02*
G03Y1701580I-500J-1D01*
Y1701593I-500J15*
G01X2155857D02*
G03X2146857I-4500J-13D01*
G01X2155857D02*
G03Y1701580I500J2D01*
Y1701567I500J-14*
G01X2155627Y1700159D02*
G03X2155857Y1701567I-4270J1421D01*
G01X2155627Y1700159D02*
G03X2156455Y1699648I474J-158D01*
G01X2156852Y1700045*
G03X2156984Y1700517I-353J354*
G01X2156857Y1701567D02*
G03X2156984Y1700517I4500J13D01*
G01X2156857Y1701567D02*
G03Y1701580I-500J-1D01*
Y1701593I-500J15*
G01X2165857D02*
G03X2156857I-4500J-13D01*
G01X2165857D02*
G03Y1701580I500J2D01*
Y1701567I500J-14*
G01X2164815Y1698701D02*
G03X2165857Y1701567I-3458J2879D01*
G01X2164815Y1698701D02*
G03X2165200Y1697881I385J-320D01*
G01X2167514*
G03X2167899Y1698701I0J500*
G01X2166857Y1701567D02*
G03X2167899Y1698701I4500J13D01*
G01X2166857Y1701567D02*
G03Y1701580I-500J-1D01*
Y1701593I-500J15*
G01X2175857D02*
G03X2166857I-4500J-13D01*
G01X2175857D02*
G03Y1701580I500J2D01*
Y1701567I500J-14*
G01X2174815Y1698701D02*
G03X2175857Y1701567I-3458J2879D01*
G01X2174815Y1698701D02*
G03X2175200Y1697881I385J-320D01*
G01X2177514*
G03X2177899Y1698701I0J500*
G01X2176857Y1701567D02*
G03X2177899Y1698701I4500J13D01*
G01X2176857Y1701567D02*
G03Y1701580I-500J-1D01*
Y1701593I-500J15*
G01X2185857D02*
G03X2176857I-4500J-13D01*
G01X2185857D02*
G03Y1701580I500J2D01*
Y1701567I500J-14*
G01X2184815Y1698701D02*
G03X2185857Y1701567I-3458J2879D01*
G01X2184815Y1698701D02*
G03X2185200Y1697881I385J-320D01*
G01X2187514*
G03X2187899Y1698701I0J500*
G01X2186857Y1701567D02*
G03X2187899Y1698701I4500J13D01*
G01X2186857Y1701567D02*
G03Y1701580I-500J-1D01*
Y1701593I-500J15*
G01X2195857D02*
G03X2186857I-4500J-13D01*
G01X2195857D02*
G03Y1701580I500J2D01*
Y1701567I500J-14*
G01X2194815Y1698701D02*
G03X2195857Y1701567I-3458J2879D01*
G01X2194815Y1698701D02*
G03X2195200Y1697881I385J-320D01*
G01X2197514*
G03X2197899Y1698701I0J500*
G01X2196857Y1701567D02*
G03X2197899Y1698701I4500J13D01*
G01X2196857Y1701567D02*
G03Y1701580I-500J-1D01*
Y1701593I-500J15*
G01X2205857D02*
G03X2196857I-4500J-13D01*
G01X2205857D02*
G03Y1701580I500J2D01*
Y1701567I500J-14*
G01X2204815Y1698701D02*
G03X2205857Y1701567I-3458J2879D01*
G01X2204815Y1698701D02*
G03X2205200Y1697881I385J-320D01*
G01X2207156*
X2207465Y1697858D02*
G03X2207156Y1697881I-309J-2077D01*
G01X2207465Y1697858D02*
G03X2207920Y1698675I73J495D01*
G01X2206857Y1701567D02*
G03X2207920Y1698675I4500J13D01*
G01X2206857Y1701567D02*
G03Y1701580I-500J-1D01*
Y1701593I-500J15*
G01X2215857D02*
G03X2206857I-4500J-13D01*
G01X2215857D02*
G03Y1701580I500J2D01*
Y1701567I500J-14*
G01X2211370Y1697080D02*
G03X2215857Y1701567I-13J4500D01*
G01X2211370Y1697080D02*
G03X2211357I1J-500D01*
X2211344I-15J-500*
G01X2209936Y1697310D02*
G03X2211344Y1697080I1421J4270D01*
G01X2209936Y1697310D02*
G03X2209425Y1696482I-158J-474D01*
G01X2209822Y1696085*
G03X2210294Y1695953I354J353*
G01X2211344Y1696080D02*
G03X2210294Y1695953I13J-4500D01*
G01X2211344Y1696080D02*
G03X2211357I-2J500D01*
X2211370I14J500*
G01X2215857Y1691593D02*
G03X2211370Y1696080I-4500J-13D01*
G01X2215857Y1691593D02*
G03Y1691580I500J2D01*
Y1691567I500J-14*
G01X2215627Y1690159D02*
G03X2215857Y1691567I-4270J1421D01*
G01X2215627Y1690159D02*
G03X2216455Y1689648I474J-158D01*
G01X2216852Y1690045*
G03X2216984Y1690517I-353J354*
G01X2216857Y1691567D02*
G03X2216984Y1690517I4500J13D01*
G01X2216857Y1691567D02*
G03Y1691580I-500J-1D01*
Y1691593I-500J15*
G01X2221344Y1696080D02*
G03X2216857Y1691593I13J-4500D01*
G01X2221344Y1696080D02*
G03X2221357I-2J500D01*
X2221370I14J500*
G01X2222778Y1695850D02*
G03X2221370Y1696080I-1421J-4270D01*
G01X2222778Y1695850D02*
G03X2223289Y1696678I158J474D01*
G01X2222892Y1697075*
G03X2222420Y1697207I-354J-353*
G01X2221370Y1697080D02*
G03X2222420Y1697207I-13J4500D01*
G01X2221370Y1697080D02*
G03X2221357I1J-500D01*
X2221344I-15J-500*
G01X2216857Y1701567D02*
G03X2221344Y1697080I4500J13D01*
G01X2216857Y1701567D02*
G03Y1701580I-500J-1D01*
Y1701593I-500J15*
G01X2225857D02*
G03X2216857I-4500J-13D01*
G01X2225857D02*
G03Y1701580I500J2D01*
Y1701567I500J-14*
G01X2225730Y1700517D02*
G03X2225857Y1701567I-4373J1063D01*
G01X2225730Y1700517D02*
G03X2225862Y1700045I485J-118D01*
G01X2226259Y1699648*
G03X2227087Y1700159I354J353*
G01X2226857Y1701567D02*
G03X2227087Y1700159I4500J13D01*
G01X2226857Y1701567D02*
G03Y1701580I-500J-1D01*
Y1701593I-500J15*
G01X1980011Y1649103D02*
G03X1980011I-4250J0D01*
G01X1945691Y1695636D02*
G03X1945691I-4256J0D01*
G01X1915691D02*
G03X1915691I-4256J0D01*
G01X1888697Y1697381D02*
G03X1893210Y1701894I4500J13D01*
G01X1888697Y1697381D02*
G03Y1697394I-500J-2D01*
Y1697407I-500J14*
G01X1893184Y1701894D02*
G03X1888697Y1697407I13J-4500D01*
G01X1893184Y1701894D02*
G03X1893197I-2J500D01*
X1893210I14J500*
G01Y1702894D02*
G03X1888697Y1707407I-13J4500D01*
G01X1893210Y1702894D02*
G03X1893197Y1702893I1J-500D01*
X1893184Y1702894I-15J-499*
G01X1888697Y1707381D02*
G03X1893184Y1702894I4500J13D01*
G01X1888697Y1707381D02*
G03Y1707394I-500J-2D01*
Y1707407I-500J14*
G01X1887697Y1697394D02*
G03Y1697381I500J-15D01*
G01X1878697D02*
G03X1887697I4500J13D01*
G01X1878697D02*
G03Y1697394I-500J-2D01*
Y1697407I-500J14*
G01X1883184Y1701894D02*
G03X1878697Y1697407I13J-4500D01*
G01X1883184Y1701894D02*
G03X1883197I-2J500D01*
X1883210I14J500*
G01X1887697Y1697407D02*
G03X1883210Y1701894I-4500J-13D01*
G01X1887697Y1697407D02*
G03Y1697394I500J1D01*
G01Y1707394D02*
G03Y1707381I500J-15D01*
G01X1883210Y1702894D02*
G03X1887697Y1707381I-13J4500D01*
G01X1883210Y1702894D02*
G03X1883197Y1702893I1J-500D01*
X1883184Y1702894I-15J-499*
G01X1878697Y1707381D02*
G03X1883184Y1702894I4500J13D01*
G01X1878697Y1707381D02*
G03Y1707394I-500J-2D01*
Y1707407I-500J14*
G01X1887697D02*
G03X1878697I-4500J-13D01*
G01X1887697D02*
G03Y1707394I500J1D01*
G01X1877697D02*
G03Y1707381I500J-15D01*
G01X1873210Y1702894D02*
G03X1877697Y1707381I-13J4500D01*
G01X1873210Y1702894D02*
G03X1873197Y1702893I1J-500D01*
X1873184Y1702894I-15J-499*
G01X1868697Y1707381D02*
G03X1873184Y1702894I4500J13D01*
G01X1868697Y1707381D02*
G03Y1707394I-500J-2D01*
Y1707407I-500J14*
G01X1877697D02*
G03X1868697I-4500J-13D01*
G01X1877697D02*
G03Y1707394I500J1D01*
G01X1867697D02*
G03Y1707381I500J-15D01*
G01X1863210Y1702894D02*
G03X1867697Y1707381I-13J4500D01*
G01X1863210Y1702894D02*
G03X1863197Y1702893I1J-500D01*
X1863184Y1702894I-15J-499*
G01X1858697Y1707381D02*
G03X1863184Y1702894I4500J13D01*
G01X1858697Y1707381D02*
G03Y1707394I-500J-2D01*
Y1707407I-500J14*
G01X1867697D02*
G03X1858697I-4500J-13D01*
G01X1867697D02*
G03Y1707394I500J1D01*
G01X1857697Y1697394D02*
G03Y1697381I500J-15D01*
G01X1848697D02*
G03X1857697I4500J13D01*
G01X1848697D02*
G03Y1697394I-500J-2D01*
Y1697407I-500J14*
G01X1853184Y1701894D02*
G03X1848697Y1697407I13J-4500D01*
G01X1853184Y1701894D02*
G03X1853197I-2J500D01*
X1853210I14J500*
G01X1857697Y1697407D02*
G03X1853210Y1701894I-4500J-13D01*
G01X1857697Y1697407D02*
G03Y1697394I500J1D01*
G01Y1707394D02*
G03Y1707381I500J-15D01*
G01X1853210Y1702894D02*
G03X1857697Y1707381I-13J4500D01*
G01X1853210Y1702894D02*
G03X1853197Y1702893I1J-500D01*
X1853184Y1702894I-15J-499*
G01X1848697Y1707381D02*
G03X1853184Y1702894I4500J13D01*
G01X1848697Y1707381D02*
G03Y1707394I-500J-2D01*
Y1707407I-500J14*
G01X1857697D02*
G03X1848697I-4500J-13D01*
G01X1857697D02*
G03Y1707394I500J1D01*
G01X1847697Y1697394D02*
G03Y1697381I500J-15D01*
G01X1838697D02*
G03X1847697I4500J13D01*
G01X1838697D02*
G03Y1697394I-500J-2D01*
Y1697407I-500J14*
G01X1843184Y1701894D02*
G03X1838697Y1697407I13J-4500D01*
G01X1843184Y1701894D02*
G03X1843197I-2J500D01*
X1843210I14J500*
G01X1847697Y1697407D02*
G03X1843210Y1701894I-4500J-13D01*
G01X1847697Y1697407D02*
G03Y1697394I500J1D01*
G01X1757406Y1694488D02*
G03X1757406I-9375J0D01*
G01Y1505512D02*
G03X1757406I-9375J0D01*
G01X1846630Y1505281D02*
G03X1846630I-4256J0D01*
G01X1847967Y1537828D02*
G03X1847967I-4500J0D01*
G01X1850238Y1599453D02*
G03X1850238I-4256J0D01*
G01X1850278Y1652344D02*
G03X1850278I-4256J0D01*
G01X1886388Y1504833D02*
G03X1886388I-4256J0D01*
G01X1883150Y1563366D02*
G03X1883150I-4250J0D01*
G01X1883393Y1573957D02*
G03X1883393I-4250J0D01*
G01X1867652Y1540828D02*
Y1534828D01*
X1866152Y1533328D02*
G03X1867652Y1534828I0J1500D01*
G01X1866152Y1533328D02*
X1865778D01*
X1865778D02*
G03X1865278Y1532828I0J-500D01*
G01X1865278D02*
Y1507974D01*
X1865278D02*
G03X1865505Y1507556I500J0D01*
G01X1860852D02*
G03X1865505I2326J-3564D01*
G01X1860852D02*
G03X1861078Y1507974I-274J418D01*
G01Y1532828*
G03X1860578Y1533328I-500J0*
G01X1860152*
X1858652Y1534828D02*
G03X1860152Y1533328I1500J0D01*
G01X1858652Y1534828D02*
Y1540828D01*
X1860152Y1542328D02*
G03X1858652Y1540828I0J-1500D01*
G01X1860152Y1542328D02*
X1866152D01*
X1867652Y1540828D02*
G03X1866152Y1542328I-1500J0D01*
G01X1867094Y1590134D02*
G03X1867094I-4250J0D01*
G01X1869218Y1628108D02*
G03X1869218I-4250J0D01*
G01X1909227Y1539642D02*
G03X1909227I-4250J0D01*
G01X1922464D02*
G03X1922464I-4250J0D01*
G01X1952335Y1528156D02*
Y1522156D01*
X1950835Y1520656D02*
G03X1952335Y1522156I-0J1500D01*
G01X1950835Y1520656D02*
X1944835D01*
X1943335Y1522156D02*
G03X1944835Y1520656I1500J0D01*
G01X1943335Y1522156D02*
Y1528156D01*
X1944835Y1529656D02*
G03X1943335Y1528156I-0J-1500D01*
G01X1944835Y1529656D02*
X1950835D01*
X1952335Y1528156D02*
G03X1950835Y1529656I-1500J0D01*
G01X1952335Y1575156D02*
G03X1952335I-4500J0D01*
G01X1948201Y1599654D02*
G03X1948201I-4256J0D01*
G01X1937706Y1564386D02*
G03X1937706I-4250J0D01*
G01X1937632Y1573957D02*
G03X1937632I-4250J0D01*
G01X2062736Y1686725D02*
X2149472D01*
X2143504Y1687625D02*
X2149210D01*
X2061836Y1685825D02*
X2148572D01*
X2144661Y1688525D02*
X2148053D01*
X2061741Y1684925D02*
X2147665D01*
X2145246Y1693925D02*
X2147468D01*
X2145307Y1689425D02*
X2147406D01*
X2145619Y1693025D02*
X2147095D01*
X2145678Y1690325D02*
X2147035D01*
X2145824Y1692125D02*
X2146890D01*
X2145843Y1691225D02*
X2146871D01*
X2133504Y1687625D02*
X2139210D01*
X2134661Y1688525D02*
X2138053D01*
X2135246Y1693925D02*
X2137468D01*
X2135307Y1689425D02*
X2137406D01*
X2135619Y1693025D02*
X2137095D01*
X2135678Y1690325D02*
X2137035D01*
X2135824Y1692125D02*
X2136890D01*
X2135843Y1691225D02*
X2136871D01*
X2123504Y1687625D02*
X2129210D01*
X2124661Y1688525D02*
X2128053D01*
X2125246Y1693925D02*
X2127468D01*
X2125307Y1689425D02*
X2127406D01*
X2125619Y1693025D02*
X2127095D01*
X2125678Y1690325D02*
X2127035D01*
X2125824Y1692125D02*
X2126890D01*
X2125843Y1691225D02*
X2126871D01*
X2113504Y1687625D02*
X2119210D01*
X2114661Y1688525D02*
X2118053D01*
X2115246Y1693925D02*
X2117468D01*
X2115307Y1689425D02*
X2117406D01*
X2115619Y1693025D02*
X2117095D01*
X2115678Y1690325D02*
X2117035D01*
X2115824Y1692125D02*
X2116890D01*
X2115843Y1691225D02*
X2116871D01*
X2063636Y1687625D02*
X2109210D01*
X2064536Y1688525D02*
X2108053D01*
X2069936Y1693925D02*
X2107468D01*
X2065436Y1689425D02*
X2107406D01*
X2069036Y1693025D02*
X2107095D01*
X2066336Y1690325D02*
X2107035D01*
X2068136Y1692125D02*
X2106890D01*
X2067236Y1691225D02*
X2106871D01*
X2100937Y1644425D02*
X2392201D01*
X2100889Y1643525D02*
X2392201D01*
X2100641Y1642625D02*
X2392201D01*
X2100150Y1641725D02*
X2392201D01*
X2099281Y1640825D02*
X2392201D01*
X2040736Y1639925D02*
X2392201D01*
X2040595Y1639025D02*
X2392201D01*
X2040239Y1638125D02*
X2392201D01*
X2039594Y1637225D02*
X2392201D01*
X2038385Y1636325D02*
X2392201D01*
X2023215Y1635425D02*
X2392201D01*
X2022315Y1634525D02*
X2392201D01*
X2021415Y1633625D02*
X2392201D01*
X2020515Y1632725D02*
X2392201D01*
X2019615Y1631825D02*
X2392201D01*
X2018715Y1630925D02*
X2392201D01*
X2017815Y1630025D02*
X2392201D01*
X2016915Y1629125D02*
X2392201D01*
X2016015Y1628225D02*
X2392201D01*
X2015115Y1627325D02*
X2392201D01*
X2014215Y1626425D02*
X2392201D01*
X2013315Y1625525D02*
X2392201D01*
X2012415Y1624625D02*
X2392201D01*
X2011515Y1623725D02*
X2392201D01*
X2010615Y1622825D02*
X2392201D01*
X2009699Y1621925D02*
X2392201D01*
X1978638Y1621025D02*
X2392201D01*
X1999398Y1620125D02*
X2392201D01*
X2000747Y1619225D02*
X2392201D01*
X2001440Y1618325D02*
X2392201D01*
X2001828Y1617425D02*
X2392201D01*
X2001995Y1616525D02*
X2392201D01*
X2001968Y1615625D02*
X2392201D01*
X2237436Y1614725D02*
X2392201D01*
X2239412Y1613825D02*
X2392201D01*
X2240658Y1612925D02*
X2392201D01*
X2241574Y1612025D02*
X2392201D01*
X2242280Y1611125D02*
X2392201D01*
X2242829Y1610225D02*
X2392201D01*
X2243251Y1609325D02*
X2392201D01*
X2243564Y1608425D02*
X2392201D01*
X2243779Y1607525D02*
X2392201D01*
X2243902Y1606625D02*
X2392201D01*
X2243938Y1605725D02*
X2392201D01*
X2243887Y1604825D02*
X2392201D01*
X2243749Y1603925D02*
X2392201D01*
X2243518Y1603025D02*
X2392201D01*
X2243187Y1602125D02*
X2392201D01*
X2242745Y1601225D02*
X2392201D01*
X2242172Y1600325D02*
X2392201D01*
X2241435Y1599425D02*
X2392201D01*
X2240474Y1598525D02*
X2392201D01*
X2239149Y1597625D02*
X2392201D01*
X2236907Y1596725D02*
X2392201D01*
X1988759Y1595825D02*
X2392201D01*
X1988858Y1594925D02*
X2392201D01*
X1988776Y1594025D02*
X2392201D01*
X2026327Y1593125D02*
X2392201D01*
X2027470Y1592225D02*
X2392201D01*
X2028089Y1591325D02*
X2392201D01*
X2028428Y1590425D02*
X2392201D01*
X2028555Y1589525D02*
X2392201D01*
X2028489Y1588625D02*
X2392201D01*
X2028219Y1587725D02*
X2392201D01*
X2027699Y1586825D02*
X2392201D01*
X2026774Y1585925D02*
X2392201D01*
X1823273Y1585025D02*
X2392201D01*
X1823273Y1584125D02*
X2392201D01*
X1823273Y1583225D02*
X2392201D01*
X1823273Y1582325D02*
X2392201D01*
X2038385Y1581425D02*
X2392201D01*
X2039984Y1580525D02*
X2392201D01*
X2040744Y1579625D02*
X2392201D01*
X2041174Y1578725D02*
X2392201D01*
X2100791Y1645325D02*
X2392194D01*
X2041374Y1577825D02*
X2342125D01*
X2041377Y1576925D02*
X2341123D01*
X2041185Y1576025D02*
X2341020D01*
X2040765Y1575125D02*
X2341020D01*
X2040020Y1574225D02*
X2341020D01*
X2038488Y1573325D02*
X2341020D01*
X1988858Y1572425D02*
X2341020D01*
X1988699Y1571525D02*
X2341020D01*
X1936021Y1570625D02*
X2341020D01*
X1933778Y1569725D02*
X2341020D01*
X1823273Y1568825D02*
X2341020D01*
X1935809Y1567925D02*
X2341020D01*
X1936787Y1567025D02*
X2341020D01*
X1937334Y1566125D02*
X2341020D01*
X1937623Y1565225D02*
X2341020D01*
X1937706Y1564325D02*
X2341020D01*
X1937596Y1563425D02*
X2341020D01*
X1937277Y1562525D02*
X2341020D01*
X1936688Y1561625D02*
X2341020D01*
X1986140Y1560725D02*
X2341020D01*
X1987418Y1559825D02*
X2341020D01*
X1988111Y1558925D02*
X2341020D01*
X1988512Y1558025D02*
X2341020D01*
X1988702Y1557125D02*
X2341020D01*
X1988707Y1556225D02*
X2341020D01*
X1988527Y1555325D02*
X2341020D01*
X1988137Y1554425D02*
X2341020D01*
X1987463Y1553525D02*
X2341020D01*
X1986235Y1552625D02*
X2341020D01*
X1823273Y1551725D02*
X2341020D01*
X1823273Y1550825D02*
X2341020D01*
X1823273Y1549925D02*
X2341020D01*
X1823273Y1549025D02*
X2341020D01*
X1823273Y1548125D02*
X2341020D01*
X2140674Y1547225D02*
X2341020D01*
X2141600Y1546325D02*
X2341020D01*
X2142122Y1545425D02*
X2341020D01*
X2142392Y1544525D02*
X2341020D01*
X2142460Y1543625D02*
X2341020D01*
X2142335Y1542725D02*
X2341020D01*
X2141998Y1541825D02*
X2341020D01*
X2141382Y1540925D02*
X2341020D01*
X2140250Y1540025D02*
X2341020D01*
X1922433Y1539125D02*
X2341020D01*
X1922221Y1538225D02*
X2341020D01*
X1921777Y1537325D02*
X2341020D01*
X1920992Y1536425D02*
X2341020D01*
X1919271Y1535525D02*
X2341020D01*
X1867638Y1534625D02*
X2341020D01*
X1867169Y1533725D02*
X2341020D01*
X1865278Y1532825D02*
X2341020D01*
X1865278Y1531925D02*
X2341020D01*
X1865278Y1531025D02*
X2341020D01*
X1865278Y1530125D02*
X2341020D01*
X1986149Y1529225D02*
X2341020D01*
X1987422Y1528325D02*
X2341020D01*
X1988113Y1527425D02*
X2341020D01*
X1988514Y1526525D02*
X2341020D01*
X1988703Y1525625D02*
X2341020D01*
X1988706Y1524725D02*
X2341020D01*
X1988526Y1523825D02*
X2341020D01*
X1988135Y1522925D02*
X2341020D01*
X1987459Y1522025D02*
X2341020D01*
X1986227Y1521125D02*
X2341020D01*
X1865278Y1520225D02*
X2341020D01*
X1865278Y1519325D02*
X2341020D01*
X1865278Y1518425D02*
X2341020D01*
X1865278Y1517525D02*
X2341020D01*
X1865278Y1516625D02*
X2341020D01*
X1865278Y1515725D02*
X2341020D01*
X1865278Y1514825D02*
X2341020D01*
X1865278Y1513925D02*
X2341020D01*
X1865278Y1513025D02*
X2341020D01*
X1865278Y1512125D02*
X2341020D01*
X1865278Y1511225D02*
X2341020D01*
X2203773Y1510325D02*
X2341020D01*
X2204947Y1509425D02*
X2341020D01*
X2205600Y1508525D02*
X2341020D01*
X2205975Y1507625D02*
X2341020D01*
X2206143Y1506725D02*
X2341020D01*
X2206128Y1505825D02*
X2341020D01*
X2205926Y1504925D02*
X2341020D01*
X2205510Y1504025D02*
X2341020D01*
X2204794Y1503125D02*
X2341020D01*
X2203451Y1502225D02*
X2341020D01*
X1884542Y1501325D02*
X2341020D01*
X1865500Y1500425D02*
X2341020D01*
X1755245Y1499525D02*
X2341020D01*
X1754391Y1498625D02*
X2341020D01*
X1753251Y1497725D02*
X2341020D01*
X1751555Y1496825D02*
X2341020D01*
X1678924Y1495925D02*
X2341020D01*
X1678924Y1495025D02*
X2341020D01*
X1678924Y1494125D02*
X2341020D01*
X1678924Y1493225D02*
X2341020D01*
X1678924Y1492325D02*
X2341020D01*
X1678924Y1491425D02*
X2341020D01*
X1678924Y1490525D02*
X2341020D01*
X1678924Y1489625D02*
X2341020D01*
X1678924Y1488725D02*
X2341020D01*
X1678924Y1487825D02*
X2341020D01*
X1678924Y1486925D02*
X2341020D01*
X1678924Y1486025D02*
X2341020D01*
X1678924Y1485125D02*
X2341020D01*
X1678924Y1484225D02*
X2341020D01*
X2100429Y1646225D02*
X2246931D01*
X2099777Y1647125D02*
X2246536D01*
X1679276Y1715525D02*
X2246531D01*
X1679276Y1714625D02*
X2246531D01*
X1679276Y1713725D02*
X2246531D01*
X1679276Y1712825D02*
X2246531D01*
X1679276Y1711925D02*
X2246531D01*
X1895854Y1711025D02*
X2246531D01*
X1896773Y1710125D02*
X2246531D01*
X1897307Y1709225D02*
X2246531D01*
X1897599Y1708325D02*
X2246531D01*
X1897697Y1707425D02*
X2246531D01*
X1897612Y1706525D02*
X2246531D01*
X2233329Y1705625D02*
X2246531D01*
X2234575Y1704725D02*
X2246531D01*
X2235257Y1703825D02*
X2246531D01*
X2235651Y1702925D02*
X2246531D01*
X2235835Y1702025D02*
X2246531D01*
X2235834Y1701125D02*
X2246531D01*
X2235648Y1700225D02*
X2246531D01*
X2235251Y1699325D02*
X2246531D01*
X2234566Y1698425D02*
X2246531D01*
X2233308Y1697525D02*
X2246531D01*
X2227657Y1696625D02*
X2246531D01*
X2233109Y1695725D02*
X2246531D01*
X2234475Y1694825D02*
X2246531D01*
X2235198Y1693925D02*
X2246531D01*
X2235619Y1693025D02*
X2246531D01*
X2235824Y1692125D02*
X2246531D01*
X2235843Y1691225D02*
X2246531D01*
X2235678Y1690325D02*
X2246531D01*
X2235307Y1689425D02*
X2246531D01*
X2234661Y1688525D02*
X2246531D01*
X2233504Y1687625D02*
X2246531D01*
X2225412Y1686725D02*
X2246531D01*
X2224512Y1685825D02*
X2246531D01*
X2223612Y1684925D02*
X2246531D01*
X2222712Y1684025D02*
X2246531D01*
X2221812Y1683125D02*
X2246531D01*
X2220912Y1682225D02*
X2246531D01*
X2220012Y1681325D02*
X2246531D01*
X2219112Y1680425D02*
X2246531D01*
X2218212Y1679525D02*
X2246531D01*
X2217312Y1678625D02*
X2246531D01*
X2216412Y1677725D02*
X2246531D01*
X2215512Y1676825D02*
X2246531D01*
X2214612Y1675925D02*
X2246531D01*
X2213712Y1675025D02*
X2246531D01*
X2212812Y1674125D02*
X2246531D01*
X2211912Y1673225D02*
X2246531D01*
X2211012Y1672325D02*
X2246531D01*
X2210112Y1671425D02*
X2246531D01*
X2209212Y1670525D02*
X2246531D01*
X2208312Y1669625D02*
X2246531D01*
X2207412Y1668725D02*
X2246531D01*
X2206379Y1667825D02*
X2246531D01*
X2054715Y1666925D02*
X2246531D01*
X2053815Y1666025D02*
X2246531D01*
X2052915Y1665125D02*
X2246531D01*
X2052015Y1664225D02*
X2246531D01*
X2051115Y1663325D02*
X2246531D01*
X2050215Y1662425D02*
X2246531D01*
X2049315Y1661525D02*
X2246531D01*
X2048415Y1660625D02*
X2246531D01*
X2047515Y1659725D02*
X2246531D01*
X2046615Y1658825D02*
X2246531D01*
X2045715Y1657925D02*
X2246531D01*
X2044815Y1657025D02*
X2246531D01*
X2043915Y1656125D02*
X2246531D01*
X2043015Y1655225D02*
X2246531D01*
X2042115Y1654325D02*
X2246531D01*
X2041215Y1653425D02*
X2246531D01*
X2040315Y1652525D02*
X2246531D01*
X2039415Y1651625D02*
X2246531D01*
X2038515Y1650725D02*
X2246531D01*
X2037615Y1649825D02*
X2246531D01*
X2036715Y1648925D02*
X2246531D01*
X2098551Y1648025D02*
X2246531D01*
X1679387Y1716425D02*
X2246420D01*
X2087234Y1596725D02*
X2232222D01*
X2087763Y1614725D02*
X2231693D01*
X2089475Y1597625D02*
X2229980D01*
X2089739Y1613825D02*
X2229717D01*
X2227657Y1695725D02*
X2229605D01*
X2227652Y1697525D02*
X2229405D01*
X2223329Y1705625D02*
X2229385D01*
X2226312Y1687625D02*
X2229210D01*
X2090801Y1598525D02*
X2228655D01*
X2090985Y1612925D02*
X2228471D01*
X2224575Y1704725D02*
X2228139D01*
X2227194Y1688525D02*
X2228053D01*
X2091762Y1599425D02*
X2227693D01*
X2091901Y1612025D02*
X2227554D01*
X2225257Y1703825D02*
X2227457D01*
X2225746Y1700225D02*
X2227066D01*
X2225651Y1702925D02*
X2227063D01*
X2092499Y1600325D02*
X2226956D01*
X2225834Y1701125D02*
X2226880D01*
X2225835Y1702025D02*
X2226879D01*
X2092607Y1611125D02*
X2226848D01*
X2093072Y1601225D02*
X2226383D01*
X2093156Y1610225D02*
X2226300D01*
X2093514Y1602125D02*
X2225941D01*
X2093578Y1609325D02*
X2225878D01*
X2093844Y1603025D02*
X2225611D01*
X2093891Y1608425D02*
X2225565D01*
X2094075Y1603925D02*
X2225380D01*
X2094105Y1607525D02*
X2225350D01*
X2094214Y1604825D02*
X2225241D01*
X2094229Y1606625D02*
X2225226D01*
X2094265Y1605725D02*
X2225191D01*
X2209325Y1696625D02*
X2223335D01*
X2213109Y1695725D02*
X2219605D01*
X2213308Y1697525D02*
X2219405D01*
X2213329Y1705625D02*
X2219385D01*
X2214475Y1694825D02*
X2218239D01*
X2214566Y1698425D02*
X2218148D01*
X2214575Y1704725D02*
X2218139D01*
X2215198Y1693925D02*
X2217516D01*
X2215251Y1699325D02*
X2217463D01*
X2215257Y1703825D02*
X2217457D01*
X2215619Y1693025D02*
X2217095D01*
X2215648Y1700225D02*
X2217066D01*
X2215651Y1702925D02*
X2217063D01*
X2215678Y1690325D02*
X2216993D01*
X2215824Y1692125D02*
X2216890D01*
X2215834Y1701125D02*
X2216880D01*
X2215835Y1702025D02*
X2216879D01*
X2215843Y1691225D02*
X2216871D01*
X2203329Y1705625D02*
X2209385D01*
X2204575Y1704725D02*
X2208139D01*
X2204701Y1698425D02*
X2208033D01*
X2205251Y1699325D02*
X2207463D01*
X2205257Y1703825D02*
X2207457D01*
X2205648Y1700225D02*
X2207066D01*
X2205651Y1702925D02*
X2207063D01*
X2205834Y1701125D02*
X2206880D01*
X2205835Y1702025D02*
X2206879D01*
X2193451Y1502225D02*
X2199867D01*
X2193773Y1510325D02*
X2199544D01*
X2193329Y1705625D02*
X2199385D01*
X2194794Y1503125D02*
X2198523D01*
X2194947Y1509425D02*
X2198371D01*
X2194575Y1704725D02*
X2198139D01*
X2194701Y1698425D02*
X2198012D01*
X2195510Y1504025D02*
X2197808D01*
X2195600Y1508525D02*
X2197718D01*
X2195251Y1699325D02*
X2197463D01*
X2195257Y1703825D02*
X2197457D01*
X2195926Y1504925D02*
X2197391D01*
X2195975Y1507625D02*
X2197342D01*
X2196128Y1505825D02*
X2197190D01*
X2196143Y1506725D02*
X2197174D01*
X2195648Y1700225D02*
X2197066D01*
X2195651Y1702925D02*
X2197063D01*
X2195834Y1701125D02*
X2196880D01*
X2195835Y1702025D02*
X2196879D01*
X2164485Y1502225D02*
X2189867D01*
X2164808Y1510325D02*
X2189544D01*
X2183329Y1705625D02*
X2189385D01*
X2165828Y1503125D02*
X2188523D01*
X2165981Y1509425D02*
X2188371D01*
X2184575Y1704725D02*
X2188139D01*
X2184701Y1698425D02*
X2188012D01*
X2166544Y1504025D02*
X2187808D01*
X2166634Y1508525D02*
X2187718D01*
X2185251Y1699325D02*
X2187463D01*
X2185257Y1703825D02*
X2187457D01*
X2166960Y1504925D02*
X2187391D01*
X2167009Y1507625D02*
X2187342D01*
X2167162Y1505825D02*
X2187190D01*
X2167178Y1506725D02*
X2187174D01*
X2185648Y1700225D02*
X2187066D01*
X2185651Y1702925D02*
X2187063D01*
X2185834Y1701125D02*
X2186880D01*
X2185835Y1702025D02*
X2186879D01*
X2173329Y1705625D02*
X2179385D01*
X2174575Y1704725D02*
X2178139D01*
X2174701Y1698425D02*
X2178012D01*
X2175251Y1699325D02*
X2177463D01*
X2175257Y1703825D02*
X2177457D01*
X2175648Y1700225D02*
X2177066D01*
X2175651Y1702925D02*
X2177063D01*
X2175834Y1701125D02*
X2176880D01*
X2175835Y1702025D02*
X2176879D01*
X2163329Y1705625D02*
X2169385D01*
X2164575Y1704725D02*
X2168139D01*
X2164701Y1698425D02*
X2168012D01*
X2165251Y1699325D02*
X2167463D01*
X2165257Y1703825D02*
X2167457D01*
X2165648Y1700225D02*
X2167066D01*
X2165651Y1702925D02*
X2167063D01*
X2165834Y1701125D02*
X2166880D01*
X2165835Y1702025D02*
X2166879D01*
X2154485Y1502225D02*
X2160901D01*
X2154808Y1510325D02*
X2160578D01*
X2155828Y1503125D02*
X2159557D01*
X2155981Y1509425D02*
X2159405D01*
X2153329Y1705625D02*
X2159385D01*
X2156544Y1504025D02*
X2158842D01*
X2156634Y1508525D02*
X2158752D01*
X2156960Y1504925D02*
X2158425D01*
X2157009Y1507625D02*
X2158376D01*
X2157162Y1505825D02*
X2158224D01*
X2157178Y1506725D02*
X2158208D01*
X2154575Y1704725D02*
X2158139D01*
X2155257Y1703825D02*
X2157457D01*
X2155651Y1702925D02*
X2157063D01*
X2155648Y1700225D02*
X2156967D01*
X2155834Y1701125D02*
X2156880D01*
X2155835Y1702025D02*
X2156879D01*
X1885495Y1502225D02*
X2150901D01*
X1865278Y1510325D02*
X2150578D01*
X1886030Y1503125D02*
X2149557D01*
X1865278Y1509425D02*
X2149405D01*
X2143329Y1705625D02*
X2149385D01*
X1886310Y1504025D02*
X2148842D01*
X1884249Y1508525D02*
X2148752D01*
X1886387Y1504925D02*
X2148425D01*
X1885344Y1507625D02*
X2148376D01*
X1886271Y1505825D02*
X2148224D01*
X1885944Y1506725D02*
X2148208D01*
X2144575Y1704725D02*
X2148139D01*
X2145257Y1703825D02*
X2147457D01*
X2145265Y1699325D02*
X2147449D01*
X2145648Y1700225D02*
X2147066D01*
X2145651Y1702925D02*
X2147063D01*
X2145834Y1701125D02*
X2146880D01*
X2145835Y1702025D02*
X2146879D01*
X2133329Y1705625D02*
X2139385D01*
X2134575Y1704725D02*
X2138139D01*
X2135257Y1703825D02*
X2137457D01*
X2135265Y1699325D02*
X2137449D01*
X2135648Y1700225D02*
X2137066D01*
X2135651Y1702925D02*
X2137063D01*
X2135834Y1701125D02*
X2136880D01*
X2135835Y1702025D02*
X2136879D01*
X2130250Y1540025D02*
X2136161D01*
X2130674Y1547225D02*
X2135738D01*
X2131382Y1540925D02*
X2135030D01*
X2131600Y1546325D02*
X2134811D01*
X2131998Y1541825D02*
X2134414D01*
X2132122Y1545425D02*
X2134290D01*
X2132335Y1542725D02*
X2134077D01*
X2132392Y1544525D02*
X2134020D01*
X2132460Y1543625D02*
X2133952D01*
X2123329Y1705625D02*
X2129385D01*
X2124575Y1704725D02*
X2128139D01*
X2125257Y1703825D02*
X2127457D01*
X2125265Y1699325D02*
X2127449D01*
X2125648Y1700225D02*
X2127066D01*
X2125651Y1702925D02*
X2127063D01*
X2125834Y1701125D02*
X2126880D01*
X2125835Y1702025D02*
X2126879D01*
X2120250Y1540025D02*
X2126161D01*
X2120674Y1547225D02*
X2125738D01*
X2121382Y1540925D02*
X2125030D01*
X2121600Y1546325D02*
X2124811D01*
X2121998Y1541825D02*
X2124414D01*
X2122122Y1545425D02*
X2124290D01*
X2122335Y1542725D02*
X2124077D01*
X2122392Y1544525D02*
X2124020D01*
X2122460Y1543625D02*
X2123952D01*
X2115433Y1705625D02*
X2119385D01*
X2110250Y1540025D02*
X2116161D01*
X2110674Y1547225D02*
X2115738D01*
X2111382Y1540925D02*
X2115030D01*
X2111600Y1546325D02*
X2114811D01*
X2111998Y1541825D02*
X2114414D01*
X2112122Y1545425D02*
X2114290D01*
X2112335Y1542725D02*
X2114077D01*
X2112392Y1544525D02*
X2114020D01*
X2112460Y1543625D02*
X2113952D01*
X1897335Y1705625D02*
X2107281D01*
X1896820Y1704725D02*
X2106864D01*
X1895938Y1703825D02*
X2106857D01*
X1893729Y1702925D02*
X2106857D01*
X1833273Y1702025D02*
X2106857D01*
X1895712Y1701125D02*
X2106857D01*
X1896694Y1700225D02*
X2106857D01*
X1943557Y1699325D02*
X2106857D01*
X1922447Y1540025D02*
X2106161D01*
X1823273Y1547225D02*
X2105738D01*
X1922266Y1540925D02*
X2105030D01*
X1823273Y1546325D02*
X2104811D01*
X1921860Y1541825D02*
X2104414D01*
X1823273Y1545425D02*
X2104290D01*
X1921139Y1542725D02*
X2104077D01*
X1823273Y1544525D02*
X2104020D01*
X1919696Y1543625D02*
X2103952D01*
X2035815Y1648025D02*
X2094823D01*
X2040684Y1640825D02*
X2094093D01*
X2034915Y1647125D02*
X2093596D01*
X2040430Y1641725D02*
X2093224D01*
X2034015Y1646225D02*
X2092944D01*
X2039931Y1642625D02*
X2092732D01*
X2033115Y1645325D02*
X2092582D01*
X2039047Y1643525D02*
X2092484D01*
X2032215Y1644425D02*
X2092437D01*
X2000968Y1596725D02*
X2082549D01*
X2001741Y1614725D02*
X2082019D01*
X2002161Y1597625D02*
X2080307D01*
X2001279Y1613825D02*
X2080044D01*
X2002800Y1598525D02*
X2078982D01*
X2000460Y1612925D02*
X2078798D01*
X2003152Y1599425D02*
X2078020D01*
X1998528Y1612025D02*
X2077881D01*
X2003290Y1600325D02*
X2077283D01*
X1823273Y1611125D02*
X2077175D01*
X2003234Y1601225D02*
X2076710D01*
X1823273Y1610225D02*
X2076626D01*
X2002977Y1602125D02*
X2076268D01*
X1823273Y1609325D02*
X2076204D01*
X2002474Y1603025D02*
X2075938D01*
X1823273Y1608425D02*
X2075892D01*
X2001580Y1603925D02*
X2075707D01*
X1823273Y1607525D02*
X2075677D01*
X1823273Y1604825D02*
X2075568D01*
X1823273Y1606625D02*
X2075553D01*
X1823273Y1605725D02*
X2075517D01*
X1944650Y1698425D02*
X2068618D01*
X1945249Y1697525D02*
X2067596D01*
X1945574Y1696625D02*
X2066696D01*
X1945690Y1695725D02*
X2065796D01*
X1945613Y1694825D02*
X2064896D01*
X1945332Y1693925D02*
X2063996D01*
X1944796Y1693025D02*
X2063096D01*
X1943841Y1692125D02*
X2062196D01*
X1933535Y1691225D02*
X2061296D01*
X1933535Y1690325D02*
X2060396D01*
X1933535Y1689425D02*
X2059496D01*
X1933535Y1688525D02*
X2058596D01*
X1933535Y1687625D02*
X2057696D01*
X1933535Y1686725D02*
X2056796D01*
X1933535Y1685825D02*
X2055896D01*
X1933517Y1684925D02*
X2054996D01*
X1933176Y1684025D02*
X2054096D01*
X1932330Y1683125D02*
X2053196D01*
X1931430Y1682225D02*
X2052296D01*
X1930530Y1681325D02*
X2051396D01*
X1929800Y1680425D02*
X2050496D01*
X1929798Y1679525D02*
X2049596D01*
X1929798Y1678625D02*
X2048696D01*
X1929798Y1677725D02*
X2047796D01*
X1929798Y1676825D02*
X2046896D01*
X1929798Y1675925D02*
X2045996D01*
X1929798Y1675025D02*
X2045096D01*
X1929798Y1674125D02*
X2044196D01*
X1929798Y1673225D02*
X2043296D01*
X1929798Y1672325D02*
X2042396D01*
X1929798Y1671425D02*
X2041496D01*
X1929798Y1670525D02*
X2040596D01*
X1929798Y1669625D02*
X2039696D01*
X1929798Y1668725D02*
X2038796D01*
X1929798Y1667825D02*
X2037896D01*
X1929798Y1666925D02*
X2036996D01*
X1929798Y1666025D02*
X2036096D01*
X1823273Y1581425D02*
X2035914D01*
X1988858Y1573325D02*
X2035810D01*
X1929798Y1665125D02*
X2035196D01*
X2024115Y1636325D02*
X2034597D01*
X1823273Y1580525D02*
X2034314D01*
X1929798Y1664225D02*
X2034296D01*
X1988858Y1574225D02*
X2034278D01*
X2031315Y1643525D02*
X2033935D01*
X1987820Y1579625D02*
X2033554D01*
X1988858Y1575125D02*
X2033533D01*
X1929798Y1663325D02*
X2033396D01*
X2025015Y1637225D02*
X2033389D01*
X1988763Y1578725D02*
X2033125D01*
X1988858Y1576025D02*
X2033114D01*
X2030415Y1642625D02*
X2033051D01*
X1988858Y1577825D02*
X2032925D01*
X1988858Y1576925D02*
X2032921D01*
X2025915Y1638125D02*
X2032744D01*
X2029515Y1641725D02*
X2032552D01*
X1959864Y1662425D02*
X2032496D01*
X2026815Y1639025D02*
X2032387D01*
X2028615Y1640825D02*
X2032298D01*
X2027715Y1639925D02*
X2032246D01*
X1961318Y1661525D02*
X2031596D01*
X1962063Y1660625D02*
X2030696D01*
X1962495Y1659725D02*
X2029796D01*
X1962707Y1658825D02*
X2028896D01*
X1962731Y1657925D02*
X2027996D01*
X1962569Y1657025D02*
X2027096D01*
X1962198Y1656125D02*
X2026196D01*
X1961549Y1655225D02*
X2025296D01*
X1960376Y1654325D02*
X2024396D01*
X1956426Y1653425D02*
X2023496D01*
X1978281Y1652525D02*
X2022596D01*
X2013298Y1593125D02*
X2022287D01*
X2014007Y1585925D02*
X2021840D01*
X1979182Y1651625D02*
X2021696D01*
X2014522Y1592225D02*
X2021145D01*
X2014883Y1586825D02*
X2020915D01*
X1979689Y1650725D02*
X2020796D01*
X2015172Y1591325D02*
X2020526D01*
X2015377Y1587725D02*
X2020395D01*
X2015532Y1590425D02*
X2020186D01*
X2015627Y1588625D02*
X2020126D01*
X2015677Y1589525D02*
X2020059D01*
X1979949Y1649825D02*
X2019896D01*
X1980008Y1648925D02*
X2018996D01*
X1979872Y1648025D02*
X2018096D01*
X1979523Y1647125D02*
X2017196D01*
X1978889Y1646225D02*
X2016296D01*
X1977709Y1645325D02*
X2015396D01*
X1955882Y1644425D02*
X2014496D01*
X1956782Y1643525D02*
X2013596D01*
X1960941Y1642625D02*
X2012696D01*
X1961848Y1641725D02*
X2011796D01*
X1962373Y1640825D02*
X2010896D01*
X1962656Y1639925D02*
X2009996D01*
X1988501Y1593125D02*
X2009566D01*
X1962743Y1639025D02*
X2009096D01*
X1863436Y1585925D02*
X2008858D01*
X1987989Y1592225D02*
X2008343D01*
X1962647Y1638125D02*
X2008196D01*
X1865512Y1586825D02*
X2007982D01*
X1987113Y1591325D02*
X2007692D01*
X1866346Y1587725D02*
X2007487D01*
X1984972Y1590425D02*
X2007332D01*
X1962354Y1637225D02*
X2007296D01*
X1866817Y1588625D02*
X2007237D01*
X1867050Y1589525D02*
X2007188D01*
X1961815Y1636325D02*
X2006396D01*
X1961550Y1635425D02*
X2005496D01*
X1988464Y1596725D02*
X1997120D01*
X1823273Y1612025D02*
X1996987D01*
X1823273Y1603925D02*
X1996508D01*
X1979300Y1620125D02*
X1996116D01*
X1987926Y1597625D02*
X1995928D01*
X1946542Y1603025D02*
X1995615D01*
X1987001Y1598525D02*
X1995289D01*
X1947410Y1602125D02*
X1995111D01*
X1823273Y1612925D02*
X1995054D01*
X1948195Y1599425D02*
X1994936D01*
X1947900Y1601225D02*
X1994854D01*
X1948147Y1600325D02*
X1994798D01*
X1979942Y1619225D02*
X1994767D01*
X1978748Y1613825D02*
X1994236D01*
X1980297Y1618325D02*
X1994074D01*
X1979631Y1614725D02*
X1993773D01*
X1980437Y1617425D02*
X1993686D01*
X1980130Y1615625D02*
X1993547D01*
X1980384Y1616525D02*
X1993519D01*
X1867084Y1590425D02*
X1983745D01*
X1935616Y1560725D02*
X1982314D01*
X1951887Y1529225D02*
X1982305D01*
X1951924Y1521125D02*
X1982227D01*
X1823273Y1552625D02*
X1982219D01*
X1948048Y1598525D02*
X1981715D01*
X1866924Y1591325D02*
X1981603D01*
X1881251Y1559825D02*
X1981036D01*
X1952325Y1528325D02*
X1981032D01*
X1952329Y1522025D02*
X1980995D01*
X1823273Y1553525D02*
X1980991D01*
X1948362Y1579625D02*
X1980896D01*
X1947686Y1597625D02*
X1980790D01*
X1866544Y1592225D02*
X1980727D01*
X1823273Y1558925D02*
X1980343D01*
X1952335Y1527425D02*
X1980341D01*
X1952335Y1522925D02*
X1980319D01*
X1823273Y1554425D02*
X1980317D01*
X1947033Y1596725D02*
X1980253D01*
X1865863Y1593125D02*
X1980216D01*
X1950493Y1571525D02*
X1980018D01*
X1945804Y1595825D02*
X1979958D01*
X1950575Y1578725D02*
X1979954D01*
X1823273Y1558025D02*
X1979942D01*
X1864553Y1594025D02*
X1979941D01*
X1952335Y1526525D02*
X1979940D01*
X1952335Y1523825D02*
X1979928D01*
X1823273Y1555325D02*
X1979927D01*
X1823273Y1594925D02*
X1979858D01*
X1951458Y1577825D02*
X1979858D01*
X1951972Y1576925D02*
X1979858D01*
X1952250Y1576025D02*
X1979858D01*
X1952335Y1575125D02*
X1979858D01*
X1952237Y1574225D02*
X1979858D01*
X1951945Y1573325D02*
X1979858D01*
X1951411Y1572425D02*
X1979858D01*
X1823273Y1557125D02*
X1979752D01*
X1952335Y1525625D02*
X1979752D01*
X1952335Y1524725D02*
X1979748D01*
X1823273Y1556225D02*
X1979747D01*
X1954982Y1645325D02*
X1973814D01*
X1918554Y1621025D02*
X1973734D01*
X1916182Y1613825D02*
X1973624D01*
X1955526Y1652525D02*
X1973241D01*
X1919156Y1620125D02*
X1973073D01*
X1918158Y1614725D02*
X1972741D01*
X1954082Y1646225D02*
X1972634D01*
X1919541Y1619225D02*
X1972430D01*
X1954626Y1651625D02*
X1972341D01*
X1918982Y1615625D02*
X1972242D01*
X1919706Y1618325D02*
X1972075D01*
X1953182Y1647125D02*
X1971999D01*
X1919448Y1616525D02*
X1971988D01*
X1919676Y1617425D02*
X1971935D01*
X1953726Y1650725D02*
X1971833D01*
X1952282Y1648025D02*
X1971650D01*
X1952826Y1649825D02*
X1971573D01*
X1951937Y1648925D02*
X1971515D01*
X1929798Y1662425D02*
X1956717D01*
X1929798Y1661525D02*
X1955263D01*
X1929798Y1660625D02*
X1954518D01*
X1929798Y1659725D02*
X1954086D01*
X1929798Y1657025D02*
X1953963D01*
X1929798Y1658825D02*
X1953874D01*
X1929798Y1657925D02*
X1953850D01*
X1929798Y1656125D02*
X1953186D01*
X1929798Y1655225D02*
X1952286D01*
X1929798Y1654325D02*
X1951386D01*
X1942078Y1653425D02*
X1950486D01*
X1942402Y1652525D02*
X1949586D01*
X1942418Y1651625D02*
X1948686D01*
X1823273Y1579625D02*
X1947307D01*
X1936868Y1571525D02*
X1945176D01*
X1823273Y1578725D02*
X1945094D01*
X1937347Y1572425D02*
X1944258D01*
X1935142Y1577825D02*
X1944212D01*
X1865278Y1529225D02*
X1943782D01*
X1865278Y1521125D02*
X1943745D01*
X1937585Y1573325D02*
X1943724D01*
X1936424Y1576925D02*
X1943697D01*
X1937624Y1574225D02*
X1943432D01*
X1937095Y1576025D02*
X1943419D01*
X1865278Y1528325D02*
X1943344D01*
X1865278Y1522025D02*
X1943340D01*
X1937468Y1575125D02*
X1943335D01*
X1865278Y1527425D02*
X1943335D01*
X1865278Y1526525D02*
X1943335D01*
X1865278Y1525625D02*
X1943335D01*
X1865278Y1524725D02*
X1943335D01*
X1865278Y1523825D02*
X1943335D01*
X1865278Y1522925D02*
X1943335D01*
X1848207Y1595825D02*
X1942086D01*
X1848295Y1603025D02*
X1941347D01*
X1849249Y1596725D02*
X1940857D01*
X1849294Y1602125D02*
X1940480D01*
X1849825Y1597625D02*
X1940203D01*
X1849851Y1601225D02*
X1939990D01*
X1850135Y1598525D02*
X1939841D01*
X1850147Y1600325D02*
X1939742D01*
X1850237Y1599425D02*
X1939695D01*
X1933557Y1699325D02*
X1939313D01*
X1933841Y1692125D02*
X1939030D01*
X1934650Y1698425D02*
X1938220D01*
X1934796Y1693025D02*
X1938074D01*
X1935249Y1697525D02*
X1937621D01*
X1935332Y1693925D02*
X1937538D01*
X1935574Y1696625D02*
X1937296D01*
X1935613Y1694825D02*
X1937257D01*
X1935690Y1695725D02*
X1937180D01*
X1929798Y1653425D02*
X1934019D01*
X1919112Y1621925D02*
X1933954D01*
X1919315Y1627325D02*
X1933751D01*
X1919315Y1630025D02*
X1933750D01*
X1919345Y1624625D02*
X1933721D01*
X1929798Y1652525D02*
X1933694D01*
X1927769Y1630925D02*
X1933694D01*
X1919371Y1629125D02*
X1933694D01*
X1919371Y1628225D02*
X1933694D01*
X1919371Y1626425D02*
X1933694D01*
X1919371Y1625525D02*
X1933694D01*
X1919371Y1623725D02*
X1933694D01*
X1919371Y1622825D02*
X1933694D01*
X1879539Y1569725D02*
X1932987D01*
X1929091Y1631825D02*
X1932707D01*
X1880903Y1577825D02*
X1931622D01*
X1929776Y1632725D02*
X1931539D01*
X1882230Y1560725D02*
X1931297D01*
X1823273Y1567925D02*
X1931104D01*
X1881782Y1570625D02*
X1930743D01*
X1882185Y1576925D02*
X1930341D01*
X1882777Y1561625D02*
X1930225D01*
X1881062Y1567025D02*
X1930125D01*
X1882629Y1571525D02*
X1929897D01*
X1882856Y1576025D02*
X1929669D01*
X1883066Y1562525D02*
X1929635D01*
X1882133Y1566125D02*
X1929578D01*
X1883108Y1572425D02*
X1929418D01*
X1923535Y1691225D02*
X1929335D01*
X1923535Y1690325D02*
X1929335D01*
X1923535Y1689425D02*
X1929335D01*
X1923535Y1688525D02*
X1929335D01*
X1923535Y1687625D02*
X1929335D01*
X1923535Y1686725D02*
X1929335D01*
X1883150Y1563425D02*
X1929316D01*
X1923557Y1699325D02*
X1929313D01*
X1883229Y1575125D02*
X1929296D01*
X1882722Y1565225D02*
X1929290D01*
X1883041Y1564325D02*
X1929207D01*
X1883346Y1573325D02*
X1929179D01*
X1883385Y1574225D02*
X1929141D01*
X1923535Y1685825D02*
X1929090D01*
X1923841Y1692125D02*
X1929030D01*
X1924650Y1698425D02*
X1928220D01*
X1923535Y1684925D02*
X1928190D01*
X1924796Y1693025D02*
X1928074D01*
X1925249Y1697525D02*
X1927621D01*
X1925332Y1693925D02*
X1927538D01*
X1925574Y1696625D02*
X1927296D01*
X1923535Y1684025D02*
X1927290D01*
X1925613Y1694825D02*
X1927257D01*
X1925690Y1695725D02*
X1927180D01*
X1923535Y1683125D02*
X1926390D01*
X1923535Y1682225D02*
X1925741D01*
X1923535Y1681325D02*
X1925598D01*
X1923793Y1680425D02*
X1925598D01*
X1924693Y1679525D02*
X1925497D01*
X1919371Y1639025D02*
X1924773D01*
X1919371Y1630925D02*
X1924394D01*
X1919354Y1639925D02*
X1924339D01*
X1919371Y1640825D02*
X1923439D01*
X1919371Y1638125D02*
X1923402D01*
X1919371Y1631825D02*
X1923071D01*
X1919369Y1637225D02*
X1922573D01*
X1919371Y1641725D02*
X1922548D01*
X1919345Y1632725D02*
X1922387D01*
X1919371Y1636325D02*
X1922104D01*
X1919325Y1642625D02*
X1922097D01*
X1887635Y1675925D02*
X1922046D01*
X1900565Y1675025D02*
X1922046D01*
X1901472Y1674125D02*
X1922046D01*
X1911635Y1673225D02*
X1922046D01*
X1912556Y1672325D02*
X1922046D01*
X1913074Y1671425D02*
X1922046D01*
X1913342Y1670525D02*
X1922046D01*
X1913407Y1669625D02*
X1922046D01*
X1920613Y1661525D02*
X1922046D01*
X1914972Y1660625D02*
X1922046D01*
X1915872Y1659725D02*
X1922046D01*
X1916772Y1658825D02*
X1922046D01*
X1917672Y1657925D02*
X1922046D01*
X1918572Y1657025D02*
X1922046D01*
X1919472Y1656125D02*
X1922046D01*
X1920372Y1655225D02*
X1922046D01*
X1919580Y1644425D02*
X1922046D01*
X1919371Y1643525D02*
X1922046D01*
X1920796Y1668725D02*
X1922042D01*
X1919371Y1633625D02*
X1922004D01*
X1921149Y1645325D02*
X1921942D01*
X1919365Y1635425D02*
X1921874D01*
X1921243Y1654325D02*
X1921848D01*
X1919371Y1634525D02*
X1921842D01*
X1886735Y1676825D02*
X1921453D01*
X1885835Y1677725D02*
X1920553D01*
X1884935Y1678625D02*
X1919703D01*
X1884035Y1679525D02*
X1919355D01*
X1872335Y1691225D02*
X1919335D01*
X1873235Y1690325D02*
X1919335D01*
X1874135Y1689425D02*
X1919335D01*
X1875035Y1688525D02*
X1919335D01*
X1875935Y1687625D02*
X1919335D01*
X1876835Y1686725D02*
X1919335D01*
X1877735Y1685825D02*
X1919335D01*
X1878635Y1684925D02*
X1919335D01*
X1879535Y1684025D02*
X1919335D01*
X1880435Y1683125D02*
X1919335D01*
X1881335Y1682225D02*
X1919335D01*
X1882235Y1681325D02*
X1919335D01*
X1883135Y1680425D02*
X1919335D01*
X1913557Y1699325D02*
X1919313D01*
X1913841Y1692125D02*
X1919030D01*
X1914650Y1698425D02*
X1918220D01*
X1914796Y1693025D02*
X1918074D01*
X1915249Y1697525D02*
X1917621D01*
X1915332Y1693925D02*
X1917538D01*
X1915574Y1696625D02*
X1917296D01*
X1915613Y1694825D02*
X1917257D01*
X1915690Y1695725D02*
X1917180D01*
X1906034Y1535525D02*
X1917158D01*
X1906459Y1543625D02*
X1916733D01*
X1914072Y1661525D02*
X1916261D01*
X1913279Y1668725D02*
X1916078D01*
X1907755Y1536425D02*
X1915436D01*
X1907902Y1542725D02*
X1915289D01*
X1913172Y1662425D02*
X1915196D01*
X1912938Y1667825D02*
X1915101D01*
X1883930Y1654325D02*
X1914928D01*
X1823273Y1613825D02*
X1914753D01*
X1908540Y1537325D02*
X1914651D01*
X1912272Y1663325D02*
X1914608D01*
X1908623Y1541825D02*
X1914568D01*
X1912316Y1666925D02*
X1914554D01*
X1883030Y1655225D02*
X1914432D01*
X1911372Y1664225D02*
X1914290D01*
X1911168Y1666025D02*
X1914265D01*
X1908984Y1538225D02*
X1914207D01*
X1910500Y1665125D02*
X1914182D01*
X1909029Y1540925D02*
X1914163D01*
X1909196Y1539125D02*
X1913996D01*
X1909210Y1540025D02*
X1913982D01*
X1882130Y1656125D02*
X1913532D01*
X1823273Y1614725D02*
X1912776D01*
X1881230Y1657025D02*
X1912632D01*
X1823273Y1621025D02*
X1912109D01*
X1823273Y1615625D02*
X1911953D01*
X1823273Y1620125D02*
X1911778D01*
X1880330Y1657925D02*
X1911732D01*
X1823273Y1616525D02*
X1911487D01*
X1823273Y1619225D02*
X1911393D01*
X1823273Y1617425D02*
X1911258D01*
X1823273Y1618325D02*
X1911229D01*
X1884830Y1653425D02*
X1910987D01*
X1879430Y1658825D02*
X1910832D01*
X1885730Y1652525D02*
X1910663D01*
X1886630Y1651625D02*
X1910647D01*
X1878530Y1659725D02*
X1909932D01*
X1897261Y1699325D02*
X1909313D01*
X1877630Y1660625D02*
X1909032D01*
X1871435Y1692125D02*
X1909030D01*
X1897577Y1698425D02*
X1908220D01*
X1876730Y1661525D02*
X1908132D01*
X1894277Y1693025D02*
X1908074D01*
X1897695Y1697525D02*
X1907621D01*
X1896064Y1693925D02*
X1907538D01*
X1897631Y1696625D02*
X1907296D01*
X1896892Y1694825D02*
X1907257D01*
X1875830Y1662425D02*
X1907232D01*
X1897376Y1695725D02*
X1907180D01*
X1902372Y1673225D02*
X1906683D01*
X1874930Y1663325D02*
X1906332D01*
X1903272Y1672325D02*
X1905763D01*
X1874030Y1664225D02*
X1905432D01*
X1904172Y1671425D02*
X1905244D01*
X1873130Y1665125D02*
X1904532D01*
X1867652Y1535525D02*
X1903921D01*
X1872230Y1666025D02*
X1903632D01*
X1823273Y1543625D02*
X1903496D01*
X1823273Y1641725D02*
X1902897D01*
X1871330Y1666925D02*
X1902732D01*
X1823273Y1642625D02*
X1902713D01*
X1823273Y1643525D02*
X1902265D01*
X1823273Y1646225D02*
X1902210D01*
X1867652Y1536425D02*
X1902199D01*
X1823273Y1621925D02*
X1902196D01*
X1823273Y1542725D02*
X1902052D01*
X1823273Y1644425D02*
X1902050D01*
X1823273Y1645325D02*
X1902032D01*
X1870430Y1667825D02*
X1901832D01*
X1823273Y1640825D02*
X1901791D01*
X1898500Y1634525D02*
X1901749D01*
X1823273Y1635425D02*
X1901505D01*
X1867652Y1537325D02*
X1901414D01*
X1867273Y1541825D02*
X1901331D01*
X1823273Y1622825D02*
X1901280D01*
X1823273Y1639925D02*
X1901158D01*
X1823273Y1636325D02*
X1900996D01*
X1867652Y1538225D02*
X1900970D01*
X1869530Y1668725D02*
X1900932D01*
X1867649Y1540925D02*
X1900926D01*
X1823273Y1639025D02*
X1900810D01*
X1867652Y1539125D02*
X1900759D01*
X1867652Y1540025D02*
X1900745D01*
X1823273Y1637225D02*
X1900735D01*
X1823273Y1638125D02*
X1900676D01*
X1899387Y1633625D02*
X1900386D01*
X1823273Y1623725D02*
X1900380D01*
X1868630Y1669625D02*
X1900032D01*
X1867404Y1624625D02*
X1899480D01*
X1867730Y1670525D02*
X1899132D01*
X1868344Y1625525D02*
X1898580D01*
X1868871Y1626425D02*
X1897680D01*
X1869146Y1627325D02*
X1894046D01*
X1823273Y1634525D02*
X1893401D01*
X1869217Y1628225D02*
X1892843D01*
X1883729Y1702925D02*
X1892665D01*
X1823273Y1633625D02*
X1892514D01*
X1869095Y1629125D02*
X1892200D01*
X1884277Y1693025D02*
X1892117D01*
X1823273Y1632725D02*
X1892013D01*
X1868761Y1630025D02*
X1891845D01*
X1867028Y1631825D02*
X1891758D01*
X1868150Y1630925D02*
X1891705D01*
X1885712Y1701125D02*
X1890682D01*
X1885854Y1711025D02*
X1890539D01*
X1885938Y1703825D02*
X1890455D01*
X1886064Y1693925D02*
X1890330D01*
X1886694Y1700225D02*
X1889699D01*
X1886773Y1710125D02*
X1889621D01*
X1886820Y1704725D02*
X1889573D01*
X1886892Y1694825D02*
X1889502D01*
X1887261Y1699325D02*
X1889132D01*
X1887307Y1709225D02*
X1889086D01*
X1887335Y1705625D02*
X1889059D01*
X1887376Y1695725D02*
X1889018D01*
X1887577Y1698425D02*
X1888817D01*
X1887599Y1708325D02*
X1888794D01*
X1887612Y1706525D02*
X1888781D01*
X1887631Y1696625D02*
X1888763D01*
X1887695Y1697525D02*
X1888699D01*
X1887697Y1707425D02*
X1888697D01*
X1866830Y1671425D02*
X1886567D01*
X1823273Y1647125D02*
X1885570D01*
X1865930Y1672325D02*
X1885295D01*
X1865030Y1673225D02*
X1884395D01*
X1823273Y1648025D02*
X1884290D01*
X1864130Y1674125D02*
X1883495D01*
X1848557Y1648925D02*
X1883390D01*
X1873729Y1702925D02*
X1882665D01*
X1863230Y1675025D02*
X1882595D01*
X1849453Y1649825D02*
X1882490D01*
X1874277Y1693025D02*
X1882117D01*
X1862330Y1675925D02*
X1881695D01*
X1849958Y1650725D02*
X1881590D01*
X1861430Y1676825D02*
X1880795D01*
X1850217Y1651625D02*
X1880690D01*
X1875712Y1701125D02*
X1880682D01*
X1875854Y1711025D02*
X1880539D01*
X1875938Y1703825D02*
X1880455D01*
X1876064Y1693925D02*
X1880330D01*
X1865278Y1508525D02*
X1880015D01*
X1860535Y1677725D02*
X1879895D01*
X1850274Y1652525D02*
X1879790D01*
X1866495Y1501325D02*
X1879722D01*
X1876694Y1700225D02*
X1879699D01*
X1876773Y1710125D02*
X1879621D01*
X1876820Y1704725D02*
X1879573D01*
X1876892Y1694825D02*
X1879502D01*
X1877261Y1699325D02*
X1879132D01*
X1877307Y1709225D02*
X1879086D01*
X1877335Y1705625D02*
X1879059D01*
X1877376Y1695725D02*
X1879018D01*
X1860428Y1678625D02*
X1878995D01*
X1865421Y1507625D02*
X1878920D01*
X1850139Y1653425D02*
X1878890D01*
X1877577Y1698425D02*
X1878817D01*
X1877599Y1708325D02*
X1878794D01*
X1877612Y1706525D02*
X1878781D01*
X1867050Y1502225D02*
X1878768D01*
X1877631Y1696625D02*
X1878763D01*
X1823273Y1569725D02*
X1878748D01*
X1877695Y1697525D02*
X1878699D01*
X1877697Y1707425D02*
X1878697D01*
X1866441Y1506725D02*
X1878320D01*
X1867345Y1503125D02*
X1878234D01*
X1860428Y1679525D02*
X1878095D01*
X1867019Y1505825D02*
X1877993D01*
X1849789Y1654325D02*
X1877990D01*
X1867434Y1504025D02*
X1877953D01*
X1867331Y1504925D02*
X1877877D01*
X1823273Y1577825D02*
X1877383D01*
X1860404Y1680425D02*
X1877195D01*
X1849154Y1655225D02*
X1877090D01*
X1823273Y1567025D02*
X1876739D01*
X1823273Y1559825D02*
X1876549D01*
X1823273Y1570625D02*
X1876504D01*
X1859869Y1681325D02*
X1876295D01*
X1847975Y1656125D02*
X1876190D01*
X1823273Y1576925D02*
X1876102D01*
X1823273Y1566125D02*
X1875668D01*
X1823273Y1571525D02*
X1875658D01*
X1823273Y1560725D02*
X1875570D01*
X1823273Y1576025D02*
X1875430D01*
X1848516Y1682225D02*
X1875395D01*
X1823273Y1657025D02*
X1875290D01*
X1823273Y1572425D02*
X1875179D01*
X1823273Y1565225D02*
X1875079D01*
X1823273Y1575125D02*
X1875057D01*
X1823273Y1561625D02*
X1875023D01*
X1823273Y1573325D02*
X1874940D01*
X1823273Y1574225D02*
X1874902D01*
X1823273Y1564325D02*
X1874760D01*
X1823273Y1562525D02*
X1874734D01*
X1823273Y1563425D02*
X1874651D01*
X1847616Y1683125D02*
X1874495D01*
X1823273Y1657925D02*
X1874390D01*
X1846716Y1684025D02*
X1873595D01*
X1858664Y1658825D02*
X1873490D01*
X1845816Y1684925D02*
X1872695D01*
X1863729Y1702925D02*
X1872665D01*
X1860094Y1659725D02*
X1872590D01*
X1871288Y1693025D02*
X1872117D01*
X1844916Y1685825D02*
X1871795D01*
X1860812Y1660625D02*
X1871690D01*
X1844016Y1686725D02*
X1870895D01*
X1861215Y1661525D02*
X1870790D01*
X1865712Y1701125D02*
X1870682D01*
X1865854Y1711025D02*
X1870539D01*
X1865938Y1703825D02*
X1870455D01*
X1843116Y1687625D02*
X1869995D01*
X1861395Y1662425D02*
X1869890D01*
X1866694Y1700225D02*
X1869699D01*
X1866773Y1710125D02*
X1869621D01*
X1866820Y1704725D02*
X1869573D01*
X1867261Y1699325D02*
X1869132D01*
X1842216Y1688525D02*
X1869095D01*
X1867307Y1709225D02*
X1869086D01*
X1867335Y1705625D02*
X1869059D01*
X1861379Y1663325D02*
X1868990D01*
X1867835Y1695725D02*
X1868945D01*
X1867577Y1698425D02*
X1868817D01*
X1867599Y1708325D02*
X1868794D01*
X1867612Y1706525D02*
X1868781D01*
X1867631Y1696625D02*
X1868763D01*
X1867695Y1697525D02*
X1868699D01*
X1867697Y1707425D02*
X1868697D01*
X1841316Y1689425D02*
X1868195D01*
X1861165Y1664225D02*
X1868090D01*
X1840416Y1690325D02*
X1867295D01*
X1860719Y1665125D02*
X1867190D01*
X1839516Y1691225D02*
X1866395D01*
X1859930Y1666025D02*
X1866290D01*
X1838616Y1692125D02*
X1865495D01*
X1859261Y1666925D02*
X1865390D01*
X1859261Y1667825D02*
X1864490D01*
X1864278Y1693025D02*
X1864478D01*
X1859443Y1668725D02*
X1863590D01*
X1823273Y1631825D02*
X1862908D01*
X1860330Y1669625D02*
X1862690D01*
X1853729Y1702925D02*
X1862665D01*
X1823273Y1624625D02*
X1862532D01*
X1823273Y1585925D02*
X1862252D01*
X1854277Y1693025D02*
X1862117D01*
X1860428Y1670525D02*
X1861790D01*
X1823273Y1630925D02*
X1861786D01*
X1823273Y1625525D02*
X1861593D01*
X1823273Y1630025D02*
X1861175D01*
X1823273Y1594025D02*
X1861136D01*
X1823273Y1532825D02*
X1861078D01*
X1823273Y1531925D02*
X1861078D01*
X1823273Y1531025D02*
X1861078D01*
X1678924Y1530125D02*
X1861078D01*
X1678924Y1529225D02*
X1861078D01*
X1678924Y1528325D02*
X1861078D01*
X1678924Y1527425D02*
X1861078D01*
X1678924Y1526525D02*
X1861078D01*
X1678924Y1525625D02*
X1861078D01*
X1678924Y1524725D02*
X1861078D01*
X1678924Y1523825D02*
X1861078D01*
X1678924Y1522925D02*
X1861078D01*
X1678924Y1522025D02*
X1861078D01*
X1678924Y1521125D02*
X1861078D01*
X1678924Y1520225D02*
X1861078D01*
X1678924Y1519325D02*
X1861078D01*
X1678924Y1518425D02*
X1861078D01*
X1678924Y1517525D02*
X1861078D01*
X1678924Y1516625D02*
X1861078D01*
X1678924Y1515725D02*
X1861078D01*
X1749096Y1514825D02*
X1861078D01*
X1752165Y1513925D02*
X1861078D01*
X1753637Y1513025D02*
X1861078D01*
X1754675Y1512125D02*
X1861078D01*
X1755463Y1511225D02*
X1861078D01*
X1756075Y1510325D02*
X1861078D01*
X1843342Y1509425D02*
X1861078D01*
X1845128Y1508525D02*
X1861078D01*
X1823273Y1626425D02*
X1861065D01*
X1845926Y1507625D02*
X1860936D01*
X1755905Y1500425D02*
X1860857D01*
X1823273Y1629125D02*
X1860842D01*
X1823273Y1627325D02*
X1860791D01*
X1823273Y1628225D02*
X1860720D01*
X1855712Y1701125D02*
X1860682D01*
X1855854Y1711025D02*
X1860539D01*
X1855938Y1703825D02*
X1860455D01*
X1856064Y1693925D02*
X1860330D01*
X1823273Y1586825D02*
X1860177D01*
X1846377Y1506725D02*
X1859916D01*
X1843944Y1501325D02*
X1859862D01*
X1823273Y1593125D02*
X1859825D01*
X1856694Y1700225D02*
X1859699D01*
X1856773Y1710125D02*
X1859621D01*
X1856820Y1704725D02*
X1859573D01*
X1856892Y1694825D02*
X1859502D01*
X1823273Y1587725D02*
X1859343D01*
X1846595Y1505825D02*
X1859338D01*
X1845336Y1502225D02*
X1859307D01*
X1823273Y1592225D02*
X1859144D01*
X1845316Y1533725D02*
X1859136D01*
X1857261Y1699325D02*
X1859132D01*
X1857307Y1709225D02*
X1859086D01*
X1857335Y1705625D02*
X1859059D01*
X1845534Y1541825D02*
X1859032D01*
X1846615Y1504925D02*
X1859026D01*
X1857376Y1695725D02*
X1859018D01*
X1846044Y1503125D02*
X1859012D01*
X1846440Y1504025D02*
X1858923D01*
X1823273Y1588625D02*
X1858871D01*
X1857577Y1698425D02*
X1858817D01*
X1857599Y1708325D02*
X1858794D01*
X1857612Y1706525D02*
X1858781D01*
X1823273Y1591325D02*
X1858765D01*
X1857631Y1696625D02*
X1858763D01*
X1857695Y1697525D02*
X1858699D01*
X1857697Y1707425D02*
X1858697D01*
X1846628Y1534625D02*
X1858666D01*
X1846732Y1540925D02*
X1858655D01*
X1847394Y1540025D02*
X1858652D01*
X1847776Y1539125D02*
X1858652D01*
X1847950Y1538225D02*
X1858652D01*
X1847939Y1537325D02*
X1858652D01*
X1847743Y1536425D02*
X1858652D01*
X1847333Y1535525D02*
X1858652D01*
X1823273Y1589525D02*
X1858638D01*
X1823273Y1590425D02*
X1858604D01*
X1823273Y1658825D02*
X1855659D01*
X1823273Y1667825D02*
X1855061D01*
X1823273Y1666925D02*
X1855061D01*
X1850903Y1668725D02*
X1855060D01*
X1851562Y1681325D02*
X1854986D01*
X1851709Y1675025D02*
X1854810D01*
X1851971Y1669625D02*
X1854525D01*
X1852014Y1675925D02*
X1854477D01*
X1852075Y1674125D02*
X1854437D01*
X1852081Y1673225D02*
X1854428D01*
X1852081Y1672325D02*
X1854428D01*
X1852081Y1671425D02*
X1854428D01*
X1852081Y1670525D02*
X1854428D01*
X1823273Y1666025D02*
X1854393D01*
X1852271Y1680425D02*
X1854306D01*
X1823273Y1659725D02*
X1854228D01*
X1823273Y1665125D02*
X1853603D01*
X1823273Y1660625D02*
X1853510D01*
X1823273Y1664225D02*
X1853157D01*
X1823273Y1661525D02*
X1853107D01*
X1823273Y1663325D02*
X1852944D01*
X1823273Y1662425D02*
X1852928D01*
X1843729Y1702925D02*
X1852665D01*
X1844277Y1693025D02*
X1852117D01*
X1845712Y1701125D02*
X1850682D01*
X1845854Y1711025D02*
X1850539D01*
X1845938Y1703825D02*
X1850455D01*
X1846064Y1693925D02*
X1850330D01*
X1846694Y1700225D02*
X1849699D01*
X1846773Y1710125D02*
X1849621D01*
X1846820Y1704725D02*
X1849573D01*
X1846892Y1694825D02*
X1849502D01*
X1847261Y1699325D02*
X1849132D01*
X1847307Y1709225D02*
X1849086D01*
X1847335Y1705625D02*
X1849059D01*
X1847376Y1695725D02*
X1849018D01*
X1847577Y1698425D02*
X1848817D01*
X1847599Y1708325D02*
X1848794D01*
X1847612Y1706525D02*
X1848781D01*
X1847631Y1696625D02*
X1848763D01*
X1847695Y1697525D02*
X1848699D01*
X1847697Y1707425D02*
X1848697D01*
X1823273Y1668725D02*
X1847260D01*
X1823273Y1675025D02*
X1846453D01*
X1823273Y1669625D02*
X1846192D01*
X1823273Y1675925D02*
X1846155D01*
X1823273Y1674125D02*
X1846087D01*
X1823273Y1677725D02*
X1846081D01*
X1823273Y1676825D02*
X1846081D01*
X1823273Y1673225D02*
X1846081D01*
X1823273Y1672325D02*
X1846081D01*
X1823273Y1671425D02*
X1846081D01*
X1823273Y1670525D02*
X1846081D01*
X1823273Y1678625D02*
X1846069D01*
X1823273Y1679525D02*
X1845277D01*
X1679276Y1680425D02*
X1844377D01*
X1823273Y1656125D02*
X1844070D01*
X1823273Y1595825D02*
X1843756D01*
X1823273Y1603025D02*
X1843668D01*
X1823273Y1648925D02*
X1843487D01*
X1679276Y1681325D02*
X1843477D01*
X1823273Y1655225D02*
X1842890D01*
X1823273Y1596725D02*
X1842715D01*
X1823273Y1602125D02*
X1842669D01*
X1833729Y1702925D02*
X1842665D01*
X1823273Y1649825D02*
X1842592D01*
X1679276Y1682225D02*
X1842577D01*
X1823273Y1654325D02*
X1842256D01*
X1823273Y1597625D02*
X1842138D01*
X1837716Y1693025D02*
X1842117D01*
X1823273Y1601225D02*
X1842112D01*
X1823273Y1650725D02*
X1842086D01*
X1823273Y1653425D02*
X1841906D01*
X1823273Y1598525D02*
X1841828D01*
X1823273Y1651625D02*
X1841828D01*
X1823273Y1600325D02*
X1841816D01*
X1823273Y1652525D02*
X1841770D01*
X1823273Y1599425D02*
X1841726D01*
X1679276Y1683125D02*
X1841677D01*
X1823273Y1533725D02*
X1841619D01*
X1756550Y1509425D02*
X1841406D01*
X1823273Y1541825D02*
X1841400D01*
X1756419Y1501325D02*
X1840804D01*
X1679276Y1684025D02*
X1840777D01*
X1835712Y1701125D02*
X1840682D01*
X1835854Y1711025D02*
X1840539D01*
X1835938Y1703825D02*
X1840455D01*
X1836816Y1693925D02*
X1840330D01*
X1823273Y1534625D02*
X1840306D01*
X1823273Y1540925D02*
X1840203D01*
X1679276Y1684925D02*
X1839877D01*
X1836694Y1700225D02*
X1839699D01*
X1756908Y1508525D02*
X1839620D01*
X1823273Y1535525D02*
X1839601D01*
X1823273Y1540025D02*
X1839540D01*
X1836892Y1694825D02*
X1839502D01*
X1756810Y1502225D02*
X1839412D01*
X1823273Y1536425D02*
X1839191D01*
X1823273Y1539125D02*
X1839158D01*
X1837261Y1699325D02*
X1839132D01*
X1837376Y1695725D02*
X1839018D01*
X1823273Y1537325D02*
X1838995D01*
X1823273Y1538225D02*
X1838985D01*
X1751613Y1685825D02*
X1838977D01*
X1757164Y1507625D02*
X1838822D01*
X1837577Y1698425D02*
X1838817D01*
X1837631Y1696625D02*
X1838763D01*
X1757097Y1503125D02*
X1838704D01*
X1837695Y1697525D02*
X1838699D01*
X1757327Y1506725D02*
X1838371D01*
X1757287Y1504025D02*
X1838308D01*
X1757400Y1505825D02*
X1838153D01*
X1757387Y1504925D02*
X1838133D01*
X1753286Y1686725D02*
X1838077D01*
X1754417Y1687625D02*
X1837177D01*
X1755264Y1688525D02*
X1836277D01*
X1755921Y1689425D02*
X1835377D01*
X1756430Y1690325D02*
X1834477D01*
X1756819Y1691225D02*
X1833577D01*
X1757103Y1692125D02*
X1832677D01*
X1823225Y1693025D02*
X1831777D01*
X1823225Y1702025D02*
X1831275D01*
X1822764Y1701125D02*
X1830682D01*
X1679276Y1711025D02*
X1830539D01*
X1823421Y1693925D02*
X1830330D01*
X1823349Y1700225D02*
X1829699D01*
X1822557Y1710125D02*
X1829621D01*
X1823421Y1694825D02*
X1829502D01*
X1823421Y1699325D02*
X1829132D01*
X1823421Y1695725D02*
X1829018D01*
X1823421Y1698425D02*
X1828817D01*
X1823421Y1696625D02*
X1828763D01*
X1823421Y1697525D02*
X1828699D01*
X1679276Y1710125D02*
X1816285D01*
X1754651Y1701125D02*
X1816078D01*
X1753605Y1702025D02*
X1815617D01*
X1757291Y1693025D02*
X1815617D01*
X1679276Y1709225D02*
X1815493D01*
X1755445Y1700225D02*
X1815493D01*
X1679276Y1708325D02*
X1815421D01*
X1679276Y1707425D02*
X1815421D01*
X1679276Y1706525D02*
X1815421D01*
X1679276Y1705625D02*
X1815421D01*
X1679276Y1704725D02*
X1815421D01*
X1748864Y1703825D02*
X1815421D01*
X1752117Y1702925D02*
X1815421D01*
X1756061Y1699325D02*
X1815421D01*
X1756539Y1698425D02*
X1815421D01*
X1756900Y1697525D02*
X1815421D01*
X1757159Y1696625D02*
X1815421D01*
X1757324Y1695725D02*
X1815421D01*
X1757399Y1694825D02*
X1815421D01*
X1757389Y1693925D02*
X1815421D01*
X1679276Y1703825D02*
X1747199D01*
X1678924Y1514825D02*
X1746967D01*
X1678924Y1496825D02*
X1744508D01*
X1679276Y1685825D02*
X1744450D01*
X1679276Y1702925D02*
X1743946D01*
X1678924Y1513925D02*
X1743898D01*
X1678924Y1497725D02*
X1742812D01*
X1679276Y1686725D02*
X1742777D01*
X1679276Y1702025D02*
X1742458D01*
X1678924Y1513025D02*
X1742426D01*
X1678924Y1498625D02*
X1741672D01*
X1679276Y1687625D02*
X1741646D01*
X1679276Y1701125D02*
X1741412D01*
X1678924Y1512125D02*
X1741388D01*
X1678924Y1499525D02*
X1740818D01*
X1679276Y1688525D02*
X1740799D01*
X1679276Y1700225D02*
X1740618D01*
X1678924Y1511225D02*
X1740600D01*
X1678924Y1500425D02*
X1740158D01*
X1679276Y1689425D02*
X1740142D01*
X1679276Y1699325D02*
X1740002D01*
X1678924Y1510325D02*
X1739988D01*
X1678924Y1501325D02*
X1739644D01*
X1679276Y1690325D02*
X1739633D01*
X1679276Y1698425D02*
X1739524D01*
X1678924Y1509425D02*
X1739513D01*
X1678924Y1502225D02*
X1739253D01*
X1679276Y1691225D02*
X1739244D01*
X1679276Y1697525D02*
X1739163D01*
X1678924Y1508525D02*
X1739155D01*
X1678924Y1503125D02*
X1738966D01*
X1679276Y1692125D02*
X1738960D01*
X1679276Y1696625D02*
X1738904D01*
X1678924Y1507625D02*
X1738899D01*
X1678924Y1504025D02*
X1738776D01*
X1679276Y1693025D02*
X1738772D01*
X1679276Y1695725D02*
X1738739D01*
X1678924Y1506725D02*
X1738736D01*
X1678924Y1504925D02*
X1738676D01*
X1679276Y1693925D02*
X1738674D01*
X1679276Y1694825D02*
X1738664D01*
X1678924Y1505825D02*
X1738663D01*
X1846521Y1669130D02*
X1848021Y1670630D01*
X1851642Y1669130D02*
X1850142Y1670630D01*
X1851642Y1675051D02*
X1850142Y1673551D01*
X1846521Y1675051D02*
X1848021Y1673551D01*
X1815860Y1692706D02*
X1817653Y1694499D01*
X1822982Y1692706D02*
X1821189Y1694499D01*
X1822982Y1700827D02*
X1821189Y1699034D01*
X1815860Y1700827D02*
X1817653Y1699034D01*
X1941963Y1653554D02*
X1940672Y1652263D01*
X1934133Y1653554D02*
X1935425Y1652263D01*
X1606299Y1481890D02*
Y1718110D01*
X2248031*
Y1647244*
X2393701*
Y1576378*
X2342520*
Y1481890*
X1606299*
G54D17*
X1904977Y1539642D03*
X1918214D03*
X1878900Y1563366D03*
X1933456Y1564386D03*
X1879143Y1573957D03*
X1933382D03*
X2011432Y1589307D03*
X2024307Y1589386D03*
X2037149Y1577359D03*
X1862844Y1590134D03*
X1999044Y1600515D03*
X1864968Y1628108D03*
X1915467Y1618015D03*
X1997757Y1616205D03*
X1903220Y1630458D03*
X1895950Y1631125D03*
X1904922Y1637952D03*
X1906266Y1644958D03*
X1931648Y1647952D03*
X1926081Y1634826D03*
X1975761Y1649103D03*
X2036491Y1640130D03*
X1857161Y1662801D03*
X1909159Y1669771D03*
G54D19*
X1686559Y1640602D03*
Y1565602D03*
X1806559Y1640602D03*
Y1615602D03*
Y1590602D03*
Y1565602D03*
G54D28*
X1833197Y1697394D03*
Y1707394D03*
X1843197Y1697394D03*
Y1707394D03*
X1853197Y1697394D03*
Y1707394D03*
X1863197Y1697394D03*
Y1707394D03*
X1873197Y1697394D03*
Y1707394D03*
X1883197Y1697394D03*
Y1707394D03*
X1893197Y1697394D03*
Y1707394D03*
X2111357Y1691580D03*
X2121357D03*
Y1701580D03*
X2131357Y1691580D03*
Y1701580D03*
X2141357Y1691580D03*
Y1701580D03*
X2151357Y1691580D03*
Y1701580D03*
X2161357Y1691580D03*
Y1701580D03*
X2171357Y1691580D03*
Y1701580D03*
X2181357Y1691580D03*
Y1701580D03*
X2191357Y1691580D03*
Y1701580D03*
X2201357Y1691580D03*
Y1701580D03*
X2211357Y1691580D03*
Y1701580D03*
X2221357Y1691580D03*
Y1701580D03*
X2231357Y1691580D03*
Y1701580D03*
X1947835Y1575156D03*
X1843467Y1537828D03*
X1984227Y1525156D03*
Y1556652D03*
X2191659Y1506353D03*
X2201659D03*
X2152693D03*
X2162693D03*
X1984358Y1594883D03*
G54D33*
X1819421Y1705767D02*
X1831570D01*
X1833197Y1707394*
X1843197*
X2111357Y1701580D02*
X2121357D01*
G54D47*
X1863178Y1503992D02*
Y1537802D01*
X1863152Y1537828*
X1999044Y1600515D02*
Y1601333D01*
X1999045*
X1915017Y1626115D02*
X1907563D01*
X1903220Y1630458*
X1915017Y1623556D02*
X1903519D01*
X1895950Y1631125*
X1938048Y1623556D02*
X2008376D01*
X2054503Y1669682*
X2205399*
X2225557Y1689840*
Y1697380*
X1938048Y1626115D02*
X2007012D01*
X2054827Y1673930*
X2090083*
X1938048Y1628674D02*
X2006844D01*
X2054438Y1676269*
X2186046*
X2201357Y1691580*
X1915017Y1649147D02*
X1886139D01*
X1857428Y1677857*
Y1678257*
X1915017Y1646588D02*
X1919471D01*
Y1653156*
X1915017Y1638911D02*
X1910963D01*
X1910963D02*
X1906266Y1643607D01*
Y1644958*
X1915017Y1633792D02*
X1909082D01*
X1904922Y1637952*
X1927033Y1634956D02*
Y1634840D01*
X1925522Y1636351*
X1915017*
X1927698Y1643356D02*
Y1681463D01*
X1931435Y1685200*
Y1695636*
X1938048Y1631233D02*
X2006838D01*
X2058330Y1682724*
X2148441*
X2156357Y1690640*
Y1692520*
X2159618Y1695781*
X2207156*
X1938048Y1633792D02*
X1933442D01*
X1924146Y1643089*
Y1677102*
X1921435Y1679813*
Y1695636*
X1938048Y1636351D02*
X1934703D01*
X1927698Y1643356*
X1938048Y1644029D02*
X1933594D01*
X1931648Y1645974*
Y1647952*
X1938048Y1649147D02*
X1949178D01*
X1958291Y1658260*
Y1639047D02*
X1950750Y1646588D01*
X1938048*
X2006158Y1633117D02*
X2069621Y1696580D01*
X2156357*
X2161357Y1701580*
X2006158Y1633117D02*
X1951373D01*
X1945579Y1638911*
X1945579D02*
X1938048D01*
X1857161Y1662801D02*
Y1672057D01*
X1857428*
X1919471Y1653156D02*
X1899184Y1673444D01*
X1887147*
X1863197Y1697394*
X1849081Y1678290D02*
Y1678690D01*
X1833197Y1694575*
Y1697394*
X1857428Y1678257D02*
X1853271D01*
X1853238Y1678290*
X1849081*
X2090083Y1673930D02*
X2089990Y1673882D01*
X2203659*
X2221357Y1691580*
X2225557Y1697380D02*
X2221357Y1701580D01*
X2211357Y1691580D02*
X2207156Y1695781D01*
G54D83*
X2111357Y1701580D03*
X1947835Y1525156D03*
X1863152Y1537828D03*
X1984358Y1575198D03*
G54D103*
X1987540Y1591701D02*
X1986480Y1592762D01*
X1987540Y1598065D02*
X1986480Y1597005D01*
X1981176Y1598065D02*
X1982237Y1597005D01*
X1981176Y1591701D02*
X1982237Y1592762D01*
X1846649Y1541010D02*
X1845589Y1539949D01*
X1840285Y1541010D02*
X1841346Y1539949D01*
X1840285Y1534646D02*
X1841346Y1535707D01*
X1846649Y1534646D02*
X1845589Y1535707D01*
X1944653Y1578338D02*
X1945713Y1577277D01*
X1944653Y1571974D02*
X1945713Y1573035D01*
X1951017Y1571974D02*
X1949956Y1573035D01*
X1951017Y1578338D02*
X1949956Y1577277D01*
X2234539Y1688398D02*
X2233478Y1689459D01*
X2228175Y1688398D02*
X2229236Y1689459D01*
X2228175Y1694762D02*
X2229236Y1693701D01*
X2234539Y1694762D02*
X2233478Y1693701D01*
X2204539Y1698398D02*
X2203478Y1699459D01*
X2198175Y1698398D02*
X2199236Y1699459D01*
X2198175Y1704762D02*
X2199236Y1703701D01*
X2204539Y1704762D02*
X2203478Y1703701D01*
X2174539Y1698398D02*
X2173478Y1699459D01*
X2168175Y1698398D02*
X2169236Y1699459D01*
X2168175Y1704762D02*
X2169236Y1703701D01*
X2174539Y1704762D02*
X2173478Y1703701D01*
X2148175Y1688398D02*
X2149236Y1689459D01*
X2128175Y1704762D02*
X2129236Y1703701D01*
X2134539Y1704762D02*
X2133478Y1703701D01*
X2141215Y1546767D02*
X2140155Y1545707D01*
X2135196Y1546767D02*
X2136257Y1545707D01*
X2135196Y1540748D02*
X2136257Y1541809D01*
X2141215Y1540748D02*
X2140155Y1541809D01*
X2241193Y1612430D02*
X2240132Y1611370D01*
X2227936Y1612430D02*
X2228997Y1611370D01*
X2227936Y1599173D02*
X2228997Y1600234D01*
X2241193Y1599173D02*
X2240132Y1600234D01*
X1754660Y1512140D02*
X1753599Y1511080D01*
X1741403Y1512140D02*
X1742464Y1511080D01*
X1741403Y1498883D02*
X1742464Y1499944D01*
X1754660Y1498883D02*
X1753599Y1499944D01*
X1754660Y1701117D02*
X1753599Y1700056D01*
X1741403Y1701117D02*
X1742464Y1700056D01*
X1741403Y1687860D02*
X1742464Y1688920D01*
X1754660Y1687860D02*
X1753599Y1688920D01*
X2091520Y1612430D02*
X2090459Y1611370D01*
X2078263Y1612430D02*
X2079323Y1611370D01*
X2078263Y1599173D02*
X2079323Y1600234D01*
X2091520Y1599173D02*
X2090459Y1600234D01*
X1876379Y1700576D02*
X1875318Y1699515D01*
X1870015Y1700576D02*
X1871076Y1699515D01*
X1876379Y1694212D02*
X1875318Y1695272D01*
X1845383Y1508290D02*
X1844323Y1507230D01*
X1839365Y1508290D02*
X1840425Y1507230D01*
X1839365Y1502271D02*
X1840425Y1503332D01*
X1845383Y1502271D02*
X1844323Y1503332D01*
X1908426Y1692627D02*
X1909486Y1693687D01*
X1914444Y1692627D02*
X1913384Y1693687D01*
X1914444Y1698646D02*
X1913384Y1697585D01*
X1908426Y1698646D02*
X1909486Y1697585D01*
X2000762Y1619210D02*
X1999702Y1618149D01*
X1994752Y1619210D02*
X1995813Y1618149D01*
X1994752Y1613200D02*
X1995813Y1614260D01*
X2000762Y1613200D02*
X1999702Y1614260D01*
X2002049Y1603520D02*
X2000989Y1602459D01*
X1996039Y1603520D02*
X1997100Y1602459D01*
X1996039Y1597510D02*
X1997100Y1598570D01*
X2002049Y1597510D02*
X2000989Y1598570D01*
X2014437Y1592312D02*
X2013377Y1591251D01*
X2008427Y1592312D02*
X2009488Y1591251D01*
X2008427Y1586302D02*
X2009488Y1587362D01*
X2014437Y1586302D02*
X2013377Y1587362D01*
X2027312Y1592391D02*
X2026252Y1591330D01*
X2021302Y1592391D02*
X2022363Y1591330D01*
X2021302Y1586381D02*
X2022363Y1587441D01*
X2027312Y1586381D02*
X2026252Y1587441D01*
X1867973Y1631113D02*
X1866913Y1630052D01*
X1861963Y1631113D02*
X1863024Y1630052D01*
X1861963Y1625103D02*
X1863024Y1626163D01*
X1867973Y1625103D02*
X1866913Y1626163D01*
X1936461Y1567391D02*
X1935401Y1566330D01*
X1930451Y1567391D02*
X1931512Y1566330D01*
X1930451Y1561381D02*
X1931512Y1562441D01*
X1936461Y1561381D02*
X1935401Y1562441D01*
X1865849Y1593139D02*
X1864789Y1592078D01*
X1859839Y1593139D02*
X1860900Y1592078D01*
X1859839Y1587129D02*
X1860900Y1588189D01*
X1865849Y1587129D02*
X1864789Y1588189D01*
X1881905Y1566371D02*
X1880845Y1565310D01*
X1875895Y1566371D02*
X1876956Y1565310D01*
X1875895Y1560361D02*
X1876956Y1561421D01*
X1881905Y1560361D02*
X1880845Y1561421D01*
X1936387Y1576962D02*
X1935327Y1575901D01*
X1930377Y1576962D02*
X1931438Y1575901D01*
X1930377Y1570952D02*
X1931438Y1572012D01*
X1936387Y1570952D02*
X1935327Y1572012D01*
X1882148Y1576962D02*
X1881088Y1575901D01*
X1876138Y1576962D02*
X1877199Y1575901D01*
X1876138Y1570952D02*
X1877199Y1572012D01*
X1882148Y1570952D02*
X1881088Y1572012D01*
X1921219Y1542647D02*
X1920159Y1541586D01*
X1915209Y1542647D02*
X1916270Y1541586D01*
X1915209Y1536637D02*
X1916270Y1537697D01*
X1921219Y1536637D02*
X1920159Y1537697D01*
X1907982Y1542647D02*
X1906922Y1541586D01*
X1901972Y1542647D02*
X1903033Y1541586D01*
X1901972Y1536637D02*
X1903033Y1537697D01*
X1907982Y1536637D02*
X1906922Y1537697D01*
X2039496Y1643135D02*
X2038436Y1642074D01*
X2033486Y1643135D02*
X2034547Y1642074D01*
X2033486Y1637125D02*
X2034547Y1638185D01*
X2039496Y1637125D02*
X2038436Y1638185D01*
X2040154Y1580364D02*
X2039094Y1579303D01*
X2034144Y1580364D02*
X2035205Y1579303D01*
X2034144Y1574354D02*
X2035205Y1575414D01*
X2040154Y1574354D02*
X2039094Y1575414D01*
X1978766Y1652108D02*
X1977706Y1651047D01*
X1972756Y1652108D02*
X1973817Y1651047D01*
X1972756Y1646098D02*
X1973817Y1647158D01*
X1978766Y1646098D02*
X1977706Y1647158D01*
X1923076Y1637831D02*
X1924137Y1636770D01*
X1923076Y1631821D02*
X1924137Y1632881D01*
X1929086Y1631821D02*
X1928026Y1632881D01*
X1912164Y1672776D02*
X1911104Y1671715D01*
X1906154Y1672776D02*
X1907215Y1671715D01*
X1912164Y1666766D02*
X1911104Y1667826D01*
X1918472Y1621020D02*
X1917412Y1619959D01*
X1912462Y1615010D02*
X1913523Y1616070D01*
X1918472Y1615010D02*
X1917412Y1616070D01*
G54D135*
X1857428Y1678257D03*
Y1672057D03*
X1849081Y1678290D03*
Y1672090D03*
G54D136*
X1976186Y1617224D03*
X2096687Y1644199D03*
X1918437Y1665183D03*
X1943945Y1599654D03*
X1941435Y1695636D03*
X1931435D03*
X1921435D03*
X1911435D03*
X1842374Y1505281D03*
X1882132Y1504833D03*
X1863178Y1503992D03*
X1846022Y1652344D03*
X1845982Y1599453D03*
X2108206Y1543758D03*
X2118206D03*
X2128206D03*
X2138206D03*
G54D137*
X1819421Y1705767D03*
Y1696767D03*
G54D138*
X1958291Y1639047D03*
Y1658260D03*
G54D141*
X2084891Y1605802D03*
X1748031Y1694488D03*
Y1505512D03*
X1633858Y1640651D03*
Y1565575D03*
X2234564Y1605802D03*
G54D157*
X1915017Y1623556D03*
Y1626115D03*
Y1628674D03*
Y1631233D03*
Y1633792D03*
Y1636351D03*
Y1638911D03*
Y1641470D03*
Y1644029D03*
Y1646588D03*
Y1649147D03*
Y1651706D03*
X1938048D03*
Y1649147D03*
Y1646588D03*
Y1644029D03*
Y1641470D03*
Y1638911D03*
Y1636351D03*
Y1633792D03*
Y1631233D03*
Y1628674D03*
Y1626115D03*
Y1623556D03*
G74*
X0Y0D02*
M02*
