*
*
G04 PADS 9.5 Build Number: 522968 generated Gerber (RS-274-X) file*
G04 PC Version=2.1*
*
%IN "ohm1.pcb"*%
*
%MOIN*%
*
%FSLAX35Y35*%
*
*
*
*
G04 PC Standard Apertures*
*
*
G04 Thermal Relief Aperture macro.*
%AMTER*
1,1,$1,0,0*
1,0,$1-$2,0,0*
21,0,$3,$4,0,0,45*
21,0,$3,$4,0,0,135*
%
*
*
G04 Annular Aperture macro.*
%AMANN*
1,1,$1,0,0*
1,0,$2,0,0*
%
*
*
G04 Odd Aperture macro.*
%AMODD*
1,1,$1,0,0*
1,0,$1-0.005,0,0*
%
*
*
G04 PC Custom Aperture Macros*
*
*
*
*
*
*
G04 PC Aperture Table*
*
%ADD010C,0.001*%
%ADD013C,0.01*%
%ADD133R,0.062X0.062*%
%ADD134C,0.062*%
%ADD148C,0.05712*%
%ADD149C,0.15948*%
%ADD150C,0.06106*%
%ADD151R,0.052X0.062*%
%ADD152R,0.04X0.032*%
%ADD153R,0.032X0.04*%
%ADD154C,0.092*%
%ADD156R,0.10137X0.10137*%
%ADD157C,0.10137*%
%ADD159R,0.062X0.052*%
*
*
*
*
G04 PC Circuitry*
G04 Layer Name ohm1.pcb - circuitry*
%LPD*%
*
*
G04 PC Custom Flashes*
G04 Layer Name ohm1.pcb - flashes*
%LPD*%
*
*
G04 PC Circuitry*
G04 Layer Name ohm1.pcb - circuitry*
%LPD*%
*
G54D10*
G54D13*
G01X1606299Y1481890D02*
Y1718110D01*
X2248031*
Y1647244*
X2393701*
Y1576378*
X2342520*
Y1481890*
X1606299*
G54D133*
X2111357Y1701580D03*
X1994288Y1504221D03*
G54D134*
X1833197Y1697394D03*
Y1707394D03*
X1843197Y1697394D03*
Y1707394D03*
X1853197Y1697394D03*
Y1707394D03*
X1863197Y1697394D03*
Y1707394D03*
X1873197Y1697394D03*
Y1707394D03*
X1883197Y1697394D03*
Y1707394D03*
X1893197Y1697394D03*
Y1707394D03*
X2111357Y1691580D03*
X2121357D03*
Y1701580D03*
X2131357Y1691580D03*
Y1701580D03*
X2141357Y1691580D03*
Y1701580D03*
X2151357Y1691580D03*
Y1701580D03*
X2161357Y1691580D03*
Y1701580D03*
X2171357Y1691580D03*
Y1701580D03*
X2181357Y1691580D03*
Y1701580D03*
X2191357Y1691580D03*
Y1701580D03*
X2201357Y1691580D03*
Y1701580D03*
X2211357Y1691580D03*
Y1701580D03*
X2221357Y1691580D03*
Y1701580D03*
X2231357Y1691580D03*
Y1701580D03*
X1994288Y1554221D03*
X2016206Y1504218D03*
Y1554218D03*
X2191659Y1506353D03*
X2201659D03*
X2152693D03*
X2162693D03*
G54D148*
X2111207Y1664820D03*
X2077772Y1537531D03*
X1980303Y1622134D03*
X1983701Y1692933D03*
X1973701D03*
X1963701D03*
X1953701D03*
X1947124Y1633997D03*
X1919920Y1599206D03*
X1917752Y1535102D03*
X1903467Y1580159D03*
X1846022Y1652344D03*
X1845982Y1599453D03*
X2108206Y1543758D03*
X2118206D03*
X2128206D03*
X2138206D03*
G54D149*
X2084891Y1605802D03*
X1748031Y1694488D03*
Y1505512D03*
X1633858Y1640651D03*
Y1565575D03*
X2234564Y1605802D03*
G54D150*
X1960900Y1664315D03*
Y1645102D03*
G54D151*
X1924089Y1669066D03*
Y1678066D03*
G54D152*
X1919991Y1613871D03*
X1926191D03*
X1919991Y1633755D03*
X1926191D03*
X1980015Y1645085D03*
X1973815D03*
X1980457Y1664331D03*
X1974257D03*
X2094862Y1701554D03*
X2088662D03*
G54D153*
X1933562Y1669084D03*
Y1675284D03*
G54D154*
X1686559Y1640602D03*
Y1565602D03*
X1806559Y1640602D03*
Y1615602D03*
Y1590602D03*
Y1565602D03*
G54D156*
X1888404Y1517743D03*
X2048348Y1537428D03*
G54D157*
X1888404D03*
X2048348Y1517743D03*
G54D159*
X1921091Y1624152D03*
X1930091D03*
X0Y0D02*
M02*
