%
T1C.035F197S55
X-146283Y-164406
X-144315Y-164406
X-135846Y-165673
X-135846Y-160673
X-132194Y-160669
X-132194Y-158701
X-107494Y-149031
X-107494Y-148031
X-108494Y-149031
X-108494Y-148031
X-109494Y-149031
X-109494Y-148031
X-110494Y-149031
X-110494Y-148031
X-111494Y-149031
X-111494Y-148031
X-112494Y-149031
X-112494Y-148031
X-113494Y-149031
X-113494Y-148031
X-114494Y-149031
X-114494Y-148031
X-115494Y-149031
X-115494Y-148031
X-116494Y-149031
X-116494Y-148031
X-117494Y-149031
X-117494Y-148031
X-118494Y-149031
X-118494Y-148031
X-119494Y-149031
X-119494Y-148031
X-14131Y-14845
X-14231Y-14845
X-14331Y-14845
X-14431Y-14845
X-14531Y-14845
X-14631Y-14845
X-14731Y-14845
X-14731Y-14745
X-14631Y-14745
X-14531Y-14745
X-14431Y-14745
X-14331Y-14745
X-14231Y-14745
X-14131Y-14745
T2C.037F197S55
X-14274Y-161852
X-142716Y-160793
X-140132Y-164225
X-138809Y-164225
X-137292Y-160793
X-137284Y-16175
X-132207Y-162524
X-132207Y-165673
X-126915Y-160453
X-115361Y-167554
X-114361Y-167554
X-111464Y-167554
X-110464Y-167554
X-126981Y-154176
X-128199Y-15925
X-129487Y-159258
X-130726Y-158138
X-130854Y-156569
X-133054Y-153279
X-137465Y-153394
X-138022Y-154706
X-139083Y-156388
X-140003Y-153693
X-140138Y-154394
X-140308Y-155143
X-141035Y-155077
X-144133Y-155378
X-144346Y-159176
X-144914Y-151909
X-139714Y-151212
T3C.03937F197S55
X-146393Y-167661
X-146032Y-158244
X-144312Y-16779
X-142417Y-167706
X-136235Y-158224
X-119809Y-163813
X-118809Y-163813
X-117809Y-163813
X-116809Y-163813
X-120961Y-153769
X-133011Y-156467
X-134801Y-154284
X-134801Y-152363
X-136486Y-148625
X-137486Y-148625
X-138486Y-148625
X-138786Y-151671
X-139486Y-148625
X-146028Y-152955
T4C.06F089S55
X-161974Y-161629
X-161974Y-154129
X-149974Y-159129
X-149974Y-156629
X-149974Y-154129
X-149974Y-161629
T5C.11417F069S658
X-167244Y-161631
X-167244Y-154124
X-155827Y-167638
X-122141Y-157609
X-107173Y-157609
X-155827Y-14874
M30
