%
T1C.035F197S55
X-14179Y-166415
X-14179Y-164446
X-131201Y-167767
X-131201Y-162767
X-125795Y-164446
X-125795Y-166415
X-107494Y-149031
X-107494Y-148031
X-108494Y-149031
X-108494Y-148031
X-109494Y-149031
X-109494Y-148031
X-110494Y-149031
X-110494Y-148031
X-111494Y-149031
X-111494Y-148031
X-112494Y-149031
X-112494Y-148031
X-113494Y-149031
X-113494Y-148031
X-114494Y-149031
X-114494Y-148031
X-115494Y-149031
X-115494Y-148031
X-116494Y-149031
X-116494Y-148031
X-117494Y-149031
X-117494Y-148031
X-118494Y-149031
X-118494Y-148031
X-119494Y-149031
X-119494Y-148031
X-14131Y-14845
X-14231Y-14845
X-14331Y-14845
X-14431Y-14845
X-14531Y-14845
X-14631Y-14845
X-14731Y-14845
X-14731Y-14745
X-14631Y-14745
X-14531Y-14745
X-14431Y-14745
X-14331Y-14745
X-14231Y-14745
X-14131Y-14745
T2C.037F197S55
X-138272Y-16224
X-138249Y-16142
X-135684Y-164592
X-134361Y-166993
X-13305Y-162374
X-133033Y-161579
X-129009Y-162767
X-129009Y-167767
X-115361Y-167554
X-114361Y-167554
X-111464Y-167554
X-11125Y-1667
X-110464Y-167554
X-123407Y-155614
X-125677Y-158143
X-125766Y-156599
X-126789Y-159364
X-127561Y-159346
X-128278Y-159346
X-129518Y-158136
X-129644Y-156607
X-131061Y-155555
X-134389Y-159531
X-136539Y-155774
X-136902Y-159506
X-137254Y-156802
X-139227Y-155782
X-144541Y-155682
X-145722Y-151713
X-14375Y-15315
X-13866Y-153295
X-138575Y-15225
X-13805Y-153203
X-137268Y-152253
X-13708Y-154814
X-13635Y-152
X-1354Y-15135
X-1354Y-15015
X-134787Y-151178
X-129383Y-15015
X-122785Y-148045
X-121778Y-149064
T3C.03937F197S55
X-146032Y-158244
X-140283Y-160173
X-138855Y-164679
X-138638Y-158268
X-122853Y-164436
X-119809Y-163813
X-118809Y-163813
X-117809Y-163813
X-116809Y-163813
X-119509Y-151707
X-13226Y-148896
X-1326Y-155976
X-13326Y-148896
X-13426Y-148896
X-13454Y-151757
X-13454Y-153679
X-13526Y-148896
X-135918Y-154789
X-146028Y-152955
T4C.06F089S55
X-161974Y-161629
X-161974Y-154129
X-149974Y-159129
X-149974Y-156629
X-149974Y-154129
X-149974Y-161629
T5C.11417F069S658
X-167244Y-161631
X-167244Y-154124
X-155827Y-167638
X-122141Y-157609
X-107173Y-157609
X-155827Y-14874
M30
