*
*
G04 PADS 9.5 Build Number: 522968 generated Gerber (RS-274-X) file*
G04 PC Version=2.1*
*
%IN "ohm1.pcb"*%
*
%MOIN*%
*
%FSLAX35Y35*%
*
*
*
*
G04 PC Standard Apertures*
*
*
G04 Thermal Relief Aperture macro.*
%AMTER*
1,1,$1,0,0*
1,0,$1-$2,0,0*
21,0,$3,$4,0,0,45*
21,0,$3,$4,0,0,135*
%
*
*
G04 Annular Aperture macro.*
%AMANN*
1,1,$1,0,0*
1,0,$2,0,0*
%
*
*
G04 Odd Aperture macro.*
%AMODD*
1,1,$1,0,0*
1,0,$1-0.005,0,0*
%
*
*
G04 PC Custom Aperture Macros*
*
*
*
*
*
*
G04 PC Aperture Table*
*
%ADD010C,0.001*%
%ADD011C,0.00787*%
%ADD013C,0.01*%
%ADD047C,0.012*%
*
*
*
*
G04 PC Circuitry*
G04 Layer Name ohm1.pcb - circuitry*
%LPD*%
*
*
G04 PC Custom Flashes*
G04 Layer Name ohm1.pcb - flashes*
%LPD*%
*
*
G04 PC Circuitry*
G04 Layer Name ohm1.pcb - circuitry*
%LPD*%
*
G54D10*
G01X1815329Y1674436D02*
X1677829D01*
Y1536936*
X1815329*
Y1674436*
G54D11*
X1868773Y1537828D02*
G75*
G03X1868773I-15463J0D01*
G01X1868696Y1539372D02*
X1870628D01*
Y1536284*
X1868696*
X1858697Y1564743D02*
X1852410D01*
Y1565825*
X1850614*
Y1564743*
X1844327*
Y1582066*
X1858697*
Y1564743*
X1999821Y1585041D02*
G03X1999821I-15463J0D01*
G01X1985902Y1569655D02*
Y1567722D01*
X1982815*
Y1569655*
G54D13*
X1911555Y1648556D02*
Y1642756D01*
X1918555*
Y1648556*
X1911555Y1650956D02*
Y1656756D01*
X1918555*
Y1650956*
X1864275Y1637087D02*
X1870075D01*
Y1644087*
X1864275*
X1861875Y1637087D02*
X1856075D01*
Y1644087*
X1861875*
X2171958Y1508224D02*
Y1502424D01*
X2178958*
Y1508224*
X2171958Y1510624D02*
Y1516424D01*
X2178958*
Y1510624*
X2093026Y1698005D02*
X2098826D01*
Y1705005*
X2093026*
X2090626Y1698005D02*
X2084826D01*
Y1705005*
X2090626*
X1929177Y1649620D02*
Y1655420D01*
X1922177*
Y1649620*
X1929177Y1647220D02*
Y1641420D01*
X1922177*
Y1647220*
X1923305Y1619457D02*
Y1611457D01*
X1932305*
Y1619457*
X1923305Y1622457D02*
Y1630457D01*
X1932305*
Y1622457*
X1918901Y1630511D02*
Y1636311D01*
X1911901*
Y1630511*
X1918901Y1628111D02*
Y1622311D01*
X1911901*
Y1628111*
X1945853Y1619947D02*
X1940053D01*
Y1612947*
X1945853*
X1948253Y1619947D02*
X1954053D01*
Y1612947*
X1948253*
X1973898Y1635531D02*
X1979698D01*
X1979698D02*
Y1642531D01*
X1979698D02*
X1973898D01*
X1971498Y1635531D02*
X1965698D01*
X1965698D02*
Y1642531D01*
X1965698D02*
X1971498D01*
X1973456Y1654776D02*
X1979256D01*
Y1661776*
X1973456*
X1971056Y1654776D02*
X1965256D01*
Y1661776*
X1971056*
X1891551Y1629129D02*
Y1634929D01*
X1884551*
Y1629129*
X1891551Y1626729D02*
Y1620929D01*
X1884551*
Y1626729*
X1847915Y1619150D02*
X1842115D01*
Y1612150*
X1847915*
X1850315Y1619150D02*
X1856115D01*
Y1612150*
X1850315*
X2043149Y1581892D02*
X2051149D01*
Y1590892*
X2043149*
X2040149Y1581892D02*
X2032149D01*
Y1590892*
X2040149*
X2042492Y1625949D02*
X2050492D01*
Y1634949*
X2042492*
X2039492Y1625949D02*
X2031492D01*
Y1634949*
X2039492*
X1947835Y1535156D02*
Y1530156D01*
X1942835Y1542156D02*
X1952835D01*
Y1535156D02*
X1942835D01*
Y1565156*
X1952835*
Y1535156*
X1947835Y1565156D02*
Y1570156D01*
X1952835Y1540156D02*
X1942835D01*
X1952835Y1541156D02*
X1942835D01*
X1877083Y1638296D02*
Y1644096D01*
X1870083*
Y1638296*
X1877083Y1635896D02*
Y1630096D01*
X1870083*
Y1635896*
X1877083Y1620294D02*
Y1626094D01*
X1870083*
Y1620294*
X1877083Y1617894D02*
Y1612094D01*
X1870083*
Y1617894*
X1864275Y1612150D02*
X1870075D01*
Y1619150*
X1864275*
X1861875Y1612150D02*
X1856075D01*
Y1619150*
X1861875*
X1848680Y1626965D02*
Y1621165D01*
X1855680*
Y1626965*
X1848680Y1629365D02*
Y1635165D01*
X1855680*
Y1629365*
X1850315Y1637087D02*
X1856115D01*
Y1644087*
X1850315*
X1847915Y1637087D02*
X1842115D01*
Y1644087*
X1847915*
X2006668Y1525156D02*
G03X2006668I-22441J0D01*
G01X2216371Y1508212D02*
Y1502412D01*
X2223371*
Y1508212*
X2216371Y1510612D02*
Y1516412D01*
X2223371*
Y1510612*
X1907917Y1652154D02*
X1908542Y1652382D01*
X1909167Y1652836*
X1909480Y1653291*
Y1654200*
X1909167Y1654654*
X1908542Y1655109*
X1907917Y1655336*
X1906980Y1655564*
X1905417*
X1904480Y1655336*
X1903855Y1655109*
X1903230Y1654654*
X1902917Y1654200*
Y1653291*
X1903230Y1652836*
X1903855Y1652382*
X1904480Y1652154*
X1908230Y1650109D02*
X1908542Y1649654D01*
X1909480Y1648973*
X1902917*
X1909480Y1644654D02*
X1905105Y1646927D01*
Y1643518*
X1909480Y1644654D02*
X1902917D01*
X1858728Y1652958D02*
Y1646395D01*
Y1652958D02*
X1860774D01*
X1861456Y1652645*
X1861683Y1652333*
X1861910Y1651708*
Y1651083*
X1861683Y1650458*
X1861456Y1650145*
X1860774Y1649833*
X1858728*
X1860319D02*
X1861910Y1646395D01*
X1867137Y1652958D02*
X1864865Y1646395D01*
X1863956Y1652958D02*
X1867137D01*
X2171939Y1520063D02*
X2178501D01*
X2171939D02*
Y1522108D01*
X2172251Y1522790*
X2172564Y1523018*
X2173189Y1523245*
X2173814*
X2174439Y1523018*
X2174751Y1522790*
X2175064Y1522108*
Y1520063*
Y1521654D02*
X2178501Y1523245D01*
X2174126Y1528245D02*
X2175064Y1528018D01*
X2175689Y1527563*
X2176001Y1526881*
Y1526654*
X2175689Y1525972*
X2175064Y1525518*
X2174126Y1525290*
X2173814*
X2172876Y1525518*
X2172251Y1525972*
X2171939Y1526654*
Y1526881*
X2172251Y1527563*
X2172876Y1528018*
X2174126Y1528245*
X2175689*
X2177251Y1528018*
X2178189Y1527563*
X2178501Y1526881*
Y1526427*
X2178189Y1525745*
X2177564Y1525518*
X1961297Y1645657D02*
X1959479Y1648782D01*
X1959479D02*
Y1652219D01*
X1957661Y1645657D02*
X1959479Y1648782D01*
X1955615Y1646907D02*
X1955161Y1646594D01*
X1954479Y1645657*
X1954479D02*
Y1652219D01*
X1885698Y1641726D02*
X1885471Y1642351D01*
X1885016Y1642976*
X1884561Y1643288*
X1883652*
X1883198Y1642976*
X1882743Y1642351*
X1882516Y1641726*
X1882289Y1640788*
Y1639226*
X1882516Y1638288*
X1882743Y1637663*
X1883198Y1637038*
X1883652Y1636726*
X1884561*
X1885016Y1637038*
X1885471Y1637663*
X1885698Y1638288*
X1887743Y1642038D02*
X1888198Y1642351D01*
X1888880Y1643288*
Y1636726*
X1891380Y1643288D02*
X1893880D01*
X1892516Y1640788*
X1893198*
X1893652Y1640476*
X1893880Y1640163*
X1894107Y1639226*
Y1638601*
X1893880Y1637663*
X1893425Y1637038*
X1892743Y1636726*
X1892061*
X1891380Y1637038*
X1891152Y1637351*
X1890925Y1637976*
X1844486Y1610233D02*
Y1603671D01*
Y1610233D02*
X1846531D01*
X1847213Y1609921*
X1847440Y1609608*
X1847667Y1608983*
Y1608358*
X1847440Y1607733*
X1847213Y1607421*
X1846531Y1607108*
X1844486*
X1846076D02*
X1847667Y1603671D01*
X1851986Y1610233D02*
X1849713Y1605858D01*
X1853122*
X1851986Y1610233D02*
Y1603671D01*
X2041304Y1578024D02*
X2041077Y1578649D01*
X2040622Y1579274*
X2040168Y1579586*
X2039259*
X2038804Y1579274*
X2038350Y1578649*
X2038122Y1578024*
X2037895Y1577086*
Y1575524*
X2038122Y1574586*
X2038350Y1573961*
X2038804Y1573336*
X2039259Y1573024*
X2040168*
X2040622Y1573336*
X2041077Y1573961*
X2041304Y1574586*
X2045622Y1579586D02*
X2043350Y1575211D01*
X2046759*
X2045622Y1579586D02*
Y1573024D01*
X2040017Y1642919D02*
X2039789Y1643544D01*
X2039335Y1644169*
X2038880Y1644481*
X2037971*
X2037517Y1644169*
X2037062Y1643544*
X2036835Y1642919*
X2036608Y1641981*
Y1640419*
X2036835Y1639481*
X2037062Y1638856*
X2037517Y1638231*
X2037971Y1637919*
X2038880*
X2039335Y1638231*
X2039789Y1638856*
X2040017Y1639481*
X2045017Y1644481D02*
X2042744D01*
X2042517Y1641669*
X2042744Y1641981*
X2043426Y1642294*
X2044108*
X2044789Y1641981*
X2045244Y1641356*
X2045471Y1640419*
X2045244Y1639794*
X2045017Y1638856*
X2044562Y1638231*
X2043880Y1637919*
X2043199*
X2042517Y1638231*
X2042289Y1638544*
X2042062Y1639169*
X2000091Y1616982D02*
X1993528D01*
X2000091D02*
Y1614936D01*
X1999778Y1614254*
X1999466Y1614027*
X1998841Y1613800*
X1998216*
X1997591Y1614027*
X1997278Y1614254*
X1996966Y1614936*
Y1616982*
Y1615391D02*
X1993528Y1613800D01*
X2000091Y1611754D02*
X1993528D01*
X2000091D02*
Y1608800D01*
X1996966Y1611754D02*
Y1609936D01*
X1993528Y1611754D02*
Y1608800D01*
X1998528Y1603345D02*
X1999153Y1603573D01*
X1999778Y1604027*
X2000091Y1604482*
Y1605391*
X1999778Y1605845*
X1999153Y1606300*
X1998528Y1606527*
X1997591Y1606754*
X1996028*
X1995091Y1606527*
X1994466Y1606300*
X1993841Y1605845*
X1993528Y1605391*
Y1604482*
X1993841Y1604027*
X1994466Y1603573*
X1995091Y1603345*
X1996028*
Y1604482D02*
Y1603345D01*
X1998528Y1601073D02*
X1998841D01*
X1999466Y1600845*
X1999778Y1600618*
X2000091Y1600163*
Y1599254*
X1999778Y1598800*
X1999466Y1598573*
X1998841Y1598345*
X1998216*
X1997591Y1598573*
X1996653Y1599027*
X1993528Y1601300*
Y1598118*
X1896506Y1595101D02*
Y1588539D01*
Y1595101D02*
X1898552D01*
X1899234Y1594789*
X1899461Y1594476*
X1899688Y1593851*
Y1593226*
X1899461Y1592601*
X1899234Y1592289*
X1898552Y1591976*
X1896506*
X1898097D02*
X1899688Y1588539D01*
X1901734Y1595101D02*
Y1588539D01*
Y1595101D02*
X1904688D01*
X1901734Y1591976D02*
X1903552D01*
X1901734Y1588539D02*
X1904688D01*
X1910143Y1593539D02*
X1909915Y1594164D01*
X1909461Y1594789*
X1909006Y1595101*
X1908097*
X1907643Y1594789*
X1907188Y1594164*
X1906961Y1593539*
X1906734Y1592601*
Y1591039*
X1906961Y1590101*
X1907188Y1589476*
X1907643Y1588851*
X1908097Y1588539*
X1909006*
X1909461Y1588851*
X1909915Y1589476*
X1910143Y1590101*
Y1591039*
X1909006D02*
X1910143D01*
X1912188Y1593851D02*
X1912643Y1594164D01*
X1913325Y1595101*
Y1588539*
X1943701Y1548784D02*
X1950263D01*
X1943701D02*
Y1550375D01*
X1944013Y1551057*
X1944638Y1551512*
X1945263Y1551739*
X1946201Y1551966*
X1947763*
X1948701Y1551739*
X1949326Y1551512*
X1949951Y1551057*
X1950263Y1550375*
Y1548784*
X1944951Y1554012D02*
X1944638Y1554466D01*
X1943701Y1555148*
X1950263*
X1851064Y1537929D02*
X1850439Y1537702D01*
X1849814Y1537247*
X1849502Y1536792*
Y1535883*
X1849814Y1535429*
X1850439Y1534974*
X1851064Y1534747*
X1852002Y1534520*
X1853564*
X1854502Y1534747*
X1855127Y1534974*
X1855752Y1535429*
X1856064Y1535883*
Y1536792*
X1855752Y1537247*
X1855127Y1537702*
X1854502Y1537929*
X1850752Y1539974D02*
X1850439Y1540429D01*
X1849502Y1541111*
X1856064*
X1875675Y1651395D02*
X1875448Y1652020D01*
X1874994Y1652645*
X1874539Y1652958*
X1873630*
X1873175Y1652645*
X1872721Y1652020*
X1872494Y1651395*
X1872266Y1650458*
Y1648895*
X1872494Y1647958*
X1872721Y1647333*
X1873175Y1646708*
X1873630Y1646395*
X1874539*
X1874994Y1646708*
X1875448Y1647333*
X1875675Y1647958*
X1877721Y1651708D02*
X1878175Y1652020D01*
X1878857Y1652958*
Y1646395*
X1880903Y1651708D02*
X1881357Y1652020D01*
X1882039Y1652958*
Y1646395*
X1875675Y1609373D02*
X1875448Y1609998D01*
X1874994Y1610623*
X1874539Y1610935*
X1873630*
X1873175Y1610623*
X1873175D02*
X1872721Y1609998D01*
X1872494Y1609373*
X1872266Y1608435*
Y1606873*
X1872494Y1605935*
X1872721Y1605310*
X1873175Y1604685*
X1873175D02*
X1873630Y1604373D01*
X1874539*
X1874994Y1604685*
X1875448Y1605310*
X1875675Y1605935*
X1877721Y1609685D02*
X1878175Y1609998D01*
X1878175D02*
X1878857Y1610935D01*
Y1604373*
X1881130Y1609373D02*
Y1609685D01*
X1881357Y1610310*
X1881585Y1610623*
X1882039Y1610935*
X1882948*
X1883403Y1610623*
X1883630Y1610310*
X1883857Y1609685*
Y1609060*
X1883630Y1608435*
X1883175Y1607498*
X1883175D02*
X1880903Y1604373D01*
X1884085*
X1858598Y1610072D02*
Y1603509D01*
Y1610072D02*
X1860644D01*
X1861326Y1609759*
X1861553Y1609447*
X1861780Y1608822*
Y1608197*
X1861553Y1607572*
X1861326Y1607259*
X1860644Y1606947*
X1858598*
X1860189D02*
X1861780Y1603509D01*
X1864962Y1610072D02*
X1864280Y1609759D01*
X1864053Y1609134*
Y1608509*
X1864280Y1607884*
X1864735Y1607572*
X1865644Y1607259*
X1866326Y1606947*
X1866780Y1606322*
X1867008Y1605697*
Y1604759*
X1866780Y1604134*
X1866553Y1603822*
X1865871Y1603509*
X1864962*
X1864280Y1603822*
X1864053Y1604134*
X1863826Y1604759*
Y1605697*
X1864053Y1606322*
X1864508Y1606947*
X1865189Y1607259*
X1866098Y1607572*
X1866553Y1607884*
X1866780Y1608509*
Y1609134*
X1866553Y1609759*
X1865871Y1610072*
X1864962*
X1836749Y1630628D02*
Y1624066D01*
Y1630628D02*
X1838795D01*
X1839477Y1630316*
X1839704Y1630003*
X1839931Y1629378*
Y1628753*
X1839704Y1628128*
X1839477Y1627816*
X1838795Y1627503*
X1836749*
X1838340D02*
X1839931Y1624066D01*
X1844931Y1630628D02*
X1842658D01*
X1842431Y1627816*
X1842658Y1628128*
X1843340Y1628441*
X1844022*
X1844704Y1628128*
X1845158Y1627503*
X1845386Y1626566*
X1845158Y1625941*
X1844931Y1625003*
X1844477Y1624378*
X1843795Y1624066*
X1843113*
X1842431Y1624378*
X1842204Y1624691*
X1841977Y1625316*
X1844608Y1576479D02*
Y1569916D01*
Y1576479D02*
X1846653D01*
X1847335Y1576166*
X1847562Y1575854*
X1847789Y1575229*
Y1574604*
X1847562Y1573979*
X1847335Y1573666*
X1846653Y1573354*
X1844608*
X1846199D02*
X1847789Y1569916D01*
X1849835Y1576479D02*
Y1569916D01*
Y1576479D02*
X1852789D01*
X1849835Y1573354D02*
X1851653D01*
X1849835Y1569916D02*
X1852789D01*
X1858244Y1574916D02*
X1858017Y1575541D01*
X1857562Y1576166*
X1857108Y1576479*
X1856199*
X1855744Y1576166*
X1855289Y1575541*
X1855062Y1574916*
X1854835Y1573979*
Y1572416*
X1855062Y1571479*
X1855289Y1570854*
X1855744Y1570229*
X1856199Y1569916*
X1857108*
X1857562Y1570229*
X1858017Y1570854*
X1858244Y1571479*
X1844837Y1652430D02*
Y1645867D01*
Y1652430D02*
X1846883D01*
X1847565Y1652117*
X1847792Y1651805*
X1848019Y1651180*
Y1650555*
X1847792Y1649930*
X1847565Y1649617*
X1846883Y1649305*
X1844837*
X1846428D02*
X1848019Y1645867D01*
X1852792Y1651492D02*
X1852565Y1652117D01*
X1851883Y1652430*
X1851428*
X1850746Y1652117*
X1850292Y1651180*
X1850065Y1649617*
Y1648055*
X1850292Y1646805*
X1850746Y1646180*
X1851428Y1645867*
X1851655*
X1852337Y1646180*
X1852792Y1646805*
X1853019Y1647742*
Y1648055*
X1852792Y1648992*
X1852337Y1649617*
X1851655Y1649930*
X1851428*
X1850746Y1649617*
X1850292Y1648992*
X1850065Y1648055*
X1751034Y1628031D02*
X1744471D01*
X1751034Y1629622D02*
Y1626440D01*
Y1624395D02*
X1744471D01*
X1751034D02*
Y1622349D01*
X1750721Y1621668*
X1750409Y1621440*
X1749784Y1621213*
X1749159*
X1748534Y1621440*
X1748221Y1621668*
X1747909Y1622349*
Y1624395*
Y1622804D02*
X1744471Y1621213D01*
X1751034Y1617349D02*
X1744471Y1619168D01*
X1751034Y1617349D02*
X1744471Y1615531D01*
X1746659Y1618486D02*
Y1616213D01*
X1751034Y1613486D02*
X1744471D01*
X1751034D02*
X1744471Y1610304D01*
X1751034D02*
X1744471D01*
X1750096Y1605077D02*
X1750721Y1605531D01*
X1751034Y1606213*
Y1607122*
X1750721Y1607804*
X1750096Y1608258*
X1749471*
X1748846Y1608031*
X1748534Y1607804*
X1748221Y1607349*
X1747596Y1605986*
X1747284Y1605531*
X1746971Y1605304*
X1746346Y1605077*
X1745409*
X1744784Y1605531*
X1744471Y1606213*
Y1607122*
X1744784Y1607804*
X1745409Y1608258*
X1751034Y1603031D02*
X1744471D01*
X1751034D02*
Y1600077D01*
X1747909Y1603031D02*
Y1601213D01*
X1751034Y1596668D02*
X1750721Y1597122D01*
X1750096Y1597577*
X1749471Y1597804*
X1748534Y1598031*
X1746971*
X1746034Y1597804*
X1745409Y1597577*
X1744784Y1597122*
X1744471Y1596668*
Y1595758*
X1744784Y1595304*
X1745409Y1594849*
X1746034Y1594622*
X1746971Y1594395*
X1748534*
X1749471Y1594622*
X1750096Y1594849*
X1750721Y1595304*
X1751034Y1595758*
Y1596668*
Y1592349D02*
X1744471D01*
X1751034D02*
Y1590304D01*
X1750721Y1589622*
X1750409Y1589395*
X1749784Y1589168*
X1749159*
X1748534Y1589395*
X1748221Y1589622*
X1747909Y1590304*
Y1592349*
Y1590758D02*
X1744471Y1589168D01*
X1751034Y1587122D02*
X1744471D01*
X1751034D02*
X1744471Y1585304D01*
X1751034Y1583486D02*
X1744471Y1585304D01*
X1751034Y1583486D02*
X1744471D01*
X1751034Y1581440D02*
X1744471D01*
X1751034D02*
Y1578486D01*
X1747909Y1581440D02*
Y1579622D01*
X1744471Y1581440D02*
Y1578486D01*
X1751034Y1576440D02*
X1744471D01*
X1751034D02*
Y1574395D01*
X1750721Y1573713*
X1750409Y1573486*
X1749784Y1573258*
X1749159*
X1748534Y1573486*
X1748221Y1573713*
X1747909Y1574395*
Y1576440*
Y1574849D02*
X1744471Y1573258D01*
X2216456Y1518520D02*
X2223018D01*
X2216456D02*
Y1520565D01*
X2216768Y1521247*
X2217081Y1521474*
X2217706Y1521702*
X2218331*
X2218956Y1521474*
X2219268Y1521247*
X2219581Y1520565*
Y1518520*
Y1520111D02*
X2223018Y1521702D01*
X2217706Y1523747D02*
X2217393Y1524202D01*
X2216456Y1524883*
X2223018*
X2216456Y1528292D02*
X2216768Y1527611D01*
X2217706Y1527156*
X2219268Y1526929*
X2220206*
X2221768Y1527156*
X2222706Y1527611*
X2223018Y1528292*
Y1528747*
X2222706Y1529429*
X2221768Y1529883*
X2220206Y1530111*
X2219268*
X2217706Y1529883*
X2216768Y1529429*
X2216456Y1528747*
Y1528292*
X1985147Y1583663D02*
X1985375Y1583038D01*
X1985829Y1582413*
X1986284Y1582100*
X1987193*
X1987647Y1582413*
X1988102Y1583038*
X1988329Y1583663*
X1988556Y1584600*
Y1586163*
X1988329Y1587100*
X1988102Y1587725*
X1987647Y1588350*
X1987193Y1588663*
X1986284*
X1985829Y1588350*
X1985375Y1587725*
X1985147Y1587100*
X1982647Y1582100D02*
X1980147D01*
X1981511Y1584600*
X1980829*
X1980375Y1584913*
X1980147Y1585225*
X1979920Y1586163*
Y1586788*
X1980147Y1587725*
X1980602Y1588350*
X1981284Y1588663*
X1981966*
X1982647Y1588350*
X1982875Y1588038*
X1983102Y1587413*
X1619222Y1604597D02*
X1619676Y1604910D01*
X1620358Y1605847*
Y1599285*
X1622404Y1604597D02*
X1622858Y1604910D01*
X1623540Y1605847*
Y1599285*
X1628540Y1605847D02*
X1626267D01*
X1626040Y1603035*
X1626267Y1603347*
X1626949Y1603660*
X1627631*
X1628313Y1603347*
X1628767Y1602722*
X1628995Y1601785*
X1628767Y1601160*
X1628540Y1600222*
X1628085Y1599597*
X1627404Y1599285*
X1626722*
X1626040Y1599597*
X1625813Y1599910*
X1625585Y1600535*
X1631040Y1605847D02*
X1632858Y1599285D01*
X1634676Y1605847D02*
X1632858Y1599285D01*
X1643767Y1605847D02*
X1641949Y1599285D01*
X1643767Y1605847D02*
X1645585Y1599285D01*
X1642631Y1601472D02*
X1644904D01*
X1651040Y1604285D02*
X1650813Y1604910D01*
X1650358Y1605535*
X1649904Y1605847*
X1648995*
X1648540Y1605535*
X1648085Y1604910*
X1647858Y1604285*
X1647631Y1603347*
Y1601785*
X1647858Y1600847*
X1648085Y1600222*
X1648540Y1599597*
X1648995Y1599285*
X1649904*
X1650358Y1599597*
X1650813Y1600222*
X1651040Y1600847*
X2179805Y1589536D02*
X2179350Y1589224D01*
X2178895Y1588599*
X2178668Y1587974*
X2178441Y1587036*
Y1585474*
X2178668Y1584536*
X2178895Y1583911*
X2179350Y1583286*
X2179805Y1582974*
X2180714*
X2181168Y1583286*
X2181623Y1583911*
X2181850Y1584536*
X2182077Y1585474*
Y1587036*
X2181850Y1587974*
X2181623Y1588599*
X2181168Y1589224*
X2180714Y1589536*
X2179805*
X2184123D02*
Y1582974D01*
X2187305Y1589536D02*
Y1582974D01*
X2184123Y1586411D02*
X2187305D01*
X2189350Y1589536D02*
Y1582974D01*
Y1589536D02*
X2191168Y1582974D01*
X2192986Y1589536D02*
X2191168Y1582974D01*
X2192986Y1589536D02*
Y1582974D01*
X2195032Y1588286D02*
X2195486Y1588599D01*
X2196168Y1589536*
Y1582974*
X2217077Y1588599D02*
X2216623Y1589224D01*
X2215941Y1589536*
X2215032*
X2214350Y1589224*
X2213895Y1588599*
Y1587974*
X2214123Y1587349*
X2214350Y1587036*
X2214805Y1586724*
X2216168Y1586099*
X2216623Y1585786*
X2216850Y1585474*
X2217077Y1584849*
Y1583911*
X2216623Y1583286*
X2215941Y1582974*
X2215032*
X2214350Y1583286*
X2213895Y1583911*
X2219123Y1589536D02*
Y1582974D01*
X2221168Y1589536D02*
Y1582974D01*
Y1589536D02*
X2224350Y1582974D01*
Y1589536D02*
Y1582974D01*
X2178625Y1579792D02*
Y1573230D01*
Y1576355D02*
X2179306Y1577292D01*
X2179761Y1577605*
X2180443*
X2180897Y1577292*
X2181125Y1576355*
Y1573230*
X2183852Y1579792D02*
Y1574480D01*
X2184079Y1573542*
X2184534Y1573230*
X2184988*
X2183170Y1577605D02*
X2184761D01*
X2187716Y1579792D02*
Y1574480D01*
X2187943Y1573542*
X2188397Y1573230*
X2188852*
X2187034Y1577605D02*
X2188625D01*
X2190897D02*
Y1571042D01*
Y1576667D02*
X2191352Y1577292D01*
X2191806Y1577605*
X2192488*
X2192943Y1577292*
X2193397Y1576667*
X2193625Y1575730*
Y1575105*
X2193397Y1574167*
X2192943Y1573542*
X2192488Y1573230*
X2191806*
X2191352Y1573542*
X2190897Y1574167*
X2195897Y1577605D02*
X2195670Y1577292D01*
X2195897Y1576980*
X2196125Y1577292*
X2195897Y1577605*
Y1573855D02*
X2195670Y1573542D01*
X2195897Y1573230*
X2196125Y1573542*
X2195897Y1573855*
X2202261Y1581042D02*
X2198170Y1571042D01*
X2208397Y1581042D02*
X2204306Y1571042D01*
X2211579Y1577605D02*
X2211125Y1577292D01*
X2210670Y1576667*
X2210443Y1575730*
Y1575105*
X2210670Y1574167*
X2211125Y1573542*
X2211579Y1573230*
X2212261*
X2212716Y1573542*
X2213170Y1574167*
X2213397Y1575105*
Y1575730*
X2213170Y1576667*
X2212716Y1577292*
X2212261Y1577605*
X2211579*
X2215443D02*
Y1571042D01*
Y1576667D02*
X2215897Y1577292D01*
X2216352Y1577605*
X2217034*
X2217488Y1577292*
X2217943Y1576667*
X2218170Y1575730*
Y1575105*
X2217943Y1574167*
X2217488Y1573542*
X2217034Y1573230*
X2216352*
X2215897Y1573542*
X2215443Y1574167*
X2220216Y1575730D02*
X2222943D01*
Y1576355*
X2222716Y1576980*
X2222488Y1577292*
X2222034Y1577605*
X2221352*
X2220897Y1577292*
X2220443Y1576667*
X2220216Y1575730*
Y1575105*
X2220443Y1574167*
X2220897Y1573542*
X2221352Y1573230*
X2222034*
X2222488Y1573542*
X2222943Y1574167*
X2224988Y1577605D02*
Y1573230D01*
Y1576355D02*
X2225670Y1577292D01*
X2226125Y1577605*
X2226806*
X2227261Y1577292*
X2227488Y1576355*
Y1573230*
X2229534Y1577605D02*
Y1571042D01*
Y1576667D02*
X2229988Y1577292D01*
X2230443Y1577605*
X2231125*
X2231579Y1577292*
X2232034Y1576667*
X2232261Y1575730*
Y1575105*
X2232034Y1574167*
X2231579Y1573542*
X2231125Y1573230*
X2230443*
X2229988Y1573542*
X2229534Y1574167*
X2235443Y1577605D02*
X2234988Y1577292D01*
X2234534Y1576667*
X2234306Y1575730*
Y1575105*
X2234534Y1574167*
X2234988Y1573542*
X2235443Y1573230*
X2236125*
X2236579Y1573542*
X2237034Y1574167*
X2237261Y1575105*
Y1575730*
X2237034Y1576667*
X2236579Y1577292*
X2236125Y1577605*
X2235443*
X2239306D02*
X2240216Y1573230D01*
X2241125Y1577605D02*
X2240216Y1573230D01*
X2241125Y1577605D02*
X2242034Y1573230D01*
X2242943Y1577605D02*
X2242034Y1573230D01*
X2244988Y1575730D02*
X2247716D01*
Y1576355*
X2247488Y1576980*
X2247261Y1577292*
X2246806Y1577605*
X2246125*
X2245670Y1577292*
X2245216Y1576667*
X2244988Y1575730*
Y1575105*
X2245216Y1574167*
X2245670Y1573542*
X2246125Y1573230*
X2246806*
X2247261Y1573542*
X2247716Y1574167*
X2249761Y1577605D02*
Y1573230D01*
Y1575730D02*
X2249988Y1576667D01*
X2250443Y1577292*
X2250897Y1577605*
X2251579*
X2256352D02*
Y1571042D01*
Y1576667D02*
X2255897Y1577292D01*
X2255443Y1577605*
X2254761*
X2254306Y1577292*
X2253852Y1576667*
X2253625Y1575730*
Y1575105*
X2253852Y1574167*
X2254306Y1573542*
X2254761Y1573230*
X2255443*
X2255897Y1573542*
X2256352Y1574167*
X2258397Y1577605D02*
Y1574480D01*
X2258625Y1573542*
X2259079Y1573230*
X2259761*
X2260216Y1573542*
X2260897Y1574480*
Y1577605D02*
Y1573230D01*
X2265670Y1577605D02*
Y1573230D01*
Y1576667D02*
X2265216Y1577292D01*
X2264761Y1577605*
X2264079*
X2263625Y1577292*
X2263170Y1576667*
X2262943Y1575730*
Y1575105*
X2263170Y1574167*
X2263625Y1573542*
X2264079Y1573230*
X2264761*
X2265216Y1573542*
X2265670Y1574167*
X2267716Y1579792D02*
Y1573230D01*
X2269761Y1579792D02*
X2269988Y1579480D01*
X2270216Y1579792*
X2269988Y1580105*
X2269761Y1579792*
X2269988Y1577605D02*
Y1573230D01*
X2272943Y1579792D02*
Y1574480D01*
X2273170Y1573542*
X2273625Y1573230*
X2274079*
X2272261Y1577605D02*
X2273852D01*
X2276352D02*
X2277716Y1573230D01*
X2279079Y1577605D02*
X2277716Y1573230D01*
X2277261Y1571980*
X2276806Y1571355*
X2276352Y1571042*
X2276125*
X2281352Y1573855D02*
X2281125Y1573542D01*
X2281352Y1573230*
X2281579Y1573542*
X2281352Y1573855*
X2284761Y1577605D02*
X2284306Y1577292D01*
X2283852Y1576667*
X2283625Y1575730*
Y1575105*
X2283852Y1574167*
X2284306Y1573542*
X2284761Y1573230*
X2285443*
X2285897Y1573542*
X2286352Y1574167*
X2286579Y1575105*
Y1575730*
X2286352Y1576667*
X2285897Y1577292*
X2285443Y1577605*
X2284761*
X2288625D02*
Y1573230D01*
Y1575730D02*
X2288852Y1576667D01*
X2289306Y1577292*
X2289761Y1577605*
X2290443*
X2295216D02*
Y1572605D01*
X2294988Y1571667*
X2294761Y1571355*
X2294306Y1571042*
X2293625*
X2293170Y1571355*
X2295216Y1576667D02*
X2294761Y1577292D01*
X2294306Y1577605*
X2293625*
X2293170Y1577292*
X2292716Y1576667*
X2292488Y1575730*
Y1575105*
X2292716Y1574167*
X2293170Y1573542*
X2293625Y1573230*
X2294306*
X2294761Y1573542*
X2295216Y1574167*
X2301352Y1581042D02*
X2297261Y1571042D01*
X1606299Y1481890D02*
Y1718110D01*
X2248031*
Y1647244*
X2393701*
Y1576378*
X2342520*
Y1481890*
X1606299*
G54D47*
X2151746Y1578344D02*
Y1581029D01*
X2154210Y1581383*
X2154264Y1581724*
X2154854Y1583261*
X2155264Y1583891*
X2153762Y1585896*
X2155661Y1587795*
X2157666Y1586294*
X2158296Y1586703*
X2159833Y1587293*
X2160175Y1587347*
X2160529Y1589811*
X2163214*
X2163569Y1587339*
X2164693Y1587038*
X2166108Y1586317*
X2168081Y1587795*
X2169980Y1585896*
X2168502Y1583923*
X2169223Y1582508*
X2169524Y1581384*
X2171996Y1581029*
Y1578344*
X2169532Y1577989*
X2169478Y1577648*
X2168888Y1576111*
X2168479Y1575481*
X2169980Y1573476*
X2168081Y1571577*
X2166076Y1573079*
X2165446Y1572669*
X2165189Y1572571*
X2163056Y1577145*
X2163148Y1577180*
X2163641Y1577500*
X2164057Y1577916*
X2164377Y1578409*
X2164588Y1578958*
X2164680Y1579539*
X2164649Y1580126*
X2164497Y1580694*
X2164230Y1581218*
X2163860Y1581675*
X2163403Y1582045*
X2162879Y1582312*
X2162311Y1582464*
X2161724Y1582495*
X2161143Y1582403*
X2160594Y1582192*
X2160101Y1581872*
X2159685Y1581456*
X2159365Y1580963*
X2159154Y1580414*
X2159062Y1579833*
X2159093Y1579246*
X2159245Y1578678*
X2159512Y1578154*
X2159882Y1577697*
X2160339Y1577327*
X2160688Y1577149*
X2158559Y1572584*
X2157634Y1573055*
X2155661Y1571577*
X2153762Y1573476*
X2155240Y1575449*
X2154519Y1576864*
X2154218Y1577988*
X2151746Y1578344*
G74*
X0Y0D02*
M02*
