*
*
G04 PADS 9.5 Build Number: 522968 generated Gerber (RS-274-X) file*
G04 PC Version=2.1*
*
%IN "ohm1.pcb"*%
*
%MOIN*%
*
%FSLAX35Y35*%
*
*
*
*
G04 PC Standard Apertures*
*
*
G04 Thermal Relief Aperture macro.*
%AMTER*
1,1,$1,0,0*
1,0,$1-$2,0,0*
21,0,$3,$4,0,0,45*
21,0,$3,$4,0,0,135*
%
*
*
G04 Annular Aperture macro.*
%AMANN*
1,1,$1,0,0*
1,0,$2,0,0*
%
*
*
G04 Odd Aperture macro.*
%AMODD*
1,1,$1,0,0*
1,0,$1-0.005,0,0*
%
*
*
G04 PC Custom Aperture Macros*
*
*
*
*
*
*
G04 PC Aperture Table*
*
%ADD010C,0.001*%
%ADD011C,0.00787*%
%ADD013C,0.01*%
%ADD047C,0.012*%
*
*
*
*
G04 PC Circuitry*
G04 Layer Name ohm1.pcb - circuitry*
%LPD*%
*
*
G04 PC Custom Flashes*
G04 Layer Name ohm1.pcb - flashes*
%LPD*%
*
*
G04 PC Circuitry*
G04 Layer Name ohm1.pcb - circuitry*
%LPD*%
*
G54D10*
G01X1815329Y1674436D02*
X1677829D01*
Y1536936*
X1815329*
Y1674436*
G54D11*
X1908470Y1646882D02*
Y1653255D01*
X1910389*
Y1655076*
X1908470*
Y1661449*
X1939178*
Y1646882*
X1908470*
X1903867Y1527585D02*
G75*
G03X1903867I-15463J0D01*
G01X1889948Y1512199D02*
Y1510267D01*
X1886860*
Y1512199*
X1864585Y1564148D02*
X1858298D01*
Y1565231*
X1856502*
Y1564148*
X1850215*
Y1581471*
X1864585*
Y1564148*
X2063811Y1527585D02*
G03X2063811I-15463J0D01*
G01X2046804Y1542971D02*
Y1544904D01*
X2049892*
Y1542971*
G54D13*
X2009815Y1632030D02*
Y1640030D01*
X2000815*
Y1632030*
X2009815Y1629030D02*
Y1621030D01*
X2000815*
Y1629030*
X1994288Y1514221D02*
Y1509221D01*
X1989288Y1521221D02*
X1999288D01*
Y1514221D02*
X1989288D01*
Y1544221*
X1999288*
Y1514221*
X1994288Y1544221D02*
Y1549221D01*
X1999288Y1519221D02*
X1989288D01*
X1999288Y1520221D02*
X1989288D01*
X1923231Y1630241D02*
X1929031D01*
Y1637241*
X1923231*
X1920831Y1630241D02*
X1915031D01*
Y1637241*
X1920831*
X1891551Y1629129D02*
Y1634929D01*
X1884551*
Y1629129*
X1891551Y1626729D02*
Y1620929D01*
X1884551*
Y1626729*
X1877083Y1638296D02*
Y1644096D01*
X1870083*
Y1638296*
X1877083Y1635896D02*
Y1630096D01*
X1870083*
Y1635896*
X1877083Y1620294D02*
Y1626094D01*
X1870083*
Y1620294*
X1877083Y1617894D02*
Y1612094D01*
X1870083*
Y1617894*
X1864275Y1637087D02*
X1870075D01*
Y1644087*
X1864275*
X1861875Y1637087D02*
X1856075D01*
Y1644087*
X1861875*
X1864275Y1612150D02*
X1870075D01*
Y1619150*
X1864275*
X1861875Y1612150D02*
X1856075D01*
Y1619150*
X1861875*
X1860928Y1676357D02*
Y1682157D01*
X1853928*
Y1676357*
X1860928Y1673957D02*
Y1668157D01*
X1853928*
Y1673957*
X1848680Y1626965D02*
Y1621165D01*
X1855680*
Y1626965*
X1848680Y1629365D02*
Y1635165D01*
X1855680*
Y1629365*
X1852581Y1676390D02*
Y1682190D01*
X1845581*
Y1676390*
X1852581Y1673990D02*
Y1668190D01*
X1845581*
Y1673990*
X1847915Y1619150D02*
X1842115D01*
Y1612150*
X1847915*
X1850315Y1619150D02*
X1856115D01*
Y1612150*
X1850315*
Y1637087D02*
X1856115D01*
Y1644087*
X1850315*
X1847915Y1637087D02*
X1842115D01*
Y1644087*
X1847915*
X2016206Y1544218D02*
Y1549218D01*
X2021206Y1514218D02*
X2011206D01*
Y1544218*
X2021206*
Y1514218*
X2016206D02*
Y1509218D01*
X2216371Y1508212D02*
Y1502412D01*
X2223371*
Y1508212*
X2216371Y1510612D02*
Y1516412D01*
X2223371*
Y1510612*
X2171958Y1508224D02*
Y1502424D01*
X2178958*
Y1508224*
X2171958Y1510624D02*
Y1516424D01*
X2178958*
Y1510624*
X2066438Y1632397D02*
Y1640397D01*
X2057438*
Y1632397*
X2066438Y1629397D02*
Y1621397D01*
X2057438*
Y1629397*
X1941339Y1589916D02*
Y1583353D01*
Y1589916D02*
X1943384D01*
X1944066Y1589603*
X1944293Y1589291*
X1944520Y1588666*
Y1588041*
X1944293Y1587416*
X1944066Y1587103*
X1943384Y1586791*
X1941339*
X1942929D02*
X1944520Y1583353D01*
X1946566Y1589916D02*
Y1583353D01*
Y1589916D02*
X1949520D01*
X1946566Y1586791D02*
X1948384D01*
X1946566Y1583353D02*
X1949520D01*
X1954975Y1588353D02*
X1954748Y1588978D01*
X1954293Y1589603*
X1953839Y1589916*
X1952929*
X1952475Y1589603*
X1952020Y1588978*
X1951793Y1588353*
X1951566Y1587416*
Y1585853*
X1951793Y1584916*
X1952020Y1584291*
X1952475Y1583666*
X1952929Y1583353*
X1953839*
X1954293Y1583666*
X1954748Y1584291*
X1954975Y1584916*
Y1585853*
X1953839D02*
X1954975D01*
X1957020Y1588666D02*
X1957475Y1588978D01*
X1958157Y1589916*
Y1583353*
X2020552Y1589018D02*
Y1582455D01*
Y1589018D02*
X2022598D01*
X2023280Y1588705*
X2023507Y1588393*
X2023734Y1587768*
Y1587143*
X2023507Y1586518*
X2023280Y1586205*
X2022598Y1585893*
X2020552*
X2022143D02*
X2023734Y1582455D01*
X2025780Y1589018D02*
Y1582455D01*
Y1589018D02*
X2028734D01*
X2025780Y1585893D02*
X2027598D01*
X2025780Y1582455D02*
X2028734D01*
X2034189Y1587455D02*
X2033962Y1588080D01*
X2033507Y1588705*
X2033052Y1589018*
X2032143*
X2031689Y1588705*
X2031234Y1588080*
X2031007Y1587455*
X2030780Y1586518*
Y1584955*
X2031007Y1584018*
X2031234Y1583393*
X2031689Y1582768*
X2032143Y1582455*
X2033052*
X2033507Y1582768*
X2033962Y1583393*
X2034189Y1584018*
Y1584955*
X2033052D02*
X2034189D01*
X2036462Y1587455D02*
Y1587768D01*
X2036689Y1588393*
X2036916Y1588705*
X2037371Y1589018*
X2038280*
X2038734Y1588705*
X2038962Y1588393*
X2039189Y1587768*
Y1587143*
X2038962Y1586518*
X2038507Y1585580*
X2036234Y1582455*
X2039416*
X1957894Y1657706D02*
X1959712Y1654581D01*
Y1651143*
X1961530Y1657706D02*
X1959712Y1654581D01*
X1963576Y1656456D02*
X1964030Y1656768D01*
X1964712Y1657706*
Y1651143*
X1921511Y1605769D02*
Y1599206D01*
X1919920Y1605769D02*
X1923102D01*
X1925147Y1597956D02*
X1929920D01*
X1934238Y1605769D02*
X1931965D01*
X1931738Y1602956*
X1931965Y1603269*
X1932647Y1603581*
X1933329*
X1934011Y1603269*
X1934465Y1602644*
X1934693Y1601706*
X1934465Y1601081*
X1934238Y1600144*
X1933784Y1599519*
X1933102Y1599206*
X1932420*
X1931738Y1599519*
X1931511Y1599831*
X1931284Y1600456*
X1919343Y1541664D02*
Y1535102D01*
X1917752Y1541664D02*
X1920934D01*
X1922979Y1540414D02*
X1923434Y1540727D01*
X1924116Y1541664*
Y1535102*
X1991544Y1633990D02*
X1991317Y1634615D01*
X1991317D02*
X1990862Y1635240D01*
X1990862D02*
X1990408Y1635552D01*
X1989499*
X1989044Y1635240*
X1989044D02*
X1988590Y1634615D01*
X1988590D02*
X1988362Y1633990D01*
X1988362D02*
X1988135Y1633052D01*
Y1631490*
X1988135D02*
X1988362Y1630552D01*
X1988590Y1629927*
X1989044Y1629302*
X1989499Y1628990*
X1989499D02*
X1990408D01*
X1990408D02*
X1990862Y1629302D01*
X1991317Y1629927*
X1991544Y1630552*
X1996544Y1635552D02*
X1994272D01*
X1994044Y1632740*
X1994044D02*
X1994272Y1633052D01*
X1994953Y1633365*
X1994953D02*
X1995635D01*
X1995635D02*
X1996317Y1633052D01*
X1996772Y1632427*
X1996999Y1631490*
X1996999D02*
X1996772Y1630865D01*
X1996772D02*
X1996544Y1629927D01*
X1996090Y1629302*
X1995408Y1628990*
X1995408D02*
X1994726D01*
X1994726D02*
X1994044Y1629302D01*
X1993817Y1629615*
X1993817D02*
X1993590Y1630240D01*
X1990154Y1527849D02*
X1996717D01*
X1990154D02*
Y1529440D01*
X1990467Y1530122*
X1991092Y1530576*
X1991717Y1530804*
X1992654Y1531031*
X1994217*
X1995154Y1530804*
X1995779Y1530576*
X1996404Y1530122*
X1996717Y1529440*
Y1527849*
X1991404Y1533076D02*
X1991092Y1533531D01*
X1990154Y1534213*
X1996717*
X1919632Y1626604D02*
X1919405Y1627229D01*
X1918950Y1627854*
X1918496Y1628166*
X1917587*
X1917132Y1627854*
X1916678Y1627229*
X1916450Y1626604*
X1916223Y1625666*
Y1624104*
X1916450Y1623166*
X1916678Y1622541*
X1917132Y1621916*
X1917587Y1621604*
X1918496*
X1918950Y1621916*
X1919405Y1622541*
X1919632Y1623166*
X1921678Y1626916D02*
X1922132Y1627229D01*
X1922814Y1628166*
Y1621604*
X1927132Y1628166D02*
X1924859Y1623791D01*
X1928269*
X1927132Y1628166D02*
Y1621604D01*
X1917262Y1655984D02*
X1923824Y1654165D01*
X1917262Y1655984D02*
X1923824Y1657802D01*
X1921637Y1654847D02*
Y1657120D01*
X1917262Y1659847D02*
X1923824D01*
X1917262D02*
Y1662802D01*
X1920387Y1659847D02*
Y1661665D01*
X1917262Y1664847D02*
X1923824D01*
X1917262D02*
Y1667802D01*
X1920387Y1664847D02*
Y1666665D01*
X1923824Y1664847D02*
Y1667802D01*
X1918512Y1669847D02*
X1918199Y1670302D01*
X1917262Y1670984*
X1923824*
X1885698Y1641726D02*
X1885471Y1642351D01*
X1885016Y1642976*
X1884561Y1643288*
X1883652*
X1883198Y1642976*
X1882743Y1642351*
X1882516Y1641726*
X1882289Y1640788*
Y1639226*
X1882516Y1638288*
X1882743Y1637663*
X1883198Y1637038*
X1883652Y1636726*
X1884561*
X1885016Y1637038*
X1885471Y1637663*
X1885698Y1638288*
X1887743Y1642038D02*
X1888198Y1642351D01*
X1888880Y1643288*
Y1636726*
X1891380Y1643288D02*
X1893880D01*
X1892516Y1640788*
X1893198*
X1893652Y1640476*
X1893880Y1640163*
X1894107Y1639226*
Y1638601*
X1893880Y1637663*
X1893425Y1637038*
X1892743Y1636726*
X1892061*
X1891380Y1637038*
X1891152Y1637351*
X1890925Y1637976*
X1888505Y1529831D02*
X1888278Y1530456D01*
X1887823Y1531081*
X1887369Y1531393*
X1886459*
X1886005Y1531081*
X1885550Y1530456*
X1885323Y1529831*
X1885096Y1528893*
Y1527331*
X1885323Y1526393*
X1885550Y1525768*
X1886005Y1525143*
X1886459Y1524831*
X1887369*
X1887823Y1525143*
X1888278Y1525768*
X1888505Y1526393*
X1890550Y1530143D02*
X1891005Y1530456D01*
X1891687Y1531393*
Y1524831*
X1875675Y1651395D02*
X1875448Y1652020D01*
X1874994Y1652645*
X1874539Y1652958*
X1873630*
X1873175Y1652645*
X1872721Y1652020*
X1872494Y1651395*
X1872266Y1650458*
Y1648895*
X1872494Y1647958*
X1872721Y1647333*
X1873175Y1646708*
X1873630Y1646395*
X1874539*
X1874994Y1646708*
X1875448Y1647333*
X1875675Y1647958*
X1877721Y1651708D02*
X1878175Y1652020D01*
X1878857Y1652958*
Y1646395*
X1880903Y1651708D02*
X1881357Y1652020D01*
X1882039Y1652958*
Y1646395*
X1875675Y1609373D02*
X1875448Y1609998D01*
X1874994Y1610623*
X1874539Y1610935*
X1873630*
X1873175Y1610623*
X1873175D02*
X1872721Y1609998D01*
X1872494Y1609373*
X1872266Y1608435*
Y1606873*
X1872494Y1605935*
X1872721Y1605310*
X1873175Y1604685*
X1873175D02*
X1873630Y1604373D01*
X1874539*
X1874994Y1604685*
X1875448Y1605310*
X1875675Y1605935*
X1877721Y1609685D02*
X1878175Y1609998D01*
X1878175D02*
X1878857Y1610935D01*
Y1604373*
X1881130Y1609373D02*
Y1609685D01*
X1881357Y1610310*
X1881585Y1610623*
X1882039Y1610935*
X1882948*
X1883403Y1610623*
X1883630Y1610310*
X1883857Y1609685*
Y1609060*
X1883630Y1608435*
X1883175Y1607498*
X1883175D02*
X1880903Y1604373D01*
X1884085*
X1858728Y1652958D02*
Y1646395D01*
Y1652958D02*
X1860774D01*
X1861456Y1652645*
X1861683Y1652333*
X1861910Y1651708*
Y1651083*
X1861683Y1650458*
X1861456Y1650145*
X1860774Y1649833*
X1858728*
X1860319D02*
X1861910Y1646395D01*
X1867137Y1652958D02*
X1864865Y1646395D01*
X1863956Y1652958D02*
X1867137D01*
X1858904Y1610585D02*
Y1604022D01*
Y1610585D02*
X1860950D01*
X1861631Y1610272*
X1861859Y1609960*
X1862086Y1609335*
Y1608710*
X1861859Y1608085*
X1861631Y1607772*
X1860950Y1607460*
X1858904*
X1860495D02*
X1862086Y1604022D01*
X1865268Y1610585D02*
X1864586Y1610272D01*
X1864359Y1609647*
Y1609022*
X1864586Y1608397*
X1865041Y1608085*
X1865950Y1607772*
X1866631Y1607460*
X1867086Y1606835*
X1867313Y1606210*
Y1605272*
X1867086Y1604647*
X1866859Y1604335*
X1866177Y1604022*
X1865268*
X1864586Y1604335*
X1864359Y1604647*
X1864131Y1605272*
Y1606210*
X1864359Y1606835*
X1864813Y1607460*
X1865495Y1607772*
X1866404Y1608085*
X1866859Y1608397*
X1867086Y1609022*
Y1609647*
X1866859Y1610272*
X1866177Y1610585*
X1865268*
X1862125Y1665209D02*
X1855563D01*
X1862125D02*
Y1663163D01*
X1861813Y1662481*
X1861500Y1662254*
X1860875Y1662027*
X1860250*
X1859625Y1662254*
X1859313Y1662481*
X1859000Y1663163*
Y1665209*
Y1663618D02*
X1855563Y1662027D01*
X1860563Y1659754D02*
X1860875D01*
X1861500Y1659527*
X1861813Y1659300*
X1862125Y1658845*
Y1657936*
X1861813Y1657481*
X1861500Y1657254*
X1860875Y1657027*
X1860250*
X1859625Y1657254*
X1858688Y1657709*
X1855563Y1659981*
Y1656800*
X1836749Y1630628D02*
Y1624066D01*
Y1630628D02*
X1838795D01*
X1839477Y1630316*
X1839704Y1630003*
X1839931Y1629378*
Y1628753*
X1839704Y1628128*
X1839477Y1627816*
X1838795Y1627503*
X1836749*
X1838340D02*
X1839931Y1624066D01*
X1844931Y1630628D02*
X1842658D01*
X1842431Y1627816*
X1842658Y1628128*
X1843340Y1628441*
X1844022*
X1844704Y1628128*
X1845158Y1627503*
X1845386Y1626566*
X1845158Y1625941*
X1844931Y1625003*
X1844477Y1624378*
X1843795Y1624066*
X1843113*
X1842431Y1624378*
X1842204Y1624691*
X1841977Y1625316*
X1850496Y1575884D02*
Y1569322D01*
Y1575884D02*
X1852542D01*
X1853223Y1575572*
X1853451Y1575259*
X1853678Y1574634*
Y1574009*
X1853451Y1573384*
X1853223Y1573072*
X1852542Y1572759*
X1850496*
X1852087D02*
X1853678Y1569322D01*
X1855723Y1575884D02*
Y1569322D01*
Y1575884D02*
X1858678D01*
X1855723Y1572759D02*
X1857542D01*
X1855723Y1569322D02*
X1858678D01*
X1864132Y1574322D02*
X1863905Y1574947D01*
X1863451Y1575572*
X1862996Y1575884*
X1862087*
X1861632Y1575572*
X1861178Y1574947*
X1860951Y1574322*
X1860723Y1573384*
Y1571822*
X1860951Y1570884*
X1861178Y1570259*
X1861632Y1569634*
X1862087Y1569322*
X1862996*
X1863451Y1569634*
X1863905Y1570259*
X1864132Y1570884*
X1851596Y1661975D02*
X1852221Y1662203D01*
X1852846Y1662657*
X1853158Y1663112*
Y1664021*
X1852846Y1664475*
X1852221Y1664930*
X1851596Y1665157*
X1850658Y1665385*
X1849096*
X1848158Y1665157*
X1847533Y1664930*
X1846908Y1664475*
X1846596Y1664021*
Y1663112*
X1846908Y1662657*
X1847533Y1662203*
X1848158Y1661975*
X1853158Y1658794D02*
X1852846Y1659475D01*
X1852221Y1659703*
X1851596*
X1850971Y1659475*
X1850658Y1659021*
X1850346Y1658112*
X1850033Y1657430*
X1849408Y1656975*
X1848783Y1656748*
X1847846*
X1847221Y1656975*
X1846908Y1657203*
X1846596Y1657885*
Y1658794*
X1846908Y1659475*
X1847221Y1659703*
X1847846Y1659930*
X1848783*
X1849408Y1659703*
X1850033Y1659248*
X1850346Y1658566*
X1850658Y1657657*
X1850971Y1657203*
X1851596Y1656975*
X1852221*
X1852846Y1657203*
X1853158Y1657885*
Y1658794*
X1844486Y1610233D02*
Y1603671D01*
Y1610233D02*
X1846531D01*
X1847213Y1609921*
X1847440Y1609608*
X1847667Y1608983*
Y1608358*
X1847440Y1607733*
X1847213Y1607421*
X1846531Y1607108*
X1844486*
X1846076D02*
X1847667Y1603671D01*
X1851986Y1610233D02*
X1849713Y1605858D01*
X1853122*
X1851986Y1610233D02*
Y1603671D01*
X1844837Y1652430D02*
Y1645867D01*
Y1652430D02*
X1846883D01*
X1847565Y1652117*
X1847792Y1651805*
X1848019Y1651180*
Y1650555*
X1847792Y1649930*
X1847565Y1649617*
X1846883Y1649305*
X1844837*
X1846428D02*
X1848019Y1645867D01*
X1852792Y1651492D02*
X1852565Y1652117D01*
X1851883Y1652430*
X1851428*
X1850746Y1652117*
X1850292Y1651180*
X1850065Y1649617*
Y1648055*
X1850292Y1646805*
X1850746Y1646180*
X1851428Y1645867*
X1851655*
X1852337Y1646180*
X1852792Y1646805*
X1853019Y1647742*
Y1648055*
X1852792Y1648992*
X1852337Y1649617*
X1851655Y1649930*
X1851428*
X1850746Y1649617*
X1850292Y1648992*
X1850065Y1648055*
X1751034Y1628031D02*
X1744471D01*
X1751034Y1629622D02*
Y1626440D01*
Y1624395D02*
X1744471D01*
X1751034D02*
Y1622349D01*
X1750721Y1621668*
X1750409Y1621440*
X1749784Y1621213*
X1749159*
X1748534Y1621440*
X1748221Y1621668*
X1747909Y1622349*
Y1624395*
Y1622804D02*
X1744471Y1621213D01*
X1751034Y1617349D02*
X1744471Y1619168D01*
X1751034Y1617349D02*
X1744471Y1615531D01*
X1746659Y1618486D02*
Y1616213D01*
X1751034Y1613486D02*
X1744471D01*
X1751034D02*
X1744471Y1610304D01*
X1751034D02*
X1744471D01*
X1750096Y1605077D02*
X1750721Y1605531D01*
X1751034Y1606213*
Y1607122*
X1750721Y1607804*
X1750096Y1608258*
X1749471*
X1748846Y1608031*
X1748534Y1607804*
X1748221Y1607349*
X1747596Y1605986*
X1747284Y1605531*
X1746971Y1605304*
X1746346Y1605077*
X1745409*
X1744784Y1605531*
X1744471Y1606213*
Y1607122*
X1744784Y1607804*
X1745409Y1608258*
X1751034Y1603031D02*
X1744471D01*
X1751034D02*
Y1600077D01*
X1747909Y1603031D02*
Y1601213D01*
X1751034Y1596668D02*
X1750721Y1597122D01*
X1750096Y1597577*
X1749471Y1597804*
X1748534Y1598031*
X1746971*
X1746034Y1597804*
X1745409Y1597577*
X1744784Y1597122*
X1744471Y1596668*
Y1595758*
X1744784Y1595304*
X1745409Y1594849*
X1746034Y1594622*
X1746971Y1594395*
X1748534*
X1749471Y1594622*
X1750096Y1594849*
X1750721Y1595304*
X1751034Y1595758*
Y1596668*
Y1592349D02*
X1744471D01*
X1751034D02*
Y1590304D01*
X1750721Y1589622*
X1750409Y1589395*
X1749784Y1589168*
X1749159*
X1748534Y1589395*
X1748221Y1589622*
X1747909Y1590304*
Y1592349*
Y1590758D02*
X1744471Y1589168D01*
X1751034Y1587122D02*
X1744471D01*
X1751034D02*
X1744471Y1585304D01*
X1751034Y1583486D02*
X1744471Y1585304D01*
X1751034Y1583486D02*
X1744471D01*
X1751034Y1581440D02*
X1744471D01*
X1751034D02*
Y1578486D01*
X1747909Y1581440D02*
Y1579622D01*
X1744471Y1581440D02*
Y1578486D01*
X1751034Y1576440D02*
X1744471D01*
X1751034D02*
Y1574395D01*
X1750721Y1573713*
X1750409Y1573486*
X1749784Y1573258*
X1749159*
X1748534Y1573486*
X1748221Y1573713*
X1747909Y1574395*
Y1576440*
Y1574849D02*
X1744471Y1573258D01*
X2013124Y1527415D02*
X2019686D01*
Y1530142*
X2014374Y1532187D02*
X2014061Y1532642D01*
X2013124Y1533324*
X2019686*
X2216456Y1518520D02*
X2223018D01*
X2216456D02*
Y1520565D01*
X2216768Y1521247*
X2217081Y1521474*
X2217706Y1521702*
X2218331*
X2218956Y1521474*
X2219268Y1521247*
X2219581Y1520565*
Y1518520*
Y1520111D02*
X2223018Y1521702D01*
X2217706Y1523747D02*
X2217393Y1524202D01*
X2216456Y1524883*
X2223018*
X2216456Y1528292D02*
X2216768Y1527611D01*
X2217706Y1527156*
X2219268Y1526929*
X2220206*
X2221768Y1527156*
X2222706Y1527611*
X2223018Y1528292*
Y1528747*
X2222706Y1529429*
X2221768Y1529883*
X2220206Y1530111*
X2219268*
X2217706Y1529883*
X2216768Y1529429*
X2216456Y1528747*
Y1528292*
X2171939Y1520063D02*
X2178501D01*
X2171939D02*
Y1522108D01*
X2172251Y1522790*
X2172564Y1523018*
X2173189Y1523245*
X2173814*
X2174439Y1523018*
X2174751Y1522790*
X2175064Y1522108*
Y1520063*
Y1521654D02*
X2178501Y1523245D01*
X2174126Y1528245D02*
X2175064Y1528018D01*
X2175689Y1527563*
X2176001Y1526881*
Y1526654*
X2175689Y1525972*
X2175064Y1525518*
X2174126Y1525290*
X2173814*
X2172876Y1525518*
X2172251Y1525972*
X2171939Y1526654*
Y1526881*
X2172251Y1527563*
X2172876Y1528018*
X2174126Y1528245*
X2175689*
X2177251Y1528018*
X2178189Y1527563*
X2178501Y1526881*
Y1526427*
X2178189Y1525745*
X2177564Y1525518*
X2072316Y1632671D02*
X2072089Y1633296D01*
X2071634Y1633921*
X2071180Y1634233*
X2070270*
X2069816Y1633921*
X2069361Y1633296*
X2069134Y1632671*
X2068907Y1631733*
Y1630171*
X2069134Y1629233*
X2069361Y1628608*
X2069816Y1627983*
X2070270Y1627671*
X2071180*
X2071634Y1627983*
X2072089Y1628608*
X2072316Y1629233*
X2076634Y1634233D02*
X2074361Y1629858D01*
X2077770*
X2076634Y1634233D02*
Y1627671D01*
X2047559Y1528963D02*
X2047331Y1529588D01*
X2046877Y1530213*
X2046422Y1530526*
X2045513*
X2045059Y1530213*
X2044604Y1529588*
X2044377Y1528963*
X2044150Y1528026*
Y1526463*
X2044377Y1525526*
X2044604Y1524901*
X2045059Y1524276*
X2045513Y1523963*
X2046422*
X2046877Y1524276*
X2047331Y1524901*
X2047559Y1525526*
X2050059Y1530526D02*
X2052559D01*
X2051195Y1528026*
X2051877*
X2052331Y1527713*
X2052559Y1527401*
X2052786Y1526463*
Y1525838*
X2052559Y1524901*
X2052104Y1524276*
X2051422Y1523963*
X2050741*
X2050059Y1524276*
X2049831Y1524588*
X2049604Y1525213*
X1619222Y1604597D02*
X1619676Y1604910D01*
X1620358Y1605847*
Y1599285*
X1622404Y1604597D02*
X1622858Y1604910D01*
X1623540Y1605847*
Y1599285*
X1628540Y1605847D02*
X1626267D01*
X1626040Y1603035*
X1626267Y1603347*
X1626949Y1603660*
X1627631*
X1628313Y1603347*
X1628767Y1602722*
X1628995Y1601785*
X1628767Y1601160*
X1628540Y1600222*
X1628085Y1599597*
X1627404Y1599285*
X1626722*
X1626040Y1599597*
X1625813Y1599910*
X1625585Y1600535*
X1631040Y1605847D02*
X1632858Y1599285D01*
X1634676Y1605847D02*
X1632858Y1599285D01*
X1643767Y1605847D02*
X1641949Y1599285D01*
X1643767Y1605847D02*
X1645585Y1599285D01*
X1642631Y1601472D02*
X1644904D01*
X1651040Y1604285D02*
X1650813Y1604910D01*
X1650358Y1605535*
X1649904Y1605847*
X1648995*
X1648540Y1605535*
X1648085Y1604910*
X1647858Y1604285*
X1647631Y1603347*
Y1601785*
X1647858Y1600847*
X1648085Y1600222*
X1648540Y1599597*
X1648995Y1599285*
X1649904*
X1650358Y1599597*
X1650813Y1600222*
X1651040Y1600847*
X2178045Y1588548D02*
X2177590Y1588236D01*
X2177136Y1587611*
X2176908Y1586986*
X2176681Y1586048*
Y1584486*
X2176908Y1583548*
X2177136Y1582923*
X2177590Y1582298*
X2178045Y1581986*
X2178954*
X2179408Y1582298*
X2179863Y1582923*
X2180090Y1583548*
X2180317Y1584486*
Y1586048*
X2180090Y1586986*
X2179863Y1587611*
X2179408Y1588236*
X2178954Y1588548*
X2178045*
X2182363D02*
Y1581986D01*
X2185545Y1588548D02*
Y1581986D01*
X2182363Y1585423D02*
X2185545D01*
X2187590Y1588548D02*
Y1581986D01*
Y1588548D02*
X2189408Y1581986D01*
X2191227Y1588548D02*
X2189408Y1581986D01*
X2191227Y1588548D02*
Y1581986D01*
X2193272Y1587298D02*
X2193727Y1587611D01*
X2194408Y1588548*
Y1581986*
X2206163Y1587842D02*
X2205709Y1588467D01*
X2205027Y1588779*
X2204118*
X2203436Y1588467*
X2202982Y1587842*
Y1587217*
X2203209Y1586592*
X2203436Y1586279*
X2203891Y1585967*
X2205254Y1585342*
X2205709Y1585029*
X2205936Y1584717*
X2206163Y1584092*
Y1583154*
X2205709Y1582529*
X2205027Y1582217*
X2204118*
X2203436Y1582529*
X2202982Y1583154*
X2208209Y1588779D02*
Y1582217D01*
X2210254Y1588779D02*
Y1582217D01*
Y1588779D02*
X2213436Y1582217D01*
Y1588779D02*
Y1582217D01*
X2177081Y1579242D02*
Y1572680D01*
Y1575805D02*
X2177763Y1576742D01*
X2178218Y1577055*
X2178900*
X2179354Y1576742*
X2179581Y1575805*
Y1572680*
X2182309Y1579242D02*
Y1573930D01*
X2182536Y1572992*
X2182990Y1572680*
X2183445*
X2181627Y1577055D02*
X2183218D01*
X2186172Y1579242D02*
Y1573930D01*
X2186400Y1572992*
X2186854Y1572680*
X2187309*
X2185490Y1577055D02*
X2187081D01*
X2189354D02*
Y1570492D01*
Y1576117D02*
X2189809Y1576742D01*
X2190263Y1577055*
X2190945*
X2191400Y1576742*
X2191854Y1576117*
X2192081Y1575180*
Y1574555*
X2191854Y1573617*
X2191400Y1572992*
X2190945Y1572680*
X2190263*
X2189809Y1572992*
X2189354Y1573617*
X2194354Y1577055D02*
X2194127Y1576742D01*
X2194354Y1576430*
X2194581Y1576742*
X2194354Y1577055*
Y1573305D02*
X2194127Y1572992D01*
X2194354Y1572680*
X2194581Y1572992*
X2194354Y1573305*
X2200718Y1580492D02*
X2196627Y1570492D01*
X2206854Y1580492D02*
X2202763Y1570492D01*
X2210036Y1577055D02*
X2209581Y1576742D01*
X2209127Y1576117*
X2208900Y1575180*
Y1574555*
X2209127Y1573617*
X2209581Y1572992*
X2210036Y1572680*
X2210718*
X2211172Y1572992*
X2211627Y1573617*
X2211854Y1574555*
Y1575180*
X2211627Y1576117*
X2211172Y1576742*
X2210718Y1577055*
X2210036*
X2213900D02*
Y1570492D01*
Y1576117D02*
X2214354Y1576742D01*
X2214809Y1577055*
X2215490*
X2215945Y1576742*
X2216400Y1576117*
X2216627Y1575180*
Y1574555*
X2216400Y1573617*
X2215945Y1572992*
X2215490Y1572680*
X2214809*
X2214354Y1572992*
X2213900Y1573617*
X2218672Y1575180D02*
X2221400D01*
Y1575805*
X2221172Y1576430*
X2220945Y1576742*
X2220490Y1577055*
X2219809*
X2219354Y1576742*
X2218900Y1576117*
X2218672Y1575180*
Y1574555*
X2218900Y1573617*
X2219354Y1572992*
X2219809Y1572680*
X2220490*
X2220945Y1572992*
X2221400Y1573617*
X2223445Y1577055D02*
Y1572680D01*
Y1575805D02*
X2224127Y1576742D01*
X2224581Y1577055*
X2225263*
X2225718Y1576742*
X2225945Y1575805*
Y1572680*
X2227990Y1577055D02*
Y1570492D01*
Y1576117D02*
X2228445Y1576742D01*
X2228900Y1577055*
X2229581*
X2230036Y1576742*
X2230490Y1576117*
X2230718Y1575180*
Y1574555*
X2230490Y1573617*
X2230036Y1572992*
X2229581Y1572680*
X2228900*
X2228445Y1572992*
X2227990Y1573617*
X2233900Y1577055D02*
X2233445Y1576742D01*
X2232990Y1576117*
X2232763Y1575180*
Y1574555*
X2232990Y1573617*
X2233445Y1572992*
X2233900Y1572680*
X2234581*
X2235036Y1572992*
X2235490Y1573617*
X2235718Y1574555*
Y1575180*
X2235490Y1576117*
X2235036Y1576742*
X2234581Y1577055*
X2233900*
X2237763D02*
X2238672Y1572680D01*
X2239581Y1577055D02*
X2238672Y1572680D01*
X2239581Y1577055D02*
X2240490Y1572680D01*
X2241400Y1577055D02*
X2240490Y1572680D01*
X2243445Y1575180D02*
X2246172D01*
Y1575805*
X2245945Y1576430*
X2245718Y1576742*
X2245263Y1577055*
X2244581*
X2244127Y1576742*
X2243672Y1576117*
X2243445Y1575180*
Y1574555*
X2243672Y1573617*
X2244127Y1572992*
X2244581Y1572680*
X2245263*
X2245718Y1572992*
X2246172Y1573617*
X2248218Y1577055D02*
Y1572680D01*
Y1575180D02*
X2248445Y1576117D01*
X2248900Y1576742*
X2249354Y1577055*
X2250036*
X2254809D02*
Y1570492D01*
Y1576117D02*
X2254354Y1576742D01*
X2253900Y1577055*
X2253218*
X2252763Y1576742*
X2252309Y1576117*
X2252081Y1575180*
Y1574555*
X2252309Y1573617*
X2252763Y1572992*
X2253218Y1572680*
X2253900*
X2254354Y1572992*
X2254809Y1573617*
X2256854Y1577055D02*
Y1573930D01*
X2257081Y1572992*
X2257536Y1572680*
X2258218*
X2258672Y1572992*
X2259354Y1573930*
Y1577055D02*
Y1572680D01*
X2264127Y1577055D02*
Y1572680D01*
Y1576117D02*
X2263672Y1576742D01*
X2263218Y1577055*
X2262536*
X2262081Y1576742*
X2261627Y1576117*
X2261400Y1575180*
Y1574555*
X2261627Y1573617*
X2262081Y1572992*
X2262536Y1572680*
X2263218*
X2263672Y1572992*
X2264127Y1573617*
X2266172Y1579242D02*
Y1572680D01*
X2268218Y1579242D02*
X2268445Y1578930D01*
X2268672Y1579242*
X2268445Y1579555*
X2268218Y1579242*
X2268445Y1577055D02*
Y1572680D01*
X2271400Y1579242D02*
Y1573930D01*
X2271627Y1572992*
X2272081Y1572680*
X2272536*
X2270718Y1577055D02*
X2272309D01*
X2274809D02*
X2276172Y1572680D01*
X2277536Y1577055D02*
X2276172Y1572680D01*
X2275718Y1571430*
X2275263Y1570805*
X2274809Y1570492*
X2274581*
X2279809Y1573305D02*
X2279581Y1572992D01*
X2279809Y1572680*
X2280036Y1572992*
X2279809Y1573305*
X2283218Y1577055D02*
X2282763Y1576742D01*
X2282309Y1576117*
X2282081Y1575180*
Y1574555*
X2282309Y1573617*
X2282763Y1572992*
X2283218Y1572680*
X2283900*
X2284354Y1572992*
X2284809Y1573617*
X2285036Y1574555*
Y1575180*
X2284809Y1576117*
X2284354Y1576742*
X2283900Y1577055*
X2283218*
X2287081D02*
Y1572680D01*
Y1575180D02*
X2287309Y1576117D01*
X2287763Y1576742*
X2288218Y1577055*
X2288900*
X2293672D02*
Y1572055D01*
X2293445Y1571117*
X2293218Y1570805*
X2292763Y1570492*
X2292081*
X2291627Y1570805*
X2293672Y1576117D02*
X2293218Y1576742D01*
X2292763Y1577055*
X2292081*
X2291627Y1576742*
X2291172Y1576117*
X2290945Y1575180*
Y1574555*
X2291172Y1573617*
X2291627Y1572992*
X2292081Y1572680*
X2292763*
X2293218Y1572992*
X2293672Y1573617*
X2299809Y1580492D02*
X2295718Y1570492D01*
X1606299Y1481890D02*
Y1718110D01*
X2248031*
Y1647244*
X2393701*
Y1576378*
X2342520*
Y1481890*
X1606299*
G54D47*
X2151746Y1578344D02*
Y1581029D01*
X2154210Y1581383*
X2154264Y1581724*
X2154854Y1583261*
X2155264Y1583891*
X2153762Y1585896*
X2155661Y1587795*
X2157666Y1586294*
X2158296Y1586703*
X2159833Y1587293*
X2160175Y1587347*
X2160529Y1589811*
X2163214*
X2163569Y1587339*
X2164693Y1587038*
X2166108Y1586317*
X2168081Y1587795*
X2169980Y1585896*
X2168502Y1583923*
X2169223Y1582508*
X2169524Y1581384*
X2171996Y1581029*
Y1578344*
X2169532Y1577989*
X2169478Y1577648*
X2168888Y1576111*
X2168479Y1575481*
X2169980Y1573476*
X2168081Y1571577*
X2166076Y1573079*
X2165446Y1572669*
X2165189Y1572571*
X2163056Y1577145*
X2163148Y1577180*
X2163641Y1577500*
X2164057Y1577916*
X2164377Y1578409*
X2164588Y1578958*
X2164680Y1579539*
X2164649Y1580126*
X2164497Y1580694*
X2164230Y1581218*
X2163860Y1581675*
X2163403Y1582045*
X2162879Y1582312*
X2162311Y1582464*
X2161724Y1582495*
X2161143Y1582403*
X2160594Y1582192*
X2160101Y1581872*
X2159685Y1581456*
X2159365Y1580963*
X2159154Y1580414*
X2159062Y1579833*
X2159093Y1579246*
X2159245Y1578678*
X2159512Y1578154*
X2159882Y1577697*
X2160339Y1577327*
X2160688Y1577149*
X2158559Y1572584*
X2157634Y1573055*
X2155661Y1571577*
X2153762Y1573476*
X2155240Y1575449*
X2154519Y1576864*
X2154218Y1577988*
X2151746Y1578344*
G74*
X0Y0D02*
M02*
