*
*
G04 PADS 9.5 Build Number: 522968 generated Gerber (RS-274-X) file*
G04 PC Version=2.1*
*
%IN "ohm1.pcb"*%
*
%MOIN*%
*
%FSLAX35Y35*%
*
*
*
*
G04 PC Standard Apertures*
*
*
G04 Thermal Relief Aperture macro.*
%AMTER*
1,1,$1,0,0*
1,0,$1-$2,0,0*
21,0,$3,$4,0,0,45*
21,0,$3,$4,0,0,135*
%
*
*
G04 Annular Aperture macro.*
%AMANN*
1,1,$1,0,0*
1,0,$2,0,0*
%
*
*
G04 Odd Aperture macro.*
%AMODD*
1,1,$1,0,0*
1,0,$1-0.005,0,0*
%
*
*
G04 PC Custom Aperture Macros*
*
*
*
*
*
*
G04 PC Aperture Table*
*
%ADD010C,0.001*%
%ADD013C,0.01*%
%ADD133R,0.062X0.062*%
%ADD134C,0.062*%
%ADD146R,0.04413X0.08704*%
%ADD147R,0.06106X0.10043*%
%ADD148C,0.05712*%
%ADD149C,0.15948*%
%ADD150C,0.06106*%
%ADD151R,0.052X0.062*%
%ADD152R,0.04X0.032*%
%ADD153R,0.032X0.04*%
%ADD154C,0.092*%
%ADD155R,0.01775X0.05909*%
%ADD156R,0.10137X0.10137*%
%ADD157C,0.10137*%
%ADD158R,0.06302X0.03546*%
*
*
*
*
G04 PC Circuitry*
G04 Layer Name ohm1.pcb - circuitry*
%LPD*%
*
*
G04 PC Custom Flashes*
G04 Layer Name ohm1.pcb - flashes*
%LPD*%
*
*
G04 PC Circuitry*
G04 Layer Name ohm1.pcb - circuitry*
%LPD*%
*
G54D10*
G54D13*
G01X1966432Y1551439D02*
Y1571102D01*
X1966471Y1571223*
X1966546Y1571325*
X1966648Y1571400*
X1966648D02*
X1966769Y1571439D01*
X1971294*
Y1578158*
X1929575*
Y1571439*
X1934100*
X1934221Y1571400*
X1934221D02*
X1934323Y1571325D01*
X1934398Y1571223*
X1934437Y1571102*
Y1551439*
X1966432*
X1929675Y1571439D02*
Y1578158D01*
X1930175Y1571439D02*
Y1578158D01*
X1930675Y1571439D02*
Y1578158D01*
X1931175Y1571439D02*
Y1578158D01*
X1931675Y1571439D02*
Y1578158D01*
X1932175Y1571439D02*
Y1578158D01*
X1932675Y1571439D02*
Y1578158D01*
X1933175Y1571439D02*
Y1578158D01*
X1933675Y1571439D02*
Y1578158D01*
X1934175Y1571414D02*
Y1578158D01*
X1934675Y1551439D02*
Y1578158D01*
X1935175Y1551439D02*
Y1578158D01*
X1935675Y1551439D02*
Y1578158D01*
X1936175Y1551439D02*
Y1578158D01*
X1936675Y1551439D02*
Y1578158D01*
X1937175Y1551439D02*
Y1578158D01*
X1937675Y1551439D02*
Y1578158D01*
X1938175Y1551439D02*
Y1578158D01*
X1938675Y1551439D02*
Y1578158D01*
X1939175Y1551439D02*
Y1578158D01*
X1939675Y1551439D02*
Y1578158D01*
X1940175Y1551439D02*
Y1578158D01*
X1940675Y1551439D02*
Y1578158D01*
X1941175Y1551439D02*
Y1578158D01*
X1941675Y1551439D02*
Y1578158D01*
X1942175Y1551439D02*
Y1578158D01*
X1942675Y1551439D02*
Y1578158D01*
X1943175Y1551439D02*
Y1578158D01*
X1943675Y1551439D02*
Y1578158D01*
X1944175Y1551439D02*
Y1578158D01*
X1944675Y1551439D02*
Y1578158D01*
X1945175Y1551439D02*
Y1578158D01*
X1945675Y1551439D02*
Y1578158D01*
X1946175Y1551439D02*
Y1578158D01*
X1946675Y1551439D02*
Y1578158D01*
X1947175Y1551439D02*
Y1578158D01*
X1947675Y1551439D02*
Y1578158D01*
X1948175Y1551439D02*
Y1578158D01*
X1948675Y1551439D02*
Y1578158D01*
X1949175Y1551439D02*
Y1578158D01*
X1949675Y1551439D02*
Y1578158D01*
X1950175Y1551439D02*
Y1578158D01*
X1950675Y1551439D02*
Y1578158D01*
X1951175Y1551439D02*
Y1578158D01*
X1951675Y1551439D02*
Y1578158D01*
X1952175Y1551439D02*
Y1578158D01*
X1952675Y1551439D02*
Y1578158D01*
X1953175Y1551439D02*
Y1578158D01*
X1953675Y1551439D02*
Y1578158D01*
X1954175Y1551439D02*
Y1578158D01*
X1954675Y1551439D02*
Y1578158D01*
X1955175Y1551439D02*
Y1578158D01*
X1955675Y1551439D02*
Y1578158D01*
X1956175Y1551439D02*
Y1578158D01*
X1956675Y1551439D02*
Y1578158D01*
X1957175Y1551439D02*
Y1578158D01*
X1957675Y1551439D02*
Y1578158D01*
X1958175Y1551439D02*
Y1578158D01*
X1958675Y1551439D02*
Y1578158D01*
X1959175Y1551439D02*
Y1578158D01*
X1959675Y1551439D02*
Y1578158D01*
X1960175Y1551439D02*
Y1578158D01*
X1960675Y1551439D02*
Y1578158D01*
X1961175Y1551439D02*
Y1578158D01*
X1961675Y1551439D02*
Y1578158D01*
X1962175Y1551439D02*
Y1578158D01*
X1962675Y1551439D02*
Y1578158D01*
X1963175Y1551439D02*
Y1578158D01*
X1963675Y1551439D02*
Y1578158D01*
X1964175Y1551439D02*
Y1578158D01*
X1964675Y1551439D02*
Y1578158D01*
X1965175Y1551439D02*
Y1578158D01*
X1965675Y1551439D02*
Y1578158D01*
X1966175Y1551439D02*
Y1578158D01*
X1966675Y1571408D02*
Y1578158D01*
X1967175Y1571439D02*
Y1578158D01*
X1967675Y1571439D02*
Y1578158D01*
X1968175Y1571439D02*
Y1578158D01*
X1968675Y1571439D02*
Y1578158D01*
X1969175Y1571439D02*
Y1578158D01*
X1969675Y1571439D02*
Y1578158D01*
X1970175Y1571439D02*
Y1578158D01*
X1970675Y1571439D02*
Y1578158D01*
X1971175Y1571439D02*
Y1578158D01*
X2016449Y1621519D02*
Y1594760D01*
X2043208*
Y1621519*
X2016449*
X2016608Y1594760D02*
Y1621519D01*
X2017108Y1594760D02*
Y1621519D01*
X2017608Y1594760D02*
Y1621519D01*
X2018108Y1594760D02*
Y1621519D01*
X2018608Y1594760D02*
Y1621519D01*
X2019108Y1594760D02*
Y1621519D01*
X2019608Y1594760D02*
Y1621519D01*
X2020108Y1594760D02*
Y1621519D01*
X2020608Y1594760D02*
Y1621519D01*
X2021108Y1594760D02*
Y1621519D01*
X2021608Y1594760D02*
Y1621519D01*
X2022108Y1594760D02*
Y1621519D01*
X2022608Y1594760D02*
Y1621519D01*
X2023108Y1594760D02*
Y1621519D01*
X2023608Y1594760D02*
Y1621519D01*
X2024108Y1594760D02*
Y1621519D01*
X2024608Y1594760D02*
Y1621519D01*
X2025108Y1594760D02*
Y1621519D01*
X2025608Y1594760D02*
Y1621519D01*
X2026108Y1594760D02*
Y1621519D01*
X2026608Y1594760D02*
Y1621519D01*
X2027108Y1594760D02*
Y1621519D01*
X2027608Y1594760D02*
Y1621519D01*
X2028108Y1594760D02*
Y1621519D01*
X2028608Y1594760D02*
Y1621519D01*
X2029108Y1594760D02*
Y1621519D01*
X2029608Y1594760D02*
Y1621519D01*
X2030108Y1594760D02*
Y1621519D01*
X2030608Y1594760D02*
Y1621519D01*
X2031108Y1594760D02*
Y1621519D01*
X2031608Y1594760D02*
Y1621519D01*
X2032108Y1594760D02*
Y1621519D01*
X2032608Y1594760D02*
Y1621519D01*
X2033108Y1594760D02*
Y1621519D01*
X2033608Y1594760D02*
Y1621519D01*
X2034108Y1594760D02*
Y1621519D01*
X2034608Y1594760D02*
Y1621519D01*
X2035108Y1594760D02*
Y1621519D01*
X2035608Y1594760D02*
Y1621519D01*
X2036108Y1594760D02*
Y1621519D01*
X2036608Y1594760D02*
Y1621519D01*
X2037108Y1594760D02*
Y1621519D01*
X2037608Y1594760D02*
Y1621519D01*
X2038108Y1594760D02*
Y1621519D01*
X2038608Y1594760D02*
Y1621519D01*
X2039108Y1594760D02*
Y1621519D01*
X2039608Y1594760D02*
Y1621519D01*
X2040108Y1594760D02*
Y1621519D01*
X2040608Y1594760D02*
Y1621519D01*
X2041108Y1594760D02*
Y1621519D01*
X2041608Y1594760D02*
Y1621519D01*
X2042108Y1594760D02*
Y1621519D01*
X2042608Y1594760D02*
Y1621519D01*
X2043108Y1594760D02*
Y1621519D01*
X1606299Y1481890D02*
Y1718110D01*
X2248031*
Y1647244*
X2393701*
Y1576378*
X2342520*
Y1481890*
X1606299*
G54D133*
X1833197Y1697394D03*
X1994288Y1504221D03*
G54D134*
X1833197Y1707394D03*
X1843197Y1697394D03*
Y1707394D03*
X1853197Y1697394D03*
Y1707394D03*
X1863197Y1697394D03*
Y1707394D03*
X1873197Y1697394D03*
Y1707394D03*
X1883197Y1697394D03*
Y1707394D03*
X1893197Y1697394D03*
Y1707394D03*
X2111357Y1691580D03*
Y1701580D03*
X2121357Y1691580D03*
Y1701580D03*
X2131357Y1691580D03*
Y1701580D03*
X2141357Y1691580D03*
Y1701580D03*
X2151357Y1691580D03*
Y1701580D03*
X2161357Y1691580D03*
Y1701580D03*
X2171357Y1691580D03*
Y1701580D03*
X2181357Y1691580D03*
Y1701580D03*
X2191357Y1691580D03*
Y1701580D03*
X2201357Y1691580D03*
Y1701580D03*
X2211357Y1691580D03*
Y1701580D03*
X2221357Y1691580D03*
Y1701580D03*
X2231357Y1691580D03*
Y1701580D03*
X1994288Y1554221D03*
X2016206Y1504218D03*
Y1554218D03*
X2191659Y1506353D03*
X2201659D03*
X2152693D03*
X2162693D03*
G54D146*
X1936143Y1522771D03*
X1942836D03*
X1949529D03*
X1956222D03*
X1962915D03*
X1950222Y1568771D03*
G54D147*
X2038883Y1635304D03*
X2029608Y1624360D03*
X2020773Y1635304D03*
X2029608Y1600360D03*
G54D148*
X2111207Y1664820D03*
X2077772Y1537531D03*
X1980303Y1622134D03*
X1983701Y1692933D03*
X1973701D03*
X1963701D03*
X1953701D03*
X1947124Y1633997D03*
X1919920Y1599206D03*
X1917752Y1535102D03*
X1903467Y1580159D03*
X1846022Y1652344D03*
X1845982Y1599453D03*
X2108206Y1543758D03*
X2118206D03*
X2128206D03*
X2138206D03*
G54D149*
X2084891Y1605802D03*
X1748031Y1694488D03*
Y1505512D03*
X1633858Y1640651D03*
Y1565575D03*
X2234564Y1605802D03*
G54D150*
X1960900Y1664315D03*
Y1645102D03*
G54D151*
X2005315Y1635030D03*
Y1626030D03*
X2061938Y1635397D03*
Y1626397D03*
G54D152*
X1925131Y1633741D03*
X1918931D03*
X1866175Y1640587D03*
X1859975D03*
X1866175Y1615650D03*
X1859975D03*
X1846015D03*
X1852215D03*
Y1640587D03*
X1846015D03*
G54D153*
X1888051Y1631029D03*
Y1624829D03*
X1873583Y1640196D03*
Y1633996D03*
Y1622194D03*
Y1615994D03*
X1857428Y1678257D03*
Y1672057D03*
X1852180Y1625065D03*
Y1631265D03*
X1849081Y1678290D03*
Y1672090D03*
X2219871Y1506312D03*
Y1512512D03*
X2175458Y1506324D03*
Y1512524D03*
G54D154*
X1686559Y1640602D03*
Y1565602D03*
X1806559Y1640602D03*
Y1615602D03*
Y1590602D03*
Y1565602D03*
G54D155*
X1909749Y1642650D03*
X1912308D03*
X1914867D03*
X1917427D03*
X1919986D03*
X1922545D03*
X1925104D03*
X1927663D03*
X1930222D03*
X1932781D03*
X1935340D03*
X1937899D03*
Y1665681D03*
X1935340D03*
X1932781D03*
X1930222D03*
X1927663D03*
X1925104D03*
X1922545D03*
X1919986D03*
X1917427D03*
X1914867D03*
X1912308D03*
X1909749D03*
G54D156*
X1888404Y1517743D03*
X2048348Y1537428D03*
G54D157*
X1888404D03*
X2048348Y1517743D03*
G54D158*
X1869014Y1564936D03*
Y1580684D03*
X1845786D03*
Y1564936D03*
X0Y0D02*
M02*
